<svg width="65" height="70" viewBox="0 0 65 70" fill="none" xmlns="http://www.w3.org/2000/svg">
<path fill-rule="evenodd" clip-rule="evenodd" d="M62.467 16.354C62.467 14.463 60.965 12.905 59.074 12.849C57.183 12.849 55.625 14.351 55.625 16.243C55.625 18.134 57.127 19.691 59.018 19.747C60.91 19.803 62.467 18.245 62.467 16.354ZM54.624 11.681C54.624 9.79 53.067 8.28799 51.175 8.28799C49.284 8.28799 47.782 9.846 47.727 11.737C47.727 13.628 49.228 15.13 51.175 15.13C53.122 15.13 54.624 13.573 54.624 11.681ZM45.947 14.518C45.947 12.627 44.389 11.069 42.498 11.069C40.606 11.014 39.049 12.571 39.049 14.518C39.049 16.409 40.606 17.967 42.498 17.967C44.389 17.967 45.947 16.409 45.947 14.518ZM26.2 4.617V7.84299C26.2 8.89999 26.2 9.90101 26.144 11.014C27.646 10.179 29.036 9.45601 30.65 8.62201C30.663 8.72901 30.679 8.832 30.695 8.931C30.746 9.247 30.79 9.52301 30.705 9.73401C30.422 10.626 30.123 11.502 29.826 12.375C29.308 13.898 28.793 15.409 28.369 16.966C27.535 19.914 30.316 22.64 33.264 21.861C35.656 21.249 36.935 18.968 36.156 16.576L33.931 9.73401C33.847 9.52301 33.891 9.247 33.941 8.931C33.957 8.832 33.974 8.72901 33.987 8.62201C35.656 9.45601 37.046 10.179 38.493 10.958V4.561C37.213 5.006 35.99 5.396 34.766 5.729C34.543 5.841 34.098 5.84101 33.987 5.67401C33.82 5.56301 33.876 5.11799 33.931 4.89499C34.432 3.28199 34.933 1.669 35.489 0H29.259C29.283 0.073 29.297 0.135986 29.309 0.191986C29.325 0.263986 29.339 0.327008 29.37 0.389008C29.469 0.695008 29.567 0.999002 29.665 1.302C30.065 2.539 30.459 3.75501 30.816 5.00601C30.872 5.22901 30.816 5.563 30.705 5.729C30.594 5.841 30.26 5.841 30.038 5.785C29.667 5.711 29.296 5.58699 28.925 5.46399C28.74 5.40199 28.554 5.34 28.369 5.284C27.701 5.062 26.978 4.839 26.2 4.617ZM25.755 14.518C25.755 12.627 24.197 11.069 22.306 11.069C20.414 11.069 18.857 12.571 18.857 14.518C18.857 16.409 20.414 17.967 22.306 17.967C24.141 17.967 25.755 16.409 25.755 14.518ZM17.021 11.737C17.021 9.79 15.464 8.28799 13.573 8.28799C11.681 8.34399 10.124 9.846 10.124 11.737C10.124 13.628 11.681 15.186 13.573 15.186C15.519 15.186 17.021 13.628 17.021 11.737ZM10.566 37.332C10.854 37.499 11.147 37.67 11.459 37.825C11.275 37.235 11.094 36.65 10.916 36.074C10.339 34.206 9.78601 32.418 9.23401 30.761C9.19001 30.871 9.14599 30.982 9.10199 31.092C8.59399 32.371 8.09299 33.635 7.12 34.71C6.547 33.277 6.75299 31.885 6.96399 30.463C6.99799 30.23 7.03303 29.995 7.06403 29.76C6.15503 30.104 5.28097 30.414 4.42297 30.718C3.75797 30.953 3.103 31.186 2.448 31.428C2.704 31.856 2.96 32.267 3.211 32.668C3.612 33.31 3.99599 33.927 4.33899 34.543C6.61899 38.493 8.01002 42.776 9.06702 47.17C9.23402 47.838 9.51202 47.949 10.124 47.838C16.688 46.892 23.251 46.503 29.815 46.392C38.215 46.225 46.503 46.67 54.791 47.838C55.347 47.893 55.681 47.838 55.737 47.226C55.848 46.67 56.015 46.113 56.182 45.557C57.517 40.773 59.185 36.101 62.078 31.985C62.123 31.917 62.159 31.849 62.197 31.778C62.252 31.673 62.312 31.561 62.412 31.428C61.18 31.032 59.983 30.602 58.766 30.164C58.444 30.048 58.121 29.932 57.795 29.815C57.833 30.104 57.878 30.392 57.923 30.677C58.138 32.041 58.347 33.367 57.795 34.655L57.517 34.766C57.32 34.356 57.124 33.94 56.926 33.52C56.507 32.631 56.079 31.723 55.625 30.816C55.326 31.807 55.036 32.798 54.744 33.796C54.33 35.209 53.912 36.637 53.456 38.103C53.601 38.013 53.744 37.922 53.886 37.832C54.879 37.2 55.798 36.615 57.016 36.713C56.404 37.77 55.792 38.826 55.069 39.772C54.29 40.829 53.289 41.608 52.01 41.997C50.619 42.386 49.117 41.886 48.283 40.773C47.56 39.772 47.448 38.27 48.06 37.213C48.783 35.934 50.063 35.823 51.008 36.935C51.129 37.056 51.233 37.209 51.347 37.377C51.444 37.519 51.548 37.672 51.676 37.825C52.232 36.546 52.622 35.322 51.843 34.154C50.953 32.819 49.618 32.93 48.172 33.32C52.01 29.203 51.175 25.921 48.95 23.14C45.279 25.699 44.89 29.092 46.67 33.153C44.89 31.818 43.61 31.651 42.665 32.541C41.775 33.32 41.552 35.1 42.22 36.212C42.259 36.173 42.298 36.14 42.335 36.11C42.403 36.054 42.462 36.006 42.498 35.934C42.998 35.322 43.61 34.821 44.445 35.155C45.279 35.433 45.557 36.156 45.668 36.991C45.835 38.437 45.112 39.494 43.944 40.273C42.831 40.996 41.608 41.33 40.328 41.385C35.767 41.496 33.486 39.438 33.653 34.488C35.982 34.65 37.361 36.236 38.818 37.911C38.858 37.956 38.898 38.002 38.938 38.048C39.021 37.046 39.105 36.069 39.188 35.091C39.327 33.461 39.466 31.832 39.605 30.093C37.881 31.818 35.99 32.708 33.486 32.652C33.7 32.314 33.903 31.987 34.099 31.669C34.516 30.995 34.906 30.365 35.322 29.76C35.746 29.104 36.224 28.502 36.718 27.879C36.937 27.603 37.158 27.324 37.38 27.034H27.535C27.727 27.279 27.92 27.52 28.112 27.759C29.355 29.311 30.531 30.779 31.206 32.708C30.149 32.596 29.036 32.43 28.091 32.04C27.371 31.72 26.738 31.286 26.088 30.839C25.833 30.665 25.576 30.488 25.31 30.316C25.365 30.955 25.421 31.591 25.476 32.227C25.643 34.136 25.81 36.045 25.977 38.048C26.016 38.003 26.055 37.958 26.094 37.914C27.552 36.238 28.933 34.65 31.317 34.488C31.291 34.777 31.277 35.041 31.264 35.292C31.249 35.572 31.235 35.837 31.206 36.101C30.983 38.993 29.593 40.662 26.811 41.218C26.366 41.33 25.977 41.385 25.532 41.385C23.696 41.441 21.916 41.107 20.47 39.883C19.246 38.882 18.857 37.38 19.469 36.101C20.025 34.988 21.138 34.71 22.083 35.545C22.306 35.767 22.528 36.045 22.751 36.323C23.363 34.766 23.14 33.264 22.25 32.541C20.915 31.428 19.691 32.096 18.412 32.986C18.465 32.822 18.518 32.66 18.571 32.499C19.131 30.795 19.653 29.207 19.246 27.479C18.801 25.588 17.522 24.308 16.02 23.085C13.183 26.645 13.628 29.982 16.854 33.264C15.241 32.875 13.906 32.763 13.072 34.098C12.349 35.266 12.738 36.435 13.294 37.714C13.36 37.584 13.425 37.491 13.479 37.415C13.517 37.361 13.55 37.315 13.573 37.269C14.184 36.268 14.908 35.878 15.631 36.045C16.465 36.212 17.077 37.102 17.244 38.103C17.578 40.718 15.019 42.665 12.46 41.608C10.124 40.606 8.95602 38.604 7.84302 36.379C8.92102 36.379 9.72098 36.843 10.566 37.332ZM9.17798 16.298C9.17798 14.407 7.67597 12.849 5.78497 12.849C3.89397 12.849 2.33601 14.407 2.28101 16.298C2.28101 18.189 3.838 19.747 5.729 19.747C7.621 19.747 9.17798 18.189 9.17798 16.298ZM3.44897 21.527C1.55797 21.527 0 23.085 0 24.976C0 26.867 1.55797 28.425 3.44897 28.369C5.39597 28.369 6.89801 26.867 6.89801 24.976C6.89801 23.029 5.33997 21.527 3.44897 21.527ZM10.736 69.643H12.794C12.794 67.418 12.794 65.248 12.738 63.079H7.34302V65.026H10.346C10.346 66.25 9.90099 66.973 9.01099 67.418C7.50899 68.141 5.67402 67.585 4.89502 66.083C4.11602 64.525 4.11602 62.857 4.89502 61.243C5.67402 59.686 7.62099 59.13 9.12299 60.02C9.53699 60.268 9.85803 60.609 10.202 60.974C10.32 61.099 10.441 61.227 10.569 61.355C10.836 61.209 11.114 61.052 11.403 60.89C11.775 60.681 12.164 60.461 12.571 60.242C11.514 58.351 9.62303 57.35 7.17603 57.517C4.95103 57.683 3.33803 58.796 2.39203 60.854C1.83603 62.245 1.72402 63.635 1.94702 65.082C2.33602 67.64 4.061 69.42 6.508 69.81C8.066 70.032 9.45599 69.699 10.68 68.475C10.68 68.713 10.696 68.936 10.711 69.142C10.724 69.321 10.736 69.488 10.736 69.643ZM16.743 68.864C18.69 70.144 20.748 70.255 22.806 69.198C24.976 68.085 25.755 66.027 25.81 64.303C25.866 59.185 22.195 56.404 18.134 57.739C15.631 58.573 14.073 61.077 14.24 63.969C14.351 65.972 15.019 67.696 16.743 68.864ZM29.593 69.365C29.593 69.532 29.871 69.699 30.038 69.699H33.041C34.154 65.693 35.266 61.744 36.435 57.683H33.709C33.294 59.374 32.861 61.064 32.431 62.744C32.111 63.994 31.792 65.238 31.484 66.472C31.317 66.347 31.275 66.222 31.241 66.12C31.23 66.086 31.22 66.055 31.206 66.027C30.538 63.413 29.871 60.798 29.148 58.184C29.092 57.962 28.814 57.628 28.647 57.628C28.132 57.591 27.617 57.603 27.085 57.615C26.814 57.621 26.538 57.628 26.255 57.628C27.09 60.632 27.924 63.542 28.758 66.452C29.036 67.422 29.315 68.391 29.593 69.365ZM36.268 68.252C36.268 69.142 36.935 69.865 37.825 69.865C38.66 69.865 39.327 69.142 39.327 68.308C39.383 67.474 38.66 66.695 37.825 66.695C36.991 66.639 36.268 67.362 36.268 68.252ZM50.508 65.082V58.907V57.628H48.06V65.137C48.06 66.361 47.504 67.195 46.503 67.529C44.612 68.141 43.11 67.084 43.11 65.082V57.628H40.662C40.606 57.85 40.606 58.017 40.606 58.184C40.606 58.822 40.603 59.463 40.6 60.107C40.589 62.043 40.579 63.995 40.662 65.916C40.718 67.529 41.663 68.697 43.11 69.254C44.111 69.643 45.223 69.81 46.28 69.754C48.95 69.587 50.508 67.807 50.508 65.082ZM59.352 69.254C59.463 69.42 59.686 69.699 59.908 69.699L62.467 69.754C61.132 67.641 59.909 65.638 58.685 63.636C57.962 62.468 57.962 62.467 58.852 61.466C59.739 60.49 60.59 59.515 61.491 58.483C61.72 58.22 61.952 57.954 62.189 57.683C62.047 57.683 61.92 57.691 61.804 57.698C61.604 57.709 61.44 57.719 61.299 57.683C59.742 57.405 58.685 57.962 57.795 59.297C57.229 60.185 56.517 60.986 55.807 61.784C55.539 62.085 55.272 62.385 55.013 62.69L54.847 62.634V57.683H52.455V69.699H54.902C54.902 69.42 54.915 69.142 54.927 68.864C54.952 68.308 54.976 67.752 54.902 67.195C54.733 66.138 55.303 65.563 55.904 64.957C56.094 64.766 56.286 64.572 56.46 64.358C57.029 65.339 57.581 66.266 58.125 67.18C58.537 67.873 58.945 68.558 59.352 69.254ZM57.906 25.031C57.906 26.978 59.408 28.425 61.355 28.425C63.246 28.425 64.803 26.867 64.803 24.976C64.748 23.085 63.246 21.583 61.299 21.583C59.408 21.583 57.906 23.085 57.906 25.031ZM20.248 59.63C21.805 59.742 22.973 60.965 23.196 62.745C23.251 63.079 23.251 63.413 23.251 63.802H23.307C23.272 63.996 23.242 64.19 23.213 64.383C23.149 64.797 23.087 65.202 22.973 65.582C22.473 66.973 21.416 67.752 19.969 67.752C18.579 67.752 17.466 66.917 17.021 65.527C16.632 64.414 16.632 63.302 16.91 62.189C17.355 60.465 18.634 59.519 20.248 59.63Z" fill="#7C7C84"/>
</svg>
