<svg width="140" height="38" viewBox="0 0 140 38" fill="none" xmlns="http://www.w3.org/2000/svg">
<path d="M26.708 17.7916C26.9647 17.7916 27.2213 17.7916 27.4779 17.7916C27.6412 17.4416 27.6412 16.9286 27.4779 16.3446C27.3146 15.4816 27.058 14.8986 26.5447 14.9686C26.0314 15.0616 26.0314 15.7386 26.1948 16.6016C26.2648 17.1146 26.4514 17.5346 26.708 17.7916Z" fill="#7C7C84"/>
<path d="M22.1821 18.5626C22.532 18.7256 22.7886 18.8185 22.8586 18.7255C22.9519 18.6325 22.8586 18.5626 22.7652 18.3756C22.6019 18.0256 22.1587 17.7685 21.8321 17.6055C20.9689 17.2555 20.0356 17.3486 19.2657 17.9556C19.0091 18.1186 18.7525 18.3756 18.8458 18.5626C18.8458 18.6556 18.9391 18.6556 19.0091 18.6556C19.1724 18.6556 19.9424 18.3055 20.8056 18.2355C21.3189 18.2125 21.8321 18.3986 22.1821 18.5626Z" fill="#7C7C84"/>
<path d="M21.4121 18.9824C20.8988 19.0754 20.6422 19.2384 20.4788 19.4024C20.3155 19.5654 20.2222 19.6584 20.2222 19.7524V19.8454H20.3155C20.4088 19.8454 20.6655 19.7524 20.6655 19.7524C21.3421 19.4954 21.7853 19.4954 22.2053 19.5884C22.4619 19.5884 22.5552 19.6824 22.6252 19.5884C22.6252 19.5884 22.6252 19.4954 22.6252 19.4254C22.6019 19.1684 22.0886 18.9124 21.4121 18.9824Z" fill="#7C7C84"/>
<path d="M21.6684 19.5888C21.8317 19.2388 21.8317 18.4688 21.6684 17.8858C21.5051 17.0228 21.2485 16.5098 20.6419 16.5098C20.1286 16.6028 20.1286 17.2788 20.2919 18.2128C20.3852 18.8188 20.6419 19.1458 20.7119 19.4028C21.1551 20.1018 21.4118 19.9158 21.6684 19.5888Z" fill="#7C7C84"/>
<path d="M25.1682 20.5206C25.5181 20.6846 25.8448 20.6146 26.0314 20.3576C26.1247 20.1006 25.9381 19.7516 25.6115 19.5876C25.2615 19.4246 24.9349 19.4946 24.7482 19.7516C24.5616 20.0076 24.8182 20.3576 25.1682 20.5206Z" fill="#7C7C84"/>
<path d="M27.2915 18.6562C27.0349 18.6562 26.7783 18.9132 26.7783 19.3332C26.7783 19.6832 26.9416 20.0092 27.2915 20.0092C27.5482 20.0092 27.8048 19.7532 27.8048 19.3332C27.7348 18.9832 27.5482 18.6562 27.2915 18.6562Z" fill="#7C7C84"/>
<path d="M9.21031 25.304C9.11691 25.211 9.04701 25.211 8.95361 25.304C8.86031 25.304 8.79031 25.304 8.69701 25.304C8.53371 25.304 8.34701 25.2109 8.27701 25.0469C8.20711 24.8839 8.18371 24.628 8.27701 24.278L8.37041 24.114C8.62701 23.601 8.97701 22.8309 8.53371 22.0609C8.18371 21.4549 7.76381 21.1279 7.15721 21.0349C6.55061 20.9409 5.96731 21.1979 5.61741 21.6409C5.01081 22.3179 4.94081 23.1809 5.01081 23.5079C5.01081 23.6009 5.10411 23.671 5.17411 23.671C5.26741 23.671 5.43081 23.5779 5.52411 23.3209V23.228C5.52411 23.064 5.61741 22.8779 5.78071 22.6209C5.94401 22.3649 6.20071 22.2009 6.45731 22.2009C6.71391 22.1079 7.06391 22.2009 7.32051 22.3649C7.74051 22.6209 7.92711 23.134 7.74051 23.648C7.48381 23.904 7.39051 24.324 7.39051 24.768C7.48381 25.537 7.99711 25.8869 8.41701 25.9569C8.83701 25.9569 9.18691 25.7009 9.18691 25.5369C9.28031 25.3969 9.21031 25.397 9.21031 25.304Z" fill="#7C7C84"/>
<path d="M34.0337 23.8583C34.0337 23.7643 33.9404 23.4383 33.777 22.9243L33.4271 22.1553C34.0337 21.2913 34.0337 20.4513 33.9404 20.0313C33.847 19.5183 33.5904 19.0053 33.1705 18.4923C32.7505 17.9783 31.724 17.4653 30.4408 17.1153L29.7642 16.9523C29.7642 16.9523 29.7642 15.3193 29.6709 14.6423C29.6709 14.1293 29.5776 13.3593 29.321 12.5893C29.0643 11.5633 28.5511 10.6293 27.8745 10.0233C29.5776 8.2263 30.6974 6.17326 30.6974 4.47026C30.6974 1.22726 26.6846 0.201319 21.6453 2.25432L20.6187 2.6743C20.6187 2.6743 18.7523 0.807297 18.659 0.807297C13.1297 -4.1387 -4.53133 15.5753 1.09127 20.3583L2.28107 21.3853C1.93117 22.2483 1.86117 23.1813 1.93117 24.2083C2.09447 25.4913 2.79437 26.7743 3.79757 27.8003C4.82407 28.7343 6.17727 29.3403 7.55377 29.3403C9.77007 34.4733 14.8095 37.5293 20.6887 37.7163C27.0113 37.8793 32.3772 34.8933 34.5936 29.5973C34.7569 29.2473 35.3635 27.5443 35.3635 26.0043C35.5035 24.4413 34.6403 23.8583 34.0337 23.8583ZM8.09037 27.8703C7.92707 27.8703 7.67037 27.9643 7.48377 27.8703C5.61737 27.7773 3.47097 26.0743 3.30767 24.0213C3.14427 21.8053 4.24087 20.1013 6.29387 19.6583C6.55057 19.5653 6.80717 19.5653 7.15717 19.5653C8.27697 19.6583 9.98007 20.4983 10.4001 22.9713C10.7267 25.3043 10.2368 27.5213 8.09037 27.8703ZM5.96727 18.3053C4.68407 18.5623 3.58757 19.2383 2.88767 20.2653C2.46777 19.9153 1.69787 19.2383 1.60447 18.9823C0.48467 16.9293 2.79437 12.8463 4.42747 10.6063C8.34697 4.98331 14.5762 0.714289 17.3992 1.46129C17.9124 1.62429 19.4522 3.42027 19.4522 3.42027C19.4522 3.42027 16.5593 5.05331 13.8996 7.27031C10.3067 9.92931 7.57707 13.9423 5.96727 18.3053ZM26.1014 27.0073L26.1947 26.9143C26.1947 26.8213 26.1014 26.8213 26.1014 26.8213C26.1014 26.8213 23.1151 27.2413 20.2921 26.2143C20.6421 25.1873 21.412 25.5373 22.6718 25.7013C24.8882 25.8643 26.9413 25.5373 28.3877 25.0943C29.6709 24.7443 31.374 23.9743 32.6572 22.9713C33.0771 23.9043 33.2638 25.0243 33.2638 25.0243C33.2638 25.0243 33.6137 24.9313 33.8704 25.1173C34.127 25.2813 34.2903 25.6313 34.2203 26.4943C33.9637 28.1973 33.1938 29.4803 32.0973 30.7633C31.4207 31.5333 30.4641 32.2103 29.4609 32.7233C28.9477 32.9803 28.3411 33.2363 27.7578 33.4003C23.1384 34.8463 18.5423 33.3063 17.0959 29.8073C17.0025 29.5503 16.8392 29.2943 16.8392 28.9443C16.2326 26.6343 16.7459 23.9043 18.4724 22.2013C18.5657 22.1083 18.6357 21.9453 18.6357 21.7813C18.6357 21.6183 18.5423 21.5253 18.4724 21.4313C17.8658 20.5683 15.836 19.1223 16.256 16.2993C16.5126 14.2463 18.309 12.8923 19.9188 12.9623H20.3388C21.0154 12.9623 21.7153 13.1263 22.2052 13.1263C23.1384 13.1263 24.0716 13.0323 25.0982 12.1923C25.4481 11.9363 25.7048 11.6793 26.218 11.5863C26.3113 11.5863 26.3813 11.4933 26.638 11.5863C26.8946 11.5863 27.1512 11.6793 27.3145 11.8433C28.1778 12.4493 28.2478 13.7093 28.3411 14.7353C28.3411 15.3423 28.4344 16.6953 28.4344 17.0453C28.5277 17.9083 28.691 18.0723 29.2043 18.2353C29.4609 18.3283 29.7176 18.3983 30.0675 18.4923C31.1874 18.8423 31.864 19.0983 32.2839 19.5183C32.5405 19.7753 32.6339 20.0313 32.7038 20.2883C32.8672 21.2213 31.934 22.4113 29.6242 23.5313C27.0579 24.7213 24.0716 24.9783 21.9486 24.7213L21.1787 24.6283C19.4756 24.3713 18.5423 26.5873 19.5456 28.0343C20.2221 28.9673 22.0186 29.6673 23.7217 29.6673C27.8278 29.6673 30.9774 27.9643 32.0973 26.4243L32.1906 26.2613C32.2839 26.1673 32.1906 26.0973 32.0973 26.1673C31.1641 26.8443 26.8946 29.4103 22.3685 28.6403C22.3685 28.6403 21.8553 28.5473 21.342 28.3843C20.922 28.2203 20.1521 27.8703 19.9655 27.0073C23.7917 28.1273 26.1014 27.0073 26.1014 27.0073ZM13.293 10.6293C14.6695 8.99632 16.4426 7.55032 17.9824 6.78032C18.0757 6.78032 18.0757 6.78028 18.0757 6.87328C17.9824 7.13028 17.7258 7.55031 17.6558 7.90031C17.6558 7.99331 17.7491 7.99327 17.7491 7.99327C18.6823 7.31627 20.3854 6.61729 21.8553 6.54729C21.9486 6.54729 21.9486 6.6403 21.9486 6.6403C21.6919 6.8033 21.5286 7.06027 21.272 7.31627C21.272 7.31627 21.272 7.41026 21.3653 7.41026C22.3918 7.41026 23.8383 7.76031 24.7715 8.34331C24.8649 8.34331 24.7715 8.50627 24.6782 8.50627C23.2317 8.15627 20.922 7.90027 18.449 8.50627C16.2326 9.02027 14.5995 9.88331 13.4097 10.7233C13.293 10.6993 13.223 10.6993 13.293 10.6293Z" fill="#7C7C84"/>
<path d="M135.451 14.457C133.328 14.457 132.371 15.9961 131.951 16.9301C131.694 17.5361 131.694 17.699 131.531 17.699C131.275 17.699 131.438 17.186 131.624 16.673C131.881 15.553 131.718 14.713 131.718 14.713H128.732V29.061H132.838V24.535C133.351 25.398 134.214 26.238 135.567 26.238C138.554 26.238 140 23.765 140 20.359C139.977 16.51 138.18 14.457 135.451 14.457ZM134.354 23.509C133.421 23.509 132.721 22.319 132.721 20.686C132.721 19.053 133.398 17.863 134.354 17.863C135.474 17.863 135.987 18.889 135.987 20.686C135.964 22.575 135.544 23.509 134.354 23.509Z" fill="#7C7C84"/>
<path d="M54.2843 14.4566C52.4879 14.4566 51.648 15.9026 51.2047 16.7656C50.9481 17.2786 50.9481 17.6986 50.6915 17.6986C50.4348 17.6986 50.5982 17.3486 50.4348 16.5796C50.1782 15.5526 49.315 14.4566 47.5419 14.4566C45.6755 14.4566 44.8122 16.0896 44.4623 16.9296C44.2056 17.5356 44.2056 17.6986 44.0423 17.6986C43.7857 17.6986 43.949 17.1856 44.1357 16.6726C44.3923 15.5526 44.229 14.7126 44.229 14.7126H41.2427V25.9816H45.2555V20.3586C45.2555 19.2386 45.6755 17.8856 46.5387 17.8856C47.4719 17.8856 47.6585 18.5626 47.6585 19.8456V25.9816H51.7647V20.3586C51.7647 19.3326 52.1846 17.8856 53.0478 17.8856C53.981 17.8856 54.1677 18.9126 54.1677 19.8456V25.9116H58.0869V19.2626C58.0409 16.3456 57.0139 14.4566 54.2843 14.4566ZM123.599 14.4566C121.802 14.4566 120.962 15.9026 120.519 16.7656C120.263 17.2786 120.263 17.6986 120.006 17.6986C119.749 17.6986 119.913 17.2786 119.749 16.5796C119.399 15.5526 118.723 14.4566 116.856 14.4566C114.99 14.4566 114.127 16.0896 113.777 16.9296C113.52 17.5356 113.52 17.6986 113.357 17.6986C113.1 17.6986 113.263 17.1856 113.45 16.6726C113.707 15.5526 113.543 14.7126 113.543 14.7126H110.557V25.9816H114.663V20.3586C114.663 19.2386 115.083 17.8856 115.946 17.8856C116.88 17.8856 117.066 18.5626 117.066 19.8456V25.9816H121.172V20.3586C121.172 19.3326 121.592 17.8856 122.456 17.8856C123.389 17.8856 123.575 18.9126 123.575 19.8456V25.9116H127.588V19.2626C127.355 16.3456 126.328 14.4566 123.599 14.4566ZM65.0399 14.4566C61.8899 14.4566 59.6499 15.5756 59.6499 15.5756V18.9826C59.6499 18.9826 62.1229 17.5356 64.1769 17.5356C65.8099 17.5356 65.9729 18.3986 65.8799 19.1686C65.8799 19.1686 65.4599 19.0756 64.0129 19.0756C60.6769 19.0756 58.9739 20.6156 58.9739 22.9946C58.9739 25.3046 60.8399 26.2376 62.4729 26.2376C64.7829 26.2376 65.8099 24.6986 66.1359 23.9286C66.3929 23.4146 66.3929 23.0646 66.5559 23.0646C66.8129 23.0646 66.7199 23.3216 66.7199 23.8346C66.7199 24.6986 66.7199 25.3746 66.8829 25.9576H69.9859V20.4056C69.8919 16.9296 68.7029 14.4566 65.0399 14.4566ZM64.0129 23.3446C63.0799 23.6016 62.5669 23.2516 62.5669 22.6686C62.5669 21.8056 63.4999 21.3856 64.7829 21.3856C65.3899 21.3856 65.9029 21.4786 65.9029 21.4786C65.8799 21.8056 65.0399 23.0886 64.0129 23.3446ZM76.6349 11.3066H80.7409V25.9816H76.6349C76.6349 25.9116 76.6349 11.3066 76.6349 11.3066ZM85.2669 20.3586C85.2669 19.3326 86.1999 18.3986 87.9029 18.3986C89.7699 18.3986 91.3099 19.3326 91.6599 19.5186V15.5756C91.6599 15.5756 90.4699 14.4566 87.5529 14.4566C84.4739 14.4566 81.9309 16.2526 81.9309 20.1716C81.9309 24.0916 84.2409 26.2376 87.5529 26.2376C90.1199 26.2376 91.7299 24.7916 91.7299 24.7916V21.0356C91.2159 21.2916 89.8629 22.2256 87.9729 22.2256C85.9439 22.3186 85.2669 21.3856 85.2669 20.3586ZM99.9419 14.4566C97.5619 14.4566 96.6989 16.6726 96.5359 17.0926C96.3719 17.5126 96.2789 17.6986 96.1159 17.6986C95.8589 17.6986 96.0219 17.1856 96.1159 16.9296C96.2789 16.3226 96.7219 14.8756 96.7219 13.0096C96.7219 11.7266 96.5589 11.3066 96.5589 11.3066H93.0589V25.9816H97.1659V20.3586C97.1659 19.4256 97.5159 17.8856 98.5419 17.8856C99.4049 17.8856 99.6619 18.4926 99.6619 19.7526V25.9816H103.768V20.0086C103.605 17.1156 103.185 14.4566 99.9419 14.4566ZM104.981 14.7126V25.9816H109.087V14.7126C109.087 14.7126 108.411 15.1326 107.034 15.1326C105.658 15.0626 104.981 14.7126 104.981 14.7126Z" fill="#7C7C84"/>
<path d="M107.034 14.3861C108.4 14.3861 109.507 13.6541 109.507 12.7521C109.507 11.8501 108.4 11.1191 107.034 11.1191C105.668 11.1191 104.561 11.8501 104.561 12.7521C104.561 13.6541 105.668 14.3861 107.034 14.3861Z" fill="#7C7C84"/>
<path d="M71.269 14.7129V25.9819H75.352V14.7129C75.352 14.7129 74.675 15.1329 73.299 15.1329C73.299 15.0629 71.269 14.7129 71.269 14.7129Z" fill="#7C7C84"/>
<path d="M73.2992 14.3861C74.6642 14.3861 75.7722 13.6541 75.7722 12.7521C75.7722 11.8501 74.6642 11.1191 73.2992 11.1191C71.9332 11.1191 70.8262 11.8501 70.8262 12.7521C70.8262 13.6541 71.9332 14.3861 73.2992 14.3861Z" fill="#7C7C84"/>
</svg>
