<svg width="90" height="70" viewBox="0 0 90 70" fill="none" xmlns="http://www.w3.org/2000/svg">
<path fill-rule="evenodd" clip-rule="evenodd" d="M46.383 48.2311V38.8881C56.156 38.8881 63.698 29.0751 59.976 18.6581C58.599 14.8001 55.565 11.7141 51.761 10.3211C41.497 6.5471 31.823 14.2131 31.823 24.1101H22.625C22.625 8.32507 37.661 -3.9699 53.958 1.1961C61.091 3.4611 66.748 9.19809 68.978 16.4271C74.06 32.9831 61.96 48.2311 46.383 48.2311Z" fill="#7C7C84"/>
<path fill-rule="evenodd" clip-rule="evenodd" d="M46.4162 38.9233H37.2343V29.6133H46.4002L46.4162 38.9233ZM37.2343 46.0683H30.1842V38.9233H37.2343V46.0683ZM30.1842 38.9233H24.2812V32.9343H30.1842V38.9233Z" fill="#7C7C84"/>
<path fill-rule="evenodd" clip-rule="evenodd" d="M2.09601 56.8071H3.22299C4.47299 56.8071 5.511 57.064 6.289 57.563C7.157 58.105 7.60101 59.1401 7.60101 60.6311C7.60101 62.1731 7.157 63.2501 6.289 63.8351C5.538 64.3491 4.51399 64.606 3.24399 64.606H2.103C2.096 64.613 2.09601 56.8071 2.09601 56.8071ZM7.77802 56.0361C6.64502 55.2231 5.23099 54.8091 3.58499 54.8091H0V66.6041H3.58499C5.23099 66.6041 6.63802 66.1681 7.77802 65.3051C8.40001 64.8481 8.88501 64.2131 9.22601 63.4141C9.56701 62.6221 9.73801 61.6801 9.73801 60.6241C9.73801 59.5821 9.56701 58.6551 9.22601 57.8701C8.89101 57.0921 8.40001 56.4711 7.77802 56.0361ZM12.238 54.666C11.889 54.666 11.596 54.7951 11.357 55.0441C11.118 55.2871 10.995 55.5871 10.995 55.9431C10.995 56.3001 11.118 56.6071 11.357 56.8571C11.596 57.1061 11.896 57.235 12.238 57.235C12.579 57.235 12.88 57.1061 13.119 56.8571C13.358 56.6071 13.48 56.3001 13.48 55.9431C13.48 55.5871 13.358 55.2801 13.119 55.0441C12.88 54.7951 12.579 54.666 12.238 54.666ZM11.206 66.6041H13.221V58.2981H11.206V66.6041ZM20.023 63.899C19.668 64.313 19.217 64.5131 18.636 64.5131C18.056 64.5131 17.605 64.313 17.264 63.899C16.915 63.485 16.745 62.9431 16.745 62.2721C16.745 61.5951 16.922 61.0451 17.264 60.6241C17.605 60.2101 18.07 60.0031 18.636 60.0031C19.217 60.0031 19.668 60.2031 20.023 60.6241C20.371 61.0381 20.555 61.5951 20.555 62.2651C20.555 62.9431 20.378 63.485 20.023 63.899ZM20.555 58.9901C19.948 58.4261 19.265 58.1051 18.534 58.1051C17.421 58.1051 16.492 58.5051 15.782 59.2901C15.058 60.0681 14.696 61.0741 14.696 62.2721C14.696 63.4431 15.058 64.449 15.768 65.248C16.485 66.026 17.414 66.4181 18.534 66.4181C19.312 66.4181 19.982 66.1971 20.528 65.7471V65.9401C20.528 66.6321 20.35 67.1671 19.995 67.5311C19.647 67.9021 19.155 68.0881 18.548 68.0881C17.619 68.0881 17.032 67.7101 16.321 66.7111L14.949 68.0881L14.983 68.1451C15.277 68.5731 15.734 69.0011 16.335 69.4011C16.936 69.8001 17.687 70.0001 18.575 70.0001C19.77 70.0001 20.74 69.6151 21.457 68.8651C22.174 68.1091 22.536 67.089 22.536 65.847V58.2981H20.549L20.555 58.9901ZM24.264 66.6041H26.278V58.2981H24.264V66.6041ZM25.295 54.666C24.946 54.666 24.653 54.7951 24.414 55.0441C24.175 55.2871 24.052 55.5871 24.052 55.9431C24.052 56.3001 24.175 56.6071 24.414 56.8571C24.653 57.1061 24.953 57.235 25.295 57.235C25.636 57.235 25.937 57.1061 26.176 56.8571C26.415 56.6071 26.538 56.3001 26.538 55.9431C26.538 55.5871 26.415 55.2801 26.176 55.0441C25.937 54.7951 25.636 54.666 25.295 54.666ZM30.703 56.05H28.716V58.2981H27.562V60.2031H28.716V63.6571C28.716 64.7341 28.921 65.5121 29.338 65.9541C29.747 66.3971 30.478 66.6251 31.509 66.6251C31.837 66.6251 32.165 66.6111 32.493 66.5891L32.581 66.5821V64.6771L31.892 64.7131C31.414 64.7131 31.093 64.6271 30.936 64.4561C30.778 64.2771 30.703 63.9141 30.703 63.3571V60.2031H32.581V58.2981H30.703V56.05ZM42.04 66.6041H44.054V54.8091H42.04V66.6041ZM64.439 63.6351C64.077 64.0561 63.708 64.42 63.421 64.606C63.141 64.791 62.793 64.8841 62.376 64.8841C61.782 64.8841 61.304 64.6631 60.915 64.1991C60.526 63.7421 60.335 63.1501 60.335 62.4441C60.335 61.7371 60.526 61.145 60.908 60.688C61.291 60.232 61.769 60.0031 62.363 60.0031C63.012 60.0031 63.694 60.4241 64.282 61.1381L65.613 59.8111C64.746 58.6411 63.633 58.0911 62.308 58.0911C61.202 58.0911 60.239 58.5121 59.454 59.3331C58.675 60.1531 58.272 61.195 58.272 62.429C58.272 63.664 58.668 64.7131 59.447 65.5331C60.225 66.3611 61.188 66.7751 62.301 66.7751C63.763 66.7751 64.944 66.1181 65.736 64.9271L64.439 63.6351ZM68.311 61.416C68.407 61.017 68.584 60.6881 68.837 60.4321C69.11 60.1531 69.465 60.011 69.895 60.011C70.387 60.011 70.763 60.1531 71.022 60.4391C71.261 60.7031 71.398 61.031 71.425 61.416H68.311ZM72.722 59.4611C72.436 59.0471 72.046 58.7191 71.562 58.4691C71.083 58.2271 70.517 58.1051 69.895 58.1051C68.768 58.1051 67.847 58.5341 67.157 59.3831C66.488 60.2251 66.146 61.2731 66.146 62.5011C66.146 63.7571 66.522 64.805 67.259 65.597C67.99 66.39 68.973 66.7891 70.175 66.7891C71.534 66.7891 72.654 66.2181 73.494 65.0911L73.542 65.0341L72.224 63.7211C72.101 63.8711 71.93 64.0491 71.773 64.1991C71.575 64.3921 71.384 64.5411 71.186 64.6481C70.885 64.8051 70.544 64.8841 70.168 64.8841C69.608 64.8841 69.144 64.7131 68.796 64.3771C68.468 64.0631 68.27 63.6421 68.222 63.1141H73.569L73.59 62.3511C73.59 61.8091 73.521 61.2881 73.378 60.8031C73.221 60.3241 73.002 59.8681 72.722 59.4611ZM76.888 63.4281C77.12 63.2641 77.441 63.179 77.851 63.179C78.336 63.179 78.855 63.2781 79.381 63.4781V64.2921C78.944 64.7131 78.356 64.9271 77.639 64.9271C77.291 64.9271 77.018 64.8481 76.834 64.6841C76.649 64.5271 76.56 64.3271 76.56 64.0781C76.56 63.8071 76.663 63.5921 76.888 63.4281ZM80.467 58.9191C79.852 58.3771 79.012 58.1051 77.954 58.1051C77.284 58.1051 76.656 58.2551 76.089 58.5551C75.563 58.8331 75.051 59.2901 74.723 59.8891L74.744 59.9181L76.035 61.2021C76.567 60.3241 77.161 60.0181 77.94 60.0181C78.363 60.0181 78.712 60.1321 78.978 60.3671C79.244 60.5961 79.374 60.8881 79.374 61.2591V61.666C78.875 61.509 78.377 61.4301 77.892 61.4301C76.888 61.4301 76.069 61.6731 75.468 62.1581C74.853 62.6511 74.539 63.35 74.539 64.235C74.539 65.012 74.798 65.6471 75.324 66.1181C75.85 66.5751 76.506 66.8031 77.271 66.8031C78.035 66.8031 78.759 66.4821 79.408 65.9331V66.6181H81.395V61.2731C81.395 60.2531 81.081 59.4681 80.467 58.9191ZM89.16 59.0831C88.6 58.4341 87.808 58.1051 86.811 58.1051C86.012 58.1051 85.363 58.3411 84.871 58.8121V58.2981H82.891V66.6041H84.905V62.0231C84.905 61.3951 85.049 60.8951 85.336 60.5391C85.623 60.1821 86.012 60.011 86.531 60.011C86.988 60.011 87.337 60.167 87.589 60.481C87.849 60.803 87.979 61.238 87.979 61.787V66.6041H90V61.787C90 60.638 89.72 59.7251 89.16 59.0831ZM35.928 63.4281C36.16 63.2641 36.481 63.179 36.89 63.179C37.375 63.179 37.894 63.2781 38.42 63.4781V64.2921C37.983 64.7131 37.396 64.9271 36.679 64.9271C36.33 64.9271 36.057 64.8481 35.873 64.6841C35.689 64.5271 35.6 64.3271 35.6 64.0781C35.593 63.8071 35.702 63.5921 35.928 63.4281ZM39.506 58.9191C38.891 58.3771 38.051 58.1051 36.993 58.1051C36.324 58.1051 35.695 58.2551 35.129 58.5551C34.603 58.8331 34.091 59.2901 33.763 59.8891L33.783 59.9181L35.074 61.2021C35.607 60.3241 36.201 60.0181 36.979 60.0181C37.403 60.0181 37.751 60.1321 38.017 60.3671C38.284 60.5961 38.413 60.8881 38.413 61.2591V61.666C37.915 61.509 37.416 61.4301 36.931 61.4301C35.928 61.4301 35.108 61.6731 34.5 62.1581C33.886 62.6511 33.572 63.35 33.572 64.235C33.572 65.012 33.831 65.6471 34.357 66.1181C34.883 66.5751 35.538 66.8031 36.303 66.8031C37.068 66.8031 37.792 66.4821 38.441 65.9331V66.6181H40.428V61.2731C40.435 60.2531 40.121 59.4681 39.506 58.9191ZM51.382 56.7641C49.285 56.7641 47.585 58.5341 47.585 60.7031C47.585 62.8721 49.292 64.6411 51.382 64.6411C53.471 64.6411 55.179 62.8721 55.179 60.7031C55.179 58.5341 53.471 56.7641 51.382 56.7641ZM51.382 66.7821C48.145 66.7821 45.516 64.0561 45.516 60.7031C45.516 57.3491 48.145 54.623 51.382 54.623C54.619 54.623 57.248 57.3491 57.248 60.7031C57.248 64.0561 54.612 66.7821 51.382 66.7821Z" fill="#7C7C84"/>
</svg>
