<svg width="157" height="27" viewBox="0 0 157 27" fill="none" xmlns="http://www.w3.org/2000/svg">
<mask id="mask0_192_3903" style="mask-type:luminance" maskUnits="userSpaceOnUse" x="0" y="0" width="157" height="27">
<path d="M157 0H0V27H157V0Z" fill="white"/>
</mask>
<g mask="url(#mask0_192_3903)">
<path d="M10.7357 14.9338H12.0697C12.8909 14.9338 13.276 15.1685 13.3152 16.1454V18.1361H15.9005V15.9593C15.8504 14.8021 15.619 14.1496 14.6434 13.7854C15.0689 13.6103 15.4326 13.3093 15.687 12.9215C15.9413 12.5338 16.0746 12.0773 16.0695 11.6116C16.0695 9.5672 14.4504 8.8632 12.6689 8.8632H8.1715V18.1324H10.7357V14.9338ZM10.7357 10.8987H12.2772C13.033 10.8987 13.4189 11.2894 13.4189 11.9662C13.4189 12.643 13.0338 13.0336 12.2772 13.0336H10.7357V10.8987ZM30.3647 16.9267H33.9481L34.3333 18.1383H37.0528L33.6877 8.8691H30.607L27.358 18.1383H29.9759L30.3647 16.9267ZM31.6994 12.64C31.8032 12.3156 31.9424 11.8308 32.1347 11.1687C32.2239 11.5476 32.3777 12.0287 32.5699 12.64L33.2489 14.7734H31.0285L31.6994 12.64ZM45.9236 18.1332H39.3117V8.8639H41.8788V15.8166H45.9228L45.9236 18.1332ZM25.4966 18.1332H18.2798V8.8639H25.4959V11.182H20.8447V12.4053H25.4872V14.5674H20.8447V15.818H25.493L25.4966 18.1332ZM54.0871 0H0V26.9985H157V0H54.0871ZM51.5613 24.4377H2.5258V2.5615H51.562L51.5613 24.4377ZM154.473 24.4377H54.1023V2.5615H154.471L154.473 24.4377ZM74.135 18.1361H71.564V8.8668H74.135V12.4053H77.28V8.8668H79.847V18.1361H77.28V14.588H74.135V18.1361ZM89.681 18.1361H82.462V8.8668H89.675V11.182H85.033V12.4053H89.675V14.5674H85.033V15.818H89.675L89.681 18.1361ZM94.623 18.1361H92.183V8.8668H96.111L96.981 12.3818C97.199 13.2798 97.353 13.9434 97.444 14.3725C97.533 13.9434 97.687 13.2798 97.907 12.3818L98.777 8.8668H102.705V18.1361H100.265V15.5054C100.265 13.7997 100.291 12.3546 100.342 11.1702C100.162 11.886 99.983 12.5775 99.802 13.23L98.48 18.1368H96.404L95.082 13.23C94.901 12.5804 94.723 11.8889 94.542 11.1702C94.593 12.3546 94.619 13.7997 94.619 15.5054L94.623 18.1361ZM108.104 18.1361H105.537V8.8668H108.104V18.1361ZM115.948 15.5326C115.948 15.0125 115.64 14.8293 114.51 14.6336L113.793 14.5167C111.676 14.165 110.624 13.1756 110.624 11.5218C110.624 9.8173 111.908 8.6564 114.371 8.6564C116.835 8.6564 118.172 9.6967 118.273 11.7175H115.86C115.821 10.9752 115.397 10.6383 114.409 10.6383C113.626 10.6383 113.241 10.9002 113.241 11.4049C113.241 11.9095 113.615 12.1471 114.575 12.3156L115.331 12.4451C117.59 12.8239 118.595 13.681 118.595 15.3347C118.595 17.3254 117.041 18.3413 114.563 18.3413C111.892 18.3413 110.481 17.0665 110.481 15.0883H112.947C112.959 16.0895 113.537 16.3632 114.666 16.3632C115.526 16.3632 115.95 16.0895 115.95 15.5304M122.897 11.1827H120.197V8.8668H128.157V11.182H125.462V18.1332H122.895L122.897 11.1827ZM142.973 14.5667L139.565 8.8668H142.452L143.042 9.9071C143.609 10.9083 144.029 11.666 144.299 12.1714C144.673 11.4438 145.07 10.6861 145.506 9.8909L146.072 8.861H148.882L145.532 14.566V18.1346H142.965L142.973 14.5667ZM133.087 14.9338H134.421C135.242 14.9338 135.627 15.1685 135.666 16.1454V18.1361H138.252V15.9593C138.202 14.8021 137.97 14.1496 136.995 13.7854C137.42 13.6103 137.784 13.3093 138.038 12.9215C138.292 12.5338 138.426 12.0773 138.421 11.6116C138.421 9.5672 136.802 8.8632 135.02 8.8632H130.523V18.1324H133.09L133.087 14.9338ZM133.087 10.8987H134.632C135.388 10.8987 135.774 11.2894 135.774 11.9662C135.774 12.643 135.389 13.0336 134.632 13.0336H133.087V10.8987ZM59.7408 13.5C59.6995 12.851 59.7956 12.2006 60.0225 11.5923C60.2495 10.984 60.6021 10.432 61.0567 9.9733C61.5112 9.5146 62.0573 9.1598 62.6582 8.9327C63.259 8.7055 63.901 8.6114 64.541 8.6564C67.061 8.6564 68.825 10.091 69.246 12.3965H66.518C66.403 11.9587 66.145 11.5732 65.787 11.3029C65.428 11.0327 64.99 10.8936 64.544 10.9083C63.248 10.9083 62.4116 11.8852 62.4116 13.5C62.4116 14.8683 63.04 16.0917 64.544 16.0917C64.997 16.1101 65.443 15.968 65.805 15.6897C66.167 15.4114 66.423 15.0141 66.527 14.566H69.252C68.84 16.884 67.064 18.345 64.541 18.345C63.902 18.3883 63.261 18.2929 62.6609 18.0651C62.0608 17.8373 61.5155 17.4824 61.0613 17.0241C60.6071 16.5658 60.2545 16.0145 60.0269 15.4071C59.7993 14.7997 59.702 14.15 59.7415 13.5015" fill="#7C7C84"/>
</g>
</svg>
