<svg width="111" height="54" viewBox="0 0 111 54" fill="none" xmlns="http://www.w3.org/2000/svg">
<path d="M55.85 19.4543V19.3523C55.85 16.7873 56.339 14.3883 57.313 12.1463C57.874 10.8573 58.567 9.66231 59.381 8.55231V1.4043H50.381L40.403 16.5833L30.428 1.4043H21.428V37.2983H29.672V14.0183L40.246 29.1973H40.464L51.146 13.8663V37.3003H59.387V30.2853C58.572 29.1833 57.879 27.9883 57.319 26.6883C56.342 24.4323 55.856 22.0223 55.856 19.4573" fill="#7C7C84"/>
<path d="M76.6061 37.9131C73.8201 37.9131 71.2391 37.4331 68.8531 36.4781C66.4681 35.5201 64.4061 34.214 62.6721 32.554C60.9351 30.898 59.58 28.941 58.605 26.685C57.628 24.429 57.1421 22.019 57.1421 19.454V19.352C57.1421 16.787 57.631 14.388 58.605 12.149C59.58 9.91002 60.9381 7.94404 62.6721 6.25204C64.4061 4.56004 66.4851 3.22604 68.9091 2.25204C71.3301 1.27704 74.0051 0.791016 76.9341 0.791016C78.7041 0.791016 80.3251 0.929033 81.7881 1.20303C83.2511 1.47603 84.5791 1.85103 85.7751 2.33203C86.9671 2.80903 88.069 3.39201 89.082 4.07401C90.092 4.75801 91.0341 5.50901 91.9011 6.32901L86.5891 12.1241C85.1061 10.8601 83.599 9.86903 82.061 9.15103C80.523 8.43303 78.7981 8.07401 76.8821 8.07401C75.2921 8.07401 73.82 8.36405 72.462 8.94705C71.106 9.52905 69.9411 10.33 68.9641 11.357C67.9871 12.384 67.23 13.5711 66.686 14.9211C66.145 16.2711 65.8721 17.715 65.8721 19.253V19.358C65.8721 20.895 66.142 22.348 66.686 23.717C67.23 25.084 67.978 26.2821 68.936 27.3061C69.894 28.3301 71.051 29.1421 72.407 29.7411C73.762 30.3381 75.2531 30.638 76.8791 30.638C79.0491 30.638 80.882 30.263 82.384 29.509C83.883 28.758 85.3741 27.7311 86.8571 26.4311L92.1711 31.508C91.1971 32.499 90.184 33.388 89.134 34.175C88.085 34.962 86.9371 35.636 85.6921 36.201C84.4441 36.765 83.077 37.193 81.597 37.483C80.115 37.772 78.4531 37.919 76.6091 37.919" fill="#7C7C84"/>
<path d="M7.27594 45.5996L5.07892 48.9406L2.88092 45.5996H0.898926V53.5046H2.70093V48.3776L5.03192 51.7206H5.07892L7.43097 48.3446V53.5046H9.25592V45.5996H7.27594Z" fill="#7C7C84"/>
<path d="M7.27594 45.5996L5.07892 48.9406L2.88092 45.5996H0.898926V53.5046H2.70093V48.3776L5.03192 51.7206H5.07892L7.43097 48.3446V53.5046H9.25592V45.5996H7.27594Z" fill="#7C7C84"/>
<path d="M14.1279 45.541L10.5449 53.501H12.4199L13.184 51.728H16.718L17.4829 53.501H19.4039L15.8239 45.541H14.1279ZM14.9509 47.631L16.0609 50.193H13.8409L14.9509 47.631Z" fill="#7C7C84"/>
<path d="M20.0039 52.3513L21.0909 51.1202C21.8419 51.7082 22.6319 52.0812 23.5869 52.0812C24.3379 52.0812 24.7939 51.7993 24.7939 51.3353V51.3133C24.7939 50.8743 24.5059 50.6483 23.1089 50.3083C21.4249 49.9023 20.3379 49.4612 20.3379 47.8932V47.8702C20.3379 46.4382 21.5549 45.4883 23.2639 45.4883C24.4819 45.4883 25.5199 45.8503 26.3699 46.4933L25.4149 47.8013C24.6749 47.3163 23.9459 47.0233 23.2419 47.0233C22.5379 47.0233 22.1679 47.3273 22.1679 47.7133V47.7353C22.1679 48.2543 22.5269 48.4253 23.9709 48.7733C25.6659 49.1903 26.6208 49.7673 26.6208 51.1453V51.1673C26.6208 52.7383 25.3569 53.6183 23.5509 53.6183C22.2869 53.6183 21.0079 53.2022 20.0059 52.3542" fill="#7C7C84"/>
<path d="M27.5269 52.3513L28.6139 51.1202C29.3679 51.7082 30.1549 52.0812 31.1099 52.0812C31.8609 52.0812 32.3169 51.7993 32.3169 51.3353V51.3133C32.3169 50.8743 32.0299 50.6483 30.6329 50.3083C28.9489 49.9023 27.8639 49.4612 27.8639 47.8932V47.8702C27.8639 46.4382 29.0809 45.4883 30.7899 45.4883C32.0079 45.4883 33.0479 45.8503 33.8959 46.4933L32.9409 47.8013C32.2009 47.3163 31.4719 47.0233 30.7679 47.0233C30.0639 47.0233 29.6938 47.3273 29.6938 47.7133V47.7353C29.6938 48.2543 30.0529 48.4253 31.4969 48.7733C33.1919 49.1903 34.1469 49.7673 34.1469 51.1453V51.1673C34.1469 52.7383 32.8829 53.6183 31.0769 53.6183C29.8129 53.6183 28.5339 53.2022 27.5319 52.3542" fill="#7C7C84"/>
<path d="M35.3701 49.572V49.5499C35.3701 47.3029 37.1621 45.4609 39.7271 45.4609C41.3031 45.4609 42.2481 45.9579 43.0231 46.6819L41.8531 47.9569C41.2091 47.4019 40.5521 47.0649 39.7161 47.0649C38.3081 47.0649 37.2921 48.172 37.2921 49.528V49.5499C37.2921 50.9059 38.2831 52.0349 39.7161 52.0349C40.6711 52.0349 41.2561 51.6729 41.9141 51.1099L43.0841 52.228C42.2251 53.098 41.2701 53.6389 39.6581 53.6389C37.1981 53.6389 35.3701 51.844 35.3701 49.575" fill="#7C7C84"/>
<path d="M49.782 45.5996V48.7276H46.392V45.5996H44.553V53.5046H46.392V50.3316H49.782V53.5046H51.621V45.5996H49.782Z" fill="#7C7C84"/>
<path d="M56.4931 45.541L52.9121 53.501H54.7871L55.5521 51.728H59.0861L59.8501 53.501H61.7751L58.1911 45.541H56.4961H56.4931ZM57.3161 47.631L58.4261 50.193H56.2061L57.3161 47.631Z" fill="#7C7C84"/>
<path d="M63.0591 45.5996V53.5046H69.066V51.9226H64.897V45.5996H63.0591Z" fill="#7C7C84"/>
<path d="M70.449 45.5996V53.5046H76.457V51.9226H72.288V45.5996H70.449Z" fill="#7C7C84"/>
<path d="M77.8401 45.5996V53.5046H84.2061V51.9586H79.6681V50.2966H83.61V48.7496H79.6681V47.1456H84.1461V45.5996H77.8401Z" fill="#7C7C84"/>
<path d="M91.454 45.5996V50.4676L87.5361 45.5996H85.8411V53.5046H87.6581V48.4796L91.7051 53.5046H93.2681V45.5996H91.454Z" fill="#7C7C84"/>
<path d="M94.9049 49.572V49.5499C94.9049 47.3029 96.7539 45.4609 99.2859 45.4609C100.791 45.4609 101.699 45.845 102.569 46.546L101.409 47.866C100.766 47.358 100.192 47.0649 99.2249 47.0649C97.8889 47.0649 96.8259 48.183 96.8259 49.528V49.5499C96.8259 50.9939 97.8748 52.0569 99.3578 52.0569C100.026 52.0569 100.625 51.8999 101.089 51.5819V50.4529H99.2359V48.9509H102.867V52.3829C102.008 53.0729 100.824 53.6359 99.2969 53.6359C96.6939 53.6359 94.9019 51.908 94.9019 49.572" fill="#7C7C84"/>
<path d="M104.634 45.5996V53.5046H111V51.9586H106.461V50.2966H110.401V48.7496H106.461V47.1456H110.94V45.5996H104.634Z" fill="#7C7C84"/>
</svg>
