<svg width="140" height="25" viewBox="0 0 140 25" fill="none" xmlns="http://www.w3.org/2000/svg">
<path fill-rule="evenodd" clip-rule="evenodd" d="M0 24.16L10.9952 0H32.9856L21.9904 24.16H0ZM6.4825 20.983L11.6677 11.892L12.5653 13.313L13.9116 12.416L11.6677 8.37701L4.4124 21.99H5.9083L6.2952 21.311C7.2105 20.482 15.0572 13.481 18.9978 13.762C21.0174 13.912 19.5962 17.203 19.5962 17.203C22.0645 15.482 23.0369 11.518 20.9426 11.294C18.7734 11.144 15.632 12.715 13.4628 14.136C10.7575 15.987 8.3232 18.312 6.4825 20.983ZM6.4825 20.983C6.3893 21.118 6.2976 21.254 6.2075 21.391C6.2075 21.391 6.2376 21.364 6.2952 21.311L6.4825 20.983ZM17.3523 21.765L14.3604 16.53L15.7068 15.856L18.8482 21.765H17.3523ZM14.51 11.294C14.51 11.294 15.258 8.003 20.6434 7.853C24.8696 7.783 26.111 6.65099 26.8035 6.01999C26.8464 5.97999 26.8871 5.94299 26.9263 5.90799C26.6272 6.73099 25.0564 9.27399 21.0922 9.49899C15.7068 9.79799 14.51 11.294 14.51 11.294ZM22.7377 4.33801C22.5133 5.01101 21.7653 5.31 21.0922 5.086C20.4938 4.637 20.419 3.814 20.8678 3.216C21.167 2.617 21.8401 2.318 22.5133 2.543C23.0369 2.991 23.1865 3.81401 22.7377 4.33801Z" fill="#7C7C84"/>
<path d="M37.4729 1.12109L27.1509 24.1591H29.5444C29.5444 24.1591 31.6388 18.1751 32.8355 15.2581H41.2128C42.5592 18.2501 44.6535 24.1591 44.6535 24.1591H48.169L38.2209 1.12109H37.4729ZM33.4339 13.8371L37.0242 5.45908L40.6892 13.8371H33.4339ZM51.46 6.80609H53.704V24.0841H51.46V6.80609ZM69.4111 22.0641L64.1751 15.4821C66.7191 15.0331 69.4111 13.6121 69.4111 10.6951C69.4111 8.1521 67.6911 6.8801 63.7271 6.8801H58.3411V24.1591H60.5851V15.6321H61.5581L63.5771 18.0251L66.5691 21.9151C67.0931 22.6631 68.1401 24.0841 68.1401 24.0841H71.0571L70.6081 23.4851L69.4111 22.0641ZM60.6601 14.7341V7.77808C61.9321 7.70308 63.1281 7.70308 64.4001 7.77808C66.3451 8.07708 67.1671 9.19908 67.1671 10.9941C67.1671 12.9391 65.7461 14.2101 63.9511 14.5841C62.8291 14.7341 61.7071 14.8091 60.6601 14.7341ZM85.3431 22.0641L80.1071 15.4821C82.6501 15.0331 85.3431 13.6121 85.3431 10.6951C85.3431 8.1521 83.6231 6.8801 79.6591 6.8801H74.2731V24.1591C74.6471 24.1591 76.0681 24.1591 76.5171 24.1591V15.6321H77.4891L79.5091 18.0251L82.5011 21.9151C83.0241 22.6631 84.0721 24.0841 84.0721 24.0841H86.9891L86.5401 23.4851L85.3431 22.0641ZM76.5171 14.7341V7.77808C77.7891 7.70308 78.9851 7.70308 80.2571 7.77808C82.2021 8.07708 83.0241 9.19908 83.0241 10.9941C83.0241 12.9391 81.6031 14.2101 79.8081 14.5841C78.6861 14.7341 77.5641 14.8091 76.5171 14.7341ZM97.6851 6.4321C92.4491 6.4321 88.2601 9.94709 88.2601 15.4821C88.2601 20.8671 92.0001 24.4581 97.6101 24.4581C103.22 24.4581 107.259 20.7931 107.259 15.1081C107.259 9.04909 102.397 6.4321 97.6851 6.4321ZM97.6851 23.5601C93.8701 23.5601 90.7291 20.8671 90.7291 15.7061C90.7291 10.5451 93.4211 7.18008 97.9091 7.18008C98.8811 7.18008 99.9291 7.40408 100.826 7.77808C101.724 8.22708 102.546 8.82509 103.145 9.57309C104.491 11.2931 104.716 13.0141 104.716 15.1081C104.94 18.1001 103.07 23.5601 97.6851 23.5601ZM119.899 18.6241C119.899 22.2141 117.057 24.3831 113.616 24.3831C112.345 24.3831 110.325 23.8591 109.503 22.8871C109.727 22.1391 109.877 21.3911 109.951 20.6431H110.176C111.148 22.2891 112.345 23.2611 114.29 23.2611C114.738 23.2611 115.262 23.1861 115.711 22.9621C116.16 22.8121 116.534 22.5131 116.908 22.1391C117.207 21.7651 117.506 21.3911 117.656 20.9421C117.805 20.4931 117.88 20.0451 117.88 19.5961C117.88 14.8841 109.951 16.9781 109.951 11.2191C109.951 7.92809 112.569 6.35709 115.561 6.35709C116.908 6.35709 118.179 6.73108 119.226 7.55408C118.927 8.22708 118.703 8.90007 118.553 9.64807H118.329C118.104 8.97507 117.656 8.37608 117.132 8.00208C116.534 7.62808 115.86 7.40408 115.187 7.40408C113.542 7.25408 112.121 8.52608 111.971 10.1711C111.971 10.2461 111.971 10.3211 111.971 10.3211C111.896 15.1081 119.899 13.2381 119.899 18.6241ZM121.919 6.80609H135.009V8.30209C135.009 8.30209 131.942 8.00208 129.698 8.00208V24.1591H127.454V8.00208C124.911 8.00208 121.919 8.30209 121.919 8.30209V6.80609ZM139.87 6.80609V24.0841H137.626V6.80609H139.87Z" fill="#7C7C84"/>
</svg>
