<svg width="127" height="30" viewBox="0 0 127 30" fill="none" xmlns="http://www.w3.org/2000/svg">
<path d="M28.4873 23.0784V2.27539H30.8323V20.8764H41.2533V23.0784H28.4873Z" fill="#7C7C84"/>
<path d="M49.0015 6.60938C50.0855 6.60938 51.0455 6.79938 51.8815 7.18138C52.7165 7.56238 53.4095 8.10038 53.9785 8.81038C54.5475 9.52138 54.9745 10.3534 55.2765 11.3414C55.5785 12.3294 55.7205 13.4224 55.7205 14.6354V15.7104H44.4685C44.5755 17.4614 45.0725 18.7964 45.9615 19.6974C46.8505 20.5994 47.9175 21.0674 49.1975 21.0674C49.9085 21.0674 50.6015 20.9284 51.2595 20.6514C51.9165 20.3734 52.5215 20.0094 53.0185 19.5414L54.4235 20.9974C52.9305 22.3844 51.1165 23.0784 48.9655 23.0784C48.0595 23.0784 47.1885 22.9044 46.3525 22.5584C45.5175 22.2114 44.7885 21.6914 44.1485 20.9974C43.5085 20.3044 43.0105 19.4374 42.6555 18.4144C42.2825 17.3924 42.1045 16.1954 42.1045 14.8604C42.1045 13.5784 42.2825 12.4334 42.6375 11.4114C42.9935 10.3884 43.4735 9.52138 44.0955 8.81038C44.6995 8.10038 45.4285 7.54538 46.2635 7.16338C47.1175 6.78238 48.0235 6.60938 49.0015 6.60938ZM53.3925 13.8384C53.3925 13.1274 53.3035 12.4514 53.1255 11.8094C52.9475 11.1684 52.6815 10.6134 52.3075 10.1454C51.9345 9.67739 51.4725 9.31339 50.9215 9.01839C50.3705 8.74139 49.6945 8.60239 48.9305 8.60239C48.3615 8.60239 47.8105 8.72438 47.2955 8.98438C46.7795 9.22638 46.3355 9.59038 45.9265 10.0584C45.5355 10.5274 45.1975 11.0814 44.9485 11.7234C44.6995 12.3644 44.5395 13.0754 44.5045 13.8554H53.3925V13.8384Z" fill="#7C7C84"/>
<path d="M61.3572 23.0776L55.7202 7.47461H58.1162C58.6162 8.99461 59.1162 10.4796 59.6332 11.9476C60.1502 13.4156 60.6672 14.9006 61.1842 16.3856C61.2532 16.5906 61.3392 16.8806 61.4772 17.2566C61.5982 17.6146 61.7362 18.0076 61.8742 18.3996C62.0122 18.8096 62.1492 19.2026 62.2532 19.5606C62.3742 19.9366 62.4602 20.2266 62.5292 20.4486H62.6322C62.8732 19.7656 63.0972 19.0826 63.3042 18.4176C63.5112 17.7516 63.7352 17.0686 63.9422 16.3856C64.4592 14.9006 64.9592 13.4156 65.4592 11.9476C65.9592 10.4796 66.4582 8.97761 66.9762 7.47461H69.3372L63.7522 23.0776H61.3572Z" fill="#7C7C84"/>
<path d="M76.2235 6.60938C77.1725 6.60938 78.0125 6.79938 78.7435 7.18138C79.4745 7.56238 80.0805 8.10038 80.5785 8.81038C81.0765 9.52138 81.4495 10.3534 81.7135 11.3414C81.9785 12.3294 82.1025 13.4224 82.1025 14.6354V15.7104H72.2575C72.3505 17.4614 72.7855 18.7964 73.5635 19.6974C74.3415 20.5994 75.2745 21.0674 76.3945 21.0674C77.0165 21.0674 77.6235 20.9284 78.1985 20.6514C78.7745 20.3734 79.3035 20.0094 79.7385 19.5414L80.9675 20.9974C79.6605 22.3844 78.0745 23.0784 76.1925 23.0784C75.3985 23.0784 74.6365 22.9044 73.9055 22.5584C73.1745 22.2114 72.5375 21.6914 71.9775 20.9974C71.4175 20.3044 70.9815 19.4374 70.6705 18.4144C70.3435 17.3924 70.1885 16.1954 70.1885 14.8604C70.1885 13.5784 70.3435 12.4334 70.6545 11.4114C70.9665 10.3884 71.3865 9.52138 71.9305 8.81038C72.4595 8.10038 73.0965 7.54538 73.8285 7.16338C74.5745 6.78238 75.3675 6.60938 76.2235 6.60938ZM80.0495 13.8384C80.0495 13.1274 79.9715 12.4514 79.8165 11.8094C79.6605 11.1684 79.4275 10.6134 79.1005 10.1454C78.7745 9.67739 78.3695 9.31339 77.8875 9.01839C77.4055 8.74139 76.8145 8.60239 76.1455 8.60239C75.6475 8.60239 75.1655 8.72438 74.7145 8.98438C74.2635 9.22638 73.8745 9.59038 73.5165 10.0584C73.1745 10.5274 72.8795 11.0814 72.6615 11.7234C72.4435 12.3644 72.3035 13.0754 72.2725 13.8554H80.0495V13.8384Z" fill="#7C7C84"/>
<path d="M85.5063 23.078V1.61801L87.2094 0.541016V23.078H85.5063Z" fill="#7C7C84"/>
<path d="M99.9089 23.0784C98.6259 23.0784 97.4729 22.8934 96.4329 22.5064C95.3939 22.1374 94.5009 21.5654 93.7699 20.8094C93.0389 20.0534 92.4709 19.1124 92.0649 17.9864C91.6589 16.8604 91.4639 15.5504 91.4639 14.0374V2.27539H96.4819V13.7684C96.4819 15.2984 96.7749 16.4744 97.3749 17.2804C97.9759 18.1044 98.8369 18.5074 99.9739 18.5074C101.127 18.5074 102.004 18.1214 102.573 17.3314C103.157 16.5414 103.433 15.3984 103.433 13.8864V2.27539H108.484V14.0374C108.484 15.5504 108.273 16.8774 107.867 18.0034C107.445 19.1294 106.86 20.0874 106.113 20.8434C105.366 21.5994 104.457 22.1544 103.401 22.5234C102.361 22.8934 101.192 23.0784 99.9089 23.0784Z" fill="#7C7C84"/>
<path d="M126.356 14.7814C126.356 16.1684 126.167 17.3694 125.808 18.3844C125.448 19.3834 124.968 20.2124 124.368 20.8554C123.769 21.4984 123.083 21.9714 122.312 22.2594C121.541 22.5474 120.753 22.6994 119.965 22.6994C118.491 22.6994 117.24 22.2594 116.212 21.3624H116.109V27.3184C115.253 27.6064 114.396 27.9104 113.556 28.2154C112.717 28.5194 111.877 28.8414 111.037 29.1454V6.91338H116.075V8.25038H116.178C116.726 7.74238 117.394 7.33638 118.131 7.04938C118.885 6.76138 119.588 6.60938 120.273 6.60938C121.13 6.60938 121.918 6.76138 122.672 7.06538C123.409 7.37038 124.06 7.86138 124.591 8.50438C125.139 9.16338 125.568 10.0094 125.876 11.0414C126.202 12.0744 126.356 13.3264 126.356 14.7814ZM121.13 14.6114C121.113 13.2584 120.89 12.2774 120.479 11.6514C120.067 11.0254 119.485 10.7204 118.731 10.7204C118.285 10.7204 117.823 10.8384 117.343 11.0584C116.88 11.2784 116.469 11.6004 116.126 11.9894V17.3694C116.452 17.7254 116.829 18.0294 117.257 18.2494C117.686 18.4864 118.131 18.6044 118.577 18.6044C119.382 18.6044 120.016 18.3004 120.462 17.7084C120.907 17.0994 121.13 16.0834 121.13 14.6114Z" fill="#7C7C84"/>
<path d="M9.76532 12.6758H0.40332V23.0778H9.76532V12.6758Z" fill="#7C7C84"/>
<path d="M20.8283 12.6758H11.4673V23.0778H20.8283V12.6758Z" fill="#7C7C84"/>
<path d="M20.8283 2.27539H11.4673V10.9434H20.8283V2.27539Z" fill="#7C7C84"/>
</svg>
