<svg width="132" height="24" viewBox="0 0 132 24" fill="none" xmlns="http://www.w3.org/2000/svg">
<path d="M0.868164 2.0741C0.868164 1.7641 1.15346 1.48712 1.46576 1.48712H4.39317C4.47087 1.48612 4.54786 1.50109 4.61976 1.53009C4.69166 1.56009 4.75697 1.6031 4.81207 1.6571C4.86717 1.7121 4.91097 1.77712 4.94077 1.84912C4.97067 1.92012 4.98606 1.9971 4.98606 2.0741V10.2651H15.2343V2.07507C15.2343 1.76507 15.4904 1.48712 15.8374 1.48712H18.7282C19.0446 1.48712 19.3269 1.76407 19.3269 2.07507V22.5431C19.3269 22.8551 19.0446 23.1311 18.7282 23.1311H15.8374C15.4904 23.1311 15.2343 22.8551 15.2343 22.5431V14.0111H4.98606V22.5431C4.98617 22.6211 4.97076 22.6971 4.94096 22.7691C4.91106 22.8411 4.86726 22.9061 4.81216 22.9601C4.75696 23.0151 4.69156 23.0581 4.61956 23.0871C4.54766 23.1171 4.47056 23.1311 4.39286 23.1311H1.46547C1.15347 23.1311 0.868164 22.8541 0.868164 22.5431V2.0741ZM36.3422 15.7431L33.1973 8.93909H33.1028L30.0236 15.7431H36.3422ZM22.756 22.3251L32.5366 1.51611C32.6291 1.33211 32.788 1.17712 33.0733 1.17712H33.3881C33.7015 1.17712 33.8251 1.33211 33.9224 1.51611L43.604 22.3251C43.7952 22.7271 43.5451 23.1311 43.0756 23.1311H40.3351C39.8656 23.1311 39.6409 22.9501 39.4173 22.5151L37.8784 19.1741H28.4792L26.937 22.5151C26.8112 22.8211 26.5286 23.1311 26.0296 23.1311H23.2862C22.821 23.1311 22.5649 22.7271 22.756 22.3251ZM56.2812 11.3461C57.9432 11.3461 59.3952 9.93307 59.3952 8.20007C59.3952 6.56107 57.9432 5.19611 56.2812 5.19611H51.1553V11.3461H56.2812ZM47.0346 2.07611C47.0346 1.76411 47.2863 1.49213 47.6305 1.49213H56.6252C60.4032 1.49213 63.4782 4.45308 63.4782 8.13708C63.4782 10.9771 61.5622 13.2971 58.8272 14.3791L63.1382 22.2331C63.3542 22.6401 63.1382 23.1311 62.6002 23.1311H59.2972C59.0162 23.1311 58.8612 22.9751 58.7942 22.8531L54.6132 14.6561H51.1231V22.5431C51.1231 22.8531 50.8405 23.1311 50.5244 23.1311H47.6305C47.5527 23.1311 47.4756 23.1161 47.4035 23.0871C47.3315 23.0581 47.2659 23.0151 47.2105 22.9601C47.1552 22.9061 47.1112 22.8411 47.081 22.7691C47.0508 22.6981 47.035 22.6211 47.0346 22.5431V2.07611ZM77.1272 11.3461C78.7912 11.3461 80.2332 9.93307 80.2332 8.20007C80.2332 6.56107 78.7912 5.19611 77.1272 5.19611H72.0032V11.3461H77.1272ZM67.8852 2.07611C67.8852 1.76411 68.1332 1.49213 68.4782 1.49213H77.4732C81.2512 1.49213 84.3262 4.45308 84.3262 8.13708C84.3262 10.9771 82.4102 13.2971 79.6672 14.3791L83.9832 22.2331C84.2022 22.6401 83.9832 23.1311 83.4512 23.1311H80.1432C79.8622 23.1311 79.7052 22.9751 79.6442 22.8531L75.4552 14.6561H71.9692V22.5431C71.9692 22.8531 71.6872 23.1311 71.3722 23.1311H68.4782C68.4002 23.1311 68.3232 23.1171 68.2512 23.0871C68.1792 23.0581 68.1142 23.0151 68.0592 22.9601C68.0042 22.9061 67.9602 22.8411 67.9302 22.7691C67.9002 22.6971 67.8852 22.6211 67.8852 22.5431V2.07611ZM93.6832 12.7091L86.5202 2.38208C86.2632 1.97908 86.5202 1.48712 87.0232 1.48712H90.2272C90.4792 1.48712 90.6402 1.6381 90.7312 1.7641L95.7612 8.8761L100.796 1.7641C100.89 1.6381 101.039 1.48712 101.299 1.48712H104.537C105.04 1.48712 105.289 1.9791 105.04 2.3811L97.7762 12.6811V22.5441C97.7762 22.8541 97.4932 23.1311 97.1732 23.1311H94.2832C93.9392 23.1311 93.6832 22.8541 93.6832 22.5451V12.7091ZM116.799 19.7871L117.926 17.8741C118.182 17.4371 118.721 17.4371 119.002 17.6601C119.155 17.7501 121.707 19.5721 123.751 19.5721C125.385 19.5721 126.609 18.5251 126.609 17.1951C126.609 15.6161 125.256 14.5381 122.615 13.4861C119.663 12.3071 116.705 10.4531 116.705 6.80212C116.705 4.05512 118.779 0.871094 123.78 0.871094C126.989 0.871094 129.439 2.47809 130.069 2.94409C130.386 3.12709 130.476 3.65207 130.252 3.96307L129.069 5.7251C128.816 6.0941 128.338 6.34112 127.961 6.09412C127.711 5.94412 125.316 4.39508 123.596 4.39508C121.801 4.39508 120.823 5.5691 120.823 6.5611C120.823 8.0151 121.988 9.00511 124.532 10.0161C127.586 11.2281 131.111 13.0201 131.111 17.0051C131.111 20.1941 128.311 23.1311 123.874 23.1311C119.915 23.1311 117.58 21.3101 116.958 20.7181C116.675 20.4411 116.514 20.2861 116.799 19.7871ZM110.638 1.4881C108.966 1.4881 107.665 2.76713 107.665 4.40613C107.665 5.94413 108.833 7.15112 110.319 7.15112C110.544 7.15112 110.883 7.13908 111.214 7.04608C111.22 7.08408 111.22 7.12612 111.22 7.16412C111.22 8.85812 109.866 9.41208 109.688 9.42908C109.5 9.42908 109.341 9.4621 109.221 9.5141C109.013 9.6141 108.898 9.79708 108.898 10.0121C108.898 10.3391 109.209 10.6191 109.571 10.6191C111.975 10.6191 114.004 8.21311 114.004 5.36011C114.004 2.81711 112.306 1.4881 110.638 1.4881Z" fill="#7C7C84"/>
</svg>
