<svg width="105" height="30" viewBox="0 0 105 30" fill="none" xmlns="http://www.w3.org/2000/svg">
<path d="M23.321 13.9954C23.218 16.2864 21.63 19.4244 18.562 23.4064C15.39 27.5654 12.706 29.6464 10.51 29.6464C9.15001 29.6464 8.00002 28.3794 7.05902 25.8454L5.17603 18.8794C4.47803 16.3474 3.73002 15.0794 2.92902 15.0794C2.75402 15.0794 2.14198 15.4494 1.09698 16.1884L0 14.7614C1.151 13.7414 2.28599 12.7204 3.40399 11.6974C4.93999 10.3604 6.093 9.6554 6.862 9.5844C8.678 9.4084 9.796 10.6614 10.216 13.3404C10.669 16.2334 10.982 18.0324 11.158 18.7364C11.682 21.1354 12.258 22.3334 12.886 22.3334C13.375 22.3334 14.109 21.5544 15.087 19.9994C16.064 18.4424 16.588 17.2574 16.658 16.4454C16.798 15.1014 16.274 14.4284 15.087 14.4284C14.528 14.4284 13.952 14.5574 13.36 14.8144C14.507 11.0254 16.697 9.18441 19.932 9.28941C22.33 9.36041 23.459 10.9294 23.321 13.9954Z" fill="#7C7C84"/>
<path d="M33.1649 2.62901C33.1309 3.50601 32.6939 4.34701 31.8539 5.15401C31.4129 5.59401 30.89 5.94201 30.314 6.17601C29.739 6.41101 29.123 6.528 28.502 6.52C26.511 6.52 25.5489 5.64401 25.6199 3.89201C25.6529 2.98101 26.1869 2.10401 27.2159 1.26201C28.2469 0.423009 29.3899 0 30.6489 0C31.3829 0 31.9939 0.291003 32.4839 0.869003C32.9719 1.447 33.1999 2.03401 33.1649 2.62901ZM37.723 21.418C36.745 23.282 35.401 24.972 33.689 26.485C31.348 28.526 29.0089 29.547 26.6689 29.547C25.5839 29.547 24.7559 29.195 24.1799 28.49C23.6039 27.786 23.3319 26.872 23.3679 25.745C23.4009 24.585 23.7599 22.789 24.4409 20.359C25.1219 17.931 25.4639 16.628 25.4639 16.452C25.4639 15.537 25.149 15.079 24.52 15.079C24.312 15.079 23.7159 15.449 22.7379 16.188L21.533 14.761L24.8859 11.697C26.3879 10.36 27.506 9.655 28.241 9.584C29.393 9.479 30.2399 9.82101 30.7809 10.611C31.3209 11.402 31.522 12.426 31.384 13.69C30.93 15.831 30.4409 18.549 29.9169 21.848C29.8809 23.358 30.4229 24.111 31.5399 24.111C32.0299 24.111 32.903 23.591 34.16 22.548C35.209 21.68 36.0639 20.863 36.7289 20.097L37.723 21.418Z" fill="#7C7C84"/>
<path d="M70.4429 21.4166C69.4649 23.2816 68.1209 24.9706 66.4089 26.4826C64.0679 28.5236 61.7279 29.5456 59.3879 29.5456C57.1169 29.5456 56.017 28.2786 56.088 25.7436C56.121 24.6156 56.3399 23.2636 56.7419 21.6796C57.1419 20.0936 57.3609 18.8626 57.3959 17.9816C57.4319 16.6456 57.028 15.9756 56.187 15.9756C55.276 15.9756 54.1899 17.0676 52.9279 19.2516C51.5969 21.5416 50.8769 23.7596 50.7729 25.9086C50.6979 27.4246 50.848 28.5856 51.213 29.3956C48.776 29.4666 47.069 29.0616 46.095 28.1806C45.222 27.4056 44.8229 26.1216 44.8939 24.3236C44.9239 23.1966 45.098 22.0696 45.408 20.9426C45.716 19.8156 45.887 18.8126 45.921 17.9306C45.996 16.6276 45.5189 15.9756 44.5049 15.9756C43.6299 15.9756 42.6849 16.9806 41.6719 18.9876C40.6729 20.9376 40.1009 23.0816 39.9929 25.2746C39.9179 27.2486 40.0529 28.6206 40.3679 29.3956C37.9709 29.4666 36.2679 28.9566 35.2609 27.8676C34.4239 26.9556 34.0429 25.5676 34.1129 23.7056C34.1429 22.7926 34.307 21.5186 34.595 19.8866C34.883 18.2526 35.044 16.9806 35.077 16.0666C35.152 15.4356 34.987 15.1176 34.606 15.1176C34.396 15.1176 33.8009 15.4746 32.8229 16.1876L31.5659 14.7606C31.7409 14.6216 32.8399 13.5986 34.8669 11.6966C36.3339 10.3246 37.3289 9.61959 37.8519 9.58459C38.7619 9.51359 39.4939 9.89159 40.0529 10.7196C40.6119 11.5466 40.892 12.5076 40.892 13.5986C40.892 13.9516 40.8619 14.2856 40.7869 14.6036C41.2939 13.8126 41.9109 13.0996 42.6199 12.4886C44.2269 11.0806 46.026 10.2866 48.017 10.1116C49.729 9.97058 50.9499 10.3746 51.6859 11.3266C52.2779 12.1006 52.5569 13.2116 52.5229 14.6546C52.7669 14.4446 53.0299 14.2146 53.3109 13.9676C54.1119 13.0176 54.898 12.2616 55.666 11.6966C56.958 10.7456 58.3049 10.2176 59.7009 10.1116C61.3779 9.97058 62.5829 10.3726 63.3159 11.3216C63.9439 12.0936 64.224 13.1996 64.155 14.6366C64.119 15.6196 63.884 17.0496 63.447 18.9276C63.009 20.8046 62.793 21.8826 62.793 22.1636C62.757 22.9016 62.8269 23.4106 63.0009 23.6906C63.1769 23.9716 63.594 24.1106 64.259 24.1106C64.748 24.1106 65.6189 23.5906 66.8779 22.5466C67.9249 21.6796 68.782 20.8626 69.447 20.0966L70.4429 21.4166Z" fill="#7C7C84"/>
<path d="M78.197 15.8452C78.23 14.8992 77.847 14.4262 77.046 14.4262C75.999 14.4262 74.935 15.1532 73.855 16.6072C72.773 18.0612 72.215 19.4552 72.18 20.7862C72.161 20.7862 72.161 21.0152 72.18 21.4702C73.861 20.8582 75.382 19.8702 76.628 18.5792C77.639 17.4582 78.161 16.5452 78.197 15.8452ZM90.0901 21.3612C89.0781 23.0512 87.087 24.7382 84.117 26.4262C80.416 28.5722 76.6591 29.6432 72.8531 29.6432C70.0241 29.6432 67.9961 28.6932 66.7751 26.7912C65.9011 25.4882 65.4831 23.9392 65.5171 22.1432C65.5521 19.2912 66.811 16.5802 69.291 14.0082C72.014 11.1912 75.2281 9.78125 78.9311 9.78125C82.3541 9.78125 84.17 11.1882 84.38 13.9972C84.519 15.7892 83.541 17.6352 81.445 19.5322C79.21 21.6062 76.396 22.9222 73.01 23.4842C73.637 24.3632 74.58 24.8022 75.838 24.8022C78.353 24.8022 81.096 24.1572 84.065 22.8662C86.195 21.9602 87.873 21.0192 89.096 20.0432L90.0901 21.3612Z" fill="#7C7C84"/>
<path d="M98.3919 17.6213C98.4359 16.7303 98.3019 15.8393 97.9989 15.0013C97.7019 14.2083 97.2729 13.8083 96.7159 13.8083C94.9329 13.8083 93.4659 14.7803 92.3149 16.7213C91.3359 18.3093 90.8099 20.0043 90.7429 21.8013C90.7069 22.6853 90.8649 23.4633 91.2139 24.1313C91.5969 24.9093 92.1379 25.2963 92.8389 25.2963C94.4099 25.2963 95.7559 24.3633 96.8729 22.4913C97.8159 20.9373 98.3209 19.3143 98.3919 17.6213ZM104.312 17.8213C104.173 21.0573 102.986 23.8533 100.75 26.2093C98.5149 28.5643 95.7359 29.7433 92.4189 29.7433C89.6599 29.7433 87.5639 28.8463 86.1319 27.0513C85.0849 25.7153 84.5069 24.0453 84.4039 22.0423C84.2269 19.0163 85.3099 16.2383 87.6519 13.7053C90.1669 10.8933 93.3269 9.48633 97.1339 9.48633C99.5789 9.48633 101.43 10.3133 102.689 11.9663C103.877 13.4783 104.417 15.4303 104.312 17.8213Z" fill="#7C7C84"/>
</svg>
