<svg width="105" height="51" viewBox="0 0 105 51" fill="none" xmlns="http://www.w3.org/2000/svg">
<mask id="mask0_192_3739" style="mask-type:luminance" maskUnits="userSpaceOnUse" x="0" y="0" width="105" height="51">
<path d="M104.309 0.554688H0.799805V50.1397H104.309V0.554688Z" fill="white"/>
</mask>
<g mask="url(#mask0_192_3739)">
<path d="M101.999 47.6184H101.133V44.0654C101.133 42.5774 100.679 41.9574 99.525 41.9574C98.123 41.9574 97.5869 42.9904 97.5869 43.8994V47.6184H96.721V38.6934H97.5869V42.4944C97.8749 41.9164 98.5349 41.2964 99.7719 41.2964C101.339 41.2964 101.999 42.1644 101.999 44.0234V47.6184ZM89.586 41.4614H90.37V40.0574L91.236 39.8094V41.5034H92.844V42.1234H91.236V45.7184C91.236 46.7094 91.401 47.1644 92.184 47.1644C92.514 47.1644 92.8439 47.0814 93.0089 47.0404L93.0919 47.7014C92.8849 47.7844 92.473 47.8664 91.978 47.8664C90.617 47.8664 90.37 46.9984 90.37 46.0074V42.1644H89.586V41.4614ZM85.792 47.6184H84.926V38.6934H85.792V47.6184ZM81.091 47.6184C80.926 47.6604 80.761 47.6604 80.638 47.6604C79.854 47.6604 79.73 47.2054 79.689 46.6684C79.318 47.3704 78.534 47.7424 77.545 47.7424C76.06 47.7424 75.4829 46.9574 75.4829 46.0074C75.4829 44.2714 77.421 44.0654 79.648 44.0654V43.8174C79.648 42.2474 78.8639 41.8334 77.9569 41.8334C76.7609 41.8334 76.472 42.3714 76.472 42.9494C76.472 43.1564 76.514 43.4044 76.555 43.6104L75.771 43.6514C75.73 43.4044 75.689 43.1974 75.689 42.9494C75.689 41.8754 76.3899 41.2144 78.0399 41.2144C80.0599 41.2144 80.473 42.4124 80.473 44.0654V46.4614C80.473 46.9164 80.555 47.0404 80.885 47.0404C80.926 47.0404 81.05 47.0404 81.132 46.9984L81.091 47.6184ZM79.607 44.6844C76.802 44.6844 76.307 45.1804 76.307 46.0074C76.307 46.7094 76.6789 47.1644 77.7509 47.1644C78.8229 47.1644 79.607 46.5034 79.607 45.4704V44.6844ZM71.895 45.7184C71.689 47.3704 70.328 47.7844 69.379 47.7844C67.235 47.7844 66.534 46.3794 66.534 44.6024C66.534 42.6604 67.565 41.2964 69.503 41.2964C71.07 41.2964 71.9359 42.2474 71.9359 43.9414C71.9359 44.1894 71.936 44.4374 71.895 44.6844H67.4409C67.4409 46.0074 67.895 47.0814 69.421 47.0814C70.328 47.0814 71.07 46.7094 71.235 45.5944L71.895 45.7184ZM71.111 44.0654C71.111 43.9824 71.111 43.8994 71.111 43.8174C71.111 42.6604 70.6169 41.9574 69.4619 41.9574C68.0189 41.9574 67.4819 43.0324 67.4409 44.1064H71.111V44.0654ZM62.534 47.6184H61.668V44.0654C61.668 42.5774 61.214 41.9574 60.059 41.9574C58.657 41.9574 58.1209 42.9904 58.1209 43.8994V47.6184H57.255V38.6934H58.1209V42.4944C58.4099 41.9164 59.07 41.2964 60.307 41.2964C61.874 41.2964 62.534 42.1644 62.534 44.0234V47.6184ZM7.06796 38.6934V47.6184H6.32596L6.24295 46.6684H6.202C5.79 47.3704 5.08795 47.7844 4.05795 47.7844C2.57295 47.7844 1.50098 46.8754 1.50098 44.6024C1.50098 42.4944 2.57295 41.2964 4.26395 41.2964C5.21195 41.2964 5.831 41.7514 6.202 42.2884H6.24295V38.6934H7.06796ZM4.38699 41.9164C3.14999 41.9164 2.36697 42.7844 2.36697 44.6024C2.36697 46.3794 3.10895 47.1224 4.26395 47.1224C5.33595 47.1224 6.28397 46.5854 6.28397 44.4374C6.28397 42.5774 5.45999 41.9164 4.38699 41.9164ZM11.439 38.6934H12.305V39.8914H11.439V38.6934ZM11.439 41.4614H12.305V47.6604H11.439V41.4614ZM21.914 41.4614V47.2884C21.914 48.9824 21.0479 50.0154 19.0269 50.0154C17.7069 50.0154 16.883 49.4784 16.594 48.5274L17.336 48.3214C17.584 48.9414 17.9139 49.3954 19.0269 49.3954C20.4289 49.3954 21.0479 48.7754 21.0479 47.2054V46.6274H21.007C20.677 47.2054 20.017 47.7424 18.903 47.7424C17.336 47.7424 16.305 46.7924 16.305 44.6844C16.305 42.5364 17.378 41.3384 19.11 41.3384C20.141 41.3384 20.6769 41.8334 21.0479 42.4124H21.089L21.172 41.5034H21.914V41.4614ZM19.2329 41.9164C18.2019 41.9164 17.213 42.5774 17.213 44.6024C17.213 46.4204 17.996 47.0404 19.151 47.0404C20.388 47.0404 21.13 46.2554 21.13 44.4374C21.089 42.5364 20.2229 41.9164 19.2329 41.9164ZM26.244 38.6934H27.11V39.8914H26.244V38.6934ZM26.244 41.4614H27.11V47.6604H26.244V41.4614ZM30.904 41.4614H31.687V40.0574L32.5529 39.8094V41.5034H34.162V42.1234H32.5529V45.7184C32.5529 46.7094 32.718 47.1644 33.502 47.1644C33.832 47.1644 34.162 47.0814 34.327 47.0404L34.409 47.7014C34.203 47.7844 33.791 47.8664 33.296 47.8664C31.935 47.8664 31.687 46.9984 31.687 46.0074V42.1644H30.904V41.4614ZM43.193 47.6184C43.028 47.6604 42.863 47.6604 42.739 47.6604C41.956 47.6604 41.832 47.2054 41.791 46.6684C41.42 47.3704 40.636 47.7424 39.646 47.7424C38.162 47.7424 37.584 46.9574 37.584 46.0074C37.584 44.2714 39.523 44.0654 41.75 44.0654V43.8174C41.75 42.2474 40.966 41.8334 40.059 41.8334C38.863 41.8334 38.5739 42.3714 38.5739 42.9494C38.5739 43.1564 38.615 43.4044 38.657 43.6104L37.873 43.6514C37.832 43.4044 37.791 43.1974 37.791 42.9494C37.791 41.8754 38.492 41.2144 40.141 41.2144C42.162 41.2144 42.5739 42.4124 42.5739 44.0654V46.4614C42.5739 46.9164 42.657 47.0404 42.987 47.0404C43.028 47.0404 43.152 47.0404 43.234 46.9984L43.193 47.6184ZM41.708 44.6844C38.904 44.6844 38.409 45.1804 38.409 46.0074C38.409 46.7094 38.78 47.1644 39.853 47.1644C40.925 47.1644 41.708 46.5034 41.708 45.4704V44.6844ZM47.894 47.6184H47.028V38.6934H47.894V47.6184Z" fill="#7C7C84"/>
<path d="M4.75879 11.6697V29.7687H3.85083C3.85083 29.7687 1.25281 29.7687 1.25281 27.2887V9.35571H2.36682C2.86182 9.39671 4.67579 9.68668 4.75879 11.6697ZM0.799805 3.48871C0.881805 2.33171 1.8308 1.46368 2.9848 1.46368C4.1808 1.46368 5.17084 2.45569 5.17084 3.65369C5.17084 4.85169 4.1808 5.84369 2.9848 5.84369C1.8308 5.84369 0.881805 4.93466 0.799805 3.81866V3.48871ZM27.5218 1.42267C35.3158 1.42267 41.6258 7.74471 41.6258 15.5537C41.6258 15.5537 41.5848 17.0417 40.0588 17.0417H17.0478C17.7488 22.1657 22.1608 26.1317 27.4808 26.1317C29.5838 26.1317 31.5218 25.5127 33.1718 24.4797C35.0278 23.1987 36.5538 24.6447 36.6358 24.7277L37.4608 25.5537C34.9038 28.1157 31.3568 29.6857 27.4808 29.6857C20.1818 29.6857 14.2018 24.1487 13.4598 17.0417C13.4598 16.8767 13.4188 16.7107 13.4188 16.5457C13.4188 16.4627 13.4188 16.3807 13.4188 16.2977C13.4188 16.2147 13.4188 16.1737 13.4188 16.0907C13.4188 15.9257 13.4188 15.7197 13.4188 15.5537C13.3768 7.78571 19.7278 1.42267 27.5218 1.42267ZM49.7088 24.8507C51.2338 23.1157 53.0488 24.6037 53.0488 24.6037C54.2858 25.5537 55.5228 26.0077 56.8428 26.0077C58.1208 26.0077 59.2348 25.5947 60.1418 24.7687C61.0488 23.9417 61.5028 22.9917 61.5028 21.8757C61.5028 20.9667 61.2138 20.1407 60.5958 19.4377C59.9768 18.7357 58.5748 17.7857 56.3888 16.6697C53.9968 15.4297 52.3478 14.1907 51.4408 12.9507C50.5748 11.7107 50.1208 10.3067 50.1208 8.73572C50.1208 6.66972 50.8218 4.93468 52.2238 3.57068C53.6258 2.20768 55.4408 1.5047 57.5438 1.5047C60.0178 1.5047 62.5338 2.70269 65.0078 5.14069L65.1728 5.3067L64.5128 6.00867C62.8218 7.74467 60.5958 6.17371 60.5958 6.17371C59.5228 5.47171 58.4098 5.14069 57.3788 5.14069C56.3478 5.14069 55.4408 5.47171 54.6978 6.17371C53.9558 6.87671 53.5848 7.62068 53.5848 8.57068C53.5848 9.35568 53.8738 10.1407 54.4918 10.8847C55.1108 11.6697 56.4718 12.5787 58.4918 13.6117C61.0488 14.9337 62.7808 16.2147 63.6878 17.4547C64.5958 18.7357 65.0488 20.1407 65.0488 21.7517C65.0488 23.9837 64.2658 25.8847 62.6988 27.4127C61.1318 28.9417 59.1928 29.7267 56.8428 29.7267C55.3168 29.7267 53.7908 29.3967 52.3888 28.6937C50.9868 28.0327 49.7908 27.0827 48.8838 25.8847L48.7598 25.7187L49.7088 24.8507ZM89.0088 1.42267C96.8028 1.42267 103.113 7.74471 103.113 15.5537C103.113 23.3637 96.8028 29.6857 89.0088 29.6857C81.2148 29.6857 74.9048 23.3637 74.9048 15.5537C74.9048 7.78571 81.2148 1.42267 89.0088 1.42267ZM102.205 3.52972C101.174 3.52972 100.679 2.90968 100.679 2.08368C100.679 1.13268 101.381 0.554688 102.205 0.554688C103.154 0.554688 103.731 1.13267 103.731 2.00067C103.731 2.90967 103.113 3.52972 102.205 3.52972ZM102.205 0.802673C101.504 0.802673 100.968 1.25669 100.968 2.04169C100.968 2.78569 101.463 3.24072 102.205 3.24072C102.989 3.24072 103.484 2.78567 103.484 2.00067C103.442 1.25667 102.906 0.802673 102.205 0.802673ZM102.948 2.82672H102.659L102.288 2.2077H101.958V2.82672H101.71V1.25671H102.288C102.741 1.25671 102.824 1.46367 102.824 1.71167C102.824 1.91767 102.7 2.08369 102.535 2.12469L102.948 2.82672ZM102.164 2.00067C102.37 2.00067 102.535 1.91767 102.535 1.71167C102.535 1.50467 102.411 1.42267 102.205 1.42267H101.917V2.00067H102.164Z" fill="#7C7C84"/>
</g>
</svg>
