<svg width="132" height="36" viewBox="0 0 132 36" fill="none" xmlns="http://www.w3.org/2000/svg">
<path d="M29.701 9.04901C29.701 4.11901 25.349 0 19.778 0C14.381 0 9.854 4.11901 9.854 9.04901H29.701ZM29.701 26.951C29.701 31.881 25.244 36 19.778 36C14.311 36 9.854 31.881 9.854 26.951H29.701Z" fill="#7C7C84"/>
<path d="M18.733 17.9343C13.754 18.4213 9.88898 22.2803 9.88898 26.9833C4.49198 26.9503 0 22.8963 0 17.9343C0 12.9723 4.49201 8.88629 9.92401 8.88629C9.92401 13.5883 13.719 17.5773 18.733 17.9343ZM20.996 17.9343C25.975 18.4213 29.84 22.2803 29.84 26.9833C35.237 26.9833 39.764 22.8643 39.764 17.9343C39.764 13.0043 35.272 8.88629 29.84 8.88629C29.84 13.5883 25.871 17.5773 20.996 17.9343ZM89.66 12.0312C90.426 12.0312 92.062 11.9343 92.062 13.6863C92.062 15.4373 90.878 15.9883 89.66 15.9883H87.536V16.5723L94.117 25.9453H99.653L93.838 18.1293C96.867 16.7993 97.007 14.7563 97.007 13.3293C97.007 9.11328 93.177 8.5293 91.714 8.5293H82.731V26.0753H87.466V12.0312H89.66Z" fill="#7C7C84"/>
<path d="M113.267 21.1776C111.805 22.5076 110.238 22.6376 107.871 22.6376C104.981 22.6376 102.578 20.3346 102.578 17.2216C102.578 14.1076 104.981 11.5456 107.871 11.5456C110.099 11.5456 111.84 12.0316 113.267 13.1026V8.88556C111.701 8.04256 109.855 7.68555 107.871 7.68555C102.195 7.68555 97.564 10.8316 97.564 17.1886C97.564 23.3506 102.195 26.5945 107.871 26.5945C109.855 26.5945 111.979 26.3345 113.267 25.7505V21.1776ZM114.451 26.0106V8.43158H119.187V16.1186L125.419 8.43158H130.956L124.862 16.6046L132 25.9776H126.185L119.187 16.7346V25.9776H114.451V26.0106ZM48.156 26.0106H52.647V14.5616L58.497 26.4646L64.312 14.4316V25.9776H69.047V8.56158H62.048L58.497 16.2486L54.806 8.56158H48.19V26.0106H48.156ZM70.231 8.43158H81.721V12.0316H74.966V15.2756H81.164V18.8755H74.966V22.3776H81.721V25.9776H70.231V8.43158Z" fill="#7C7C84"/>
</svg>
