<svg width="116" height="32" viewBox="0 0 116 32" fill="none" xmlns="http://www.w3.org/2000/svg">
<path d="M39.7317 31.3447C37.0227 31.1467 34.3877 30.7917 31.9647 29.5967C28.6057 27.9407 26.4507 25.1427 25.2907 21.5407C24.0757 17.7767 24.3387 14.0377 25.7037 10.3877C26.9627 7.01172 29.3417 4.65372 32.5817 3.31672C36.7977 1.58072 41.1677 1.48372 45.4777 2.82472C50.1227 4.26972 53.0877 7.54073 54.2827 12.3907C55.4827 17.2727 54.9007 21.8637 51.8487 25.9497C50.2007 28.1587 47.9907 29.6127 45.4147 30.3277C43.5667 30.8397 41.6317 31.0177 39.7357 31.3447H39.7317ZM50.9127 15.7827C50.9127 9.74972 47.5617 4.10472 41.0687 3.41772C36.7547 2.96172 32.9877 4.21371 30.4937 8.13071C29.2197 10.1327 28.7207 12.4467 28.6027 14.8377C28.4687 17.5707 28.4767 20.2887 29.4437 22.8977C31.3867 28.1267 35.3307 30.1007 40.5307 29.9037C45.2257 29.7257 49.1347 26.7697 50.2127 21.9567C50.6137 20.1677 50.9047 18.7297 50.9047 15.7827H50.9127Z" fill="#7C7C84"/>
<path d="M115.57 30.5728L111.732 30.5237C111.732 30.5237 108.426 22.8717 107.104 19.6897L97.2405 19.7467C96.1865 22.5648 93.1065 30.5237 93.1065 30.5237L90.9795 30.4957L102.789 0.34375C102.789 0.34375 111.536 20.9257 115.406 30.0397C115.457 30.1607 115.484 30.2898 115.57 30.5768V30.5728ZM106.278 17.8367C104.847 14.4607 103.465 11.2017 101.979 7.69275C100.598 11.2467 99.3325 14.5017 98.0385 17.8367H106.281H106.278Z" fill="#7C7C84"/>
<path d="M0.427734 30.5401V2.45508H4.23471C4.23471 10.2971 4.24273 19.4921 4.24673 27.3371C4.24673 27.7701 4.24673 28.1981 4.24673 28.7351H17.1777V30.5401H0.427734Z" fill="#7C7C84"/>
<path d="M69.7935 28.791H82.7125V30.523H65.9824V2.45898C66.5964 2.45898 67.2025 2.45898 67.8115 2.45898C68.4215 2.45898 69.0465 2.45898 69.7935 2.45898V28.791Z" fill="#7C7C84"/>
</svg>
