<svg width="123" height="52" viewBox="0 0 123 52" fill="none" xmlns="http://www.w3.org/2000/svg">
<path d="M106.436 22.546C104.322 23.054 98.8499 23.3079 98.8499 23.3079L98.228 25.466C98.228 25.466 100.964 25.213 102.954 25.466C102.954 25.466 103.576 25.466 103.7 26.228V27.879C103.7 27.879 103.7 28.3869 102.954 28.5139C102.208 28.6409 96.9849 28.895 96.9849 28.895L96.114 31.8159C96.114 31.8159 95.865 32.4509 96.487 32.3239C97.109 32.1969 102.581 31.054 103.203 31.181C103.949 31.308 104.819 32.451 104.57 33.34C104.322 34.483 98.85 38.038 95.617 37.784C95.617 37.784 93.876 37.911 92.508 35.499C91.14 33.213 93.005 29.0219 93.005 29.0219C93.005 29.0219 92.135 26.9899 92.757 26.3549C92.757 26.3549 93.13 26.101 94.124 25.974L95.492 23.181C95.492 23.181 94 23.3079 93.13 22.1649C92.259 21.0219 92.2589 20.641 92.8809 20.26C93.5029 19.879 99.845 18.7359 104.073 18.8629C104.073 18.8629 105.565 18.736 106.933 21.403C106.809 21.276 107.431 22.292 106.436 22.546ZM90.145 33.34C89.648 34.61 88.155 36.007 86.414 35.245C84.549 34.356 81.689 28.387 81.689 28.387C81.689 28.387 80.57 26.228 80.445 26.228C80.445 26.228 80.197 25.847 80.072 28.26C79.948 30.673 80.072 35.3719 79.077 36.1339C78.207 36.8949 77.088 36.514 76.466 35.753C75.968 34.864 75.72 32.832 76.093 29.276C76.466 25.72 77.2119 21.911 78.2069 20.641C79.3259 19.498 80.072 20.26 80.445 20.641C80.445 20.641 81.813 21.9109 84.176 25.7199L84.549 26.3549C84.549 26.3549 86.6629 29.911 86.9119 29.911C86.9119 29.911 87.0359 30.038 87.2849 29.911C87.5339 29.911 87.409 28.641 87.409 28.641C87.409 28.641 87.036 24.832 85.046 18.228C85.046 18.228 84.798 17.339 84.922 16.577C85.046 15.815 85.917 16.1959 85.917 16.1959C85.917 16.1959 88.9009 17.593 90.2689 22.546C91.6369 27.625 90.767 32.07 90.145 33.34ZM75.7199 20.768C75.4709 21.276 75.347 22.0379 74.103 22.1649C74.103 22.1649 62.165 23.0539 61.543 23.8159C61.543 23.8159 61.17 24.3239 61.792 24.4509C62.413 24.5779 65.149 24.959 66.393 25.086C67.761 25.086 72.486 25.086 74.103 27.244C74.103 27.244 75.098 28.26 75.098 30.546C75.098 32.959 74.5999 33.7209 73.7299 34.6099C72.7349 35.3719 64.6519 39.0539 59.5529 33.4669C59.5529 33.4669 57.19 30.8 60.424 28.641C60.424 28.641 62.7869 27.244 68.6309 28.895C68.6309 28.895 70.372 29.5299 70.372 30.1649C70.248 30.9269 68.88 31.562 66.89 31.562C65.025 31.562 63.533 30.5459 63.781 30.6729C64.03 30.7999 61.667 29.53 60.921 30.419C60.175 31.181 60.424 31.689 61.046 32.197C62.787 33.213 69.875 32.832 71.865 30.546C71.865 30.546 72.735 29.53 71.492 28.768C70.248 28.006 66.642 27.6249 65.2739 27.4979C63.9059 27.3709 58.931 27.498 58.185 26.228C58.185 26.228 57.439 25.3399 58.31 22.6729C59.18 20.0059 64.901 18.863 67.512 18.736C67.512 18.736 74.4759 18.482 75.7199 19.879C75.7199 19.879 75.8439 20.26 75.7199 20.768ZM56.0709 36.768C55.201 37.403 53.4599 37.149 52.9619 36.387C52.4649 35.753 52.341 33.213 52.341 29.276C52.465 25.213 52.465 20.2599 53.46 19.4979C54.33 18.7359 54.828 19.371 55.201 19.879C55.574 20.387 56.0709 21.022 56.0709 22.292C56.1959 23.562 56.4439 30.1649 56.4439 30.1649C56.4439 30.1649 56.8169 36.134 56.0709 36.768ZM57.812 15.434C55.325 16.323 53.708 16.069 52.216 15.434C51.594 16.577 51.221 16.958 50.724 16.958C49.978 17.085 49.356 15.8149 49.356 15.5609C49.232 15.3069 48.859 14.7989 49.232 13.6569C47.864 12.3869 47.7389 10.736 47.9879 9.59298C48.3609 8.19598 50.724 3.11696 57.812 2.48196C57.812 2.48196 61.294 2.22798 61.916 4.13198H62.0399C62.0399 4.13198 65.398 4.13195 65.398 7.17995C65.274 10.355 61.543 14.165 57.812 15.434ZM60.921 6.67196C58.683 7.05296 55.201 10.101 53.584 12.641C56.0709 13.149 60.548 12.895 62.538 8.83095C62.538 8.83095 63.533 6.16396 60.921 6.67196ZM51.097 8.70394C50.351 9.84694 50.351 10.609 50.724 10.99C51.594 9.71995 53.087 7.68796 55.201 6.16396C53.584 6.41796 52.0919 7.05294 51.097 8.70394ZM111.783 36.641C110.166 40.705 108.799 44.8959 107.928 51.1179C107.928 51.1179 107.804 52.388 106.809 51.88C105.814 51.499 104.197 49.848 103.824 47.562C103.451 44.515 104.819 39.435 107.431 33.594C106.685 32.324 106.063 30.419 106.56 27.752C106.56 27.752 107.306 22.7999 112.032 18.3549C112.032 18.3549 112.654 17.847 112.902 17.974C113.275 18.101 113.151 19.7519 112.778 20.5139C112.529 21.2759 110.415 25.086 110.415 25.086C110.415 25.086 109.047 27.6249 109.42 29.6569C111.907 25.7199 117.752 17.72 121.234 20.26C123.473 21.911 123.473 27.1169 121.856 30.1649C120.612 32.8319 116.757 37.784 111.783 36.641ZM119.12 24.197C117.752 25.593 115.514 28.387 113.648 32.197C115.638 31.943 117.504 30.927 118.125 30.292C119.12 29.403 121.234 27.117 120.861 24.07C120.861 24.07 120.612 22.546 119.12 24.197ZM39.5319 38.6729C33.1899 40.5779 27.345 39.6889 24.112 38.7999C23.987 40.1969 23.863 40.7049 23.614 40.9589C23.365 41.2129 21.251 42.483 20.132 40.705C19.635 39.943 19.386 38.4189 19.262 37.0219C11.925 33.5939 8.56696 28.6409 8.44296 28.5139C8.31796 28.3869 6.57696 26.6089 8.31796 24.4509C9.81096 22.5459 15.034 20.514 19.635 19.752C19.759 15.815 20.257 12.641 20.754 11.244C21.376 9.59298 22.246 11.117 22.992 12.133C23.614 12.895 23.987 16.45 23.987 19.244C26.972 19.117 28.837 19.3709 32.07 20.0059C36.423 20.7679 39.407 23.054 39.159 25.593C38.91 28.133 36.672 29.149 35.801 29.276C34.931 29.403 33.438 28.641 33.438 28.641C32.443 28.133 33.3139 27.752 34.5579 27.244C35.8009 26.609 35.552 25.974 35.552 25.974C35.055 24.578 29.4589 23.562 23.7379 23.562C23.7379 26.736 23.863 32.0699 23.987 35.1179C27.967 35.8799 30.827 35.753 30.827 35.753C30.827 35.753 45.252 35.372 45.625 25.974C46.123 16.577 31.2 7.56099 20.257 4.76699C9.43699 1.84699 3.21999 3.87798 2.59799 4.13198C1.97599 4.38598 2.59799 4.51296 2.59799 4.51296C2.59799 4.51296 3.21995 4.63996 4.21395 5.02096C5.20895 5.40196 4.46298 5.90993 4.46298 5.90993C2.59798 6.54493 0.483988 6.16394 0.110988 5.40194C-0.262012 4.51294 0.358946 3.75097 1.22995 2.60897C1.97595 1.46597 2.84695 1.46596 2.84695 1.46596C16.4009 -3.36004 32.817 5.27498 32.817 5.27498C48.237 13.276 50.8479 22.546 50.5999 26.228C50.3509 29.784 48.9829 35.7529 39.5319 38.6729ZM9.81094 25.7199C8.19394 26.4819 9.31295 27.625 9.31295 27.625C12.173 30.8 15.655 32.7049 19.137 33.9749C19.51 28.5139 19.51 26.6089 19.51 23.8159C14.163 24.1969 11.1779 25.0859 9.81094 25.7199Z" fill="#7C7C84"/>
</svg>
