<svg width="113" height="42" viewBox="0 0 113 42" fill="none" xmlns="http://www.w3.org/2000/svg">
<path d="M0 20.755V41.51H113V0H0V20.755ZM111.112 20.755V39.641L56.53 39.622L1.938 39.592L1.9082 20.726L1.8883 1.86899H111.112V20.755Z" fill="#7C7C84"/>
<path d="M9.73975 10.073V10.604L10.167 10.673C10.3956 10.702 10.7335 10.761 10.9124 10.791L11.2305 10.84L11.2106 20.745L11.1808 30.641L10.4652 30.72L9.73975 30.808V31.969H17.2929V30.808L16.5773 30.72L15.8518 30.641L15.822 26.136L15.8021 21.64H25.7406V26.106C25.7406 29.834 25.7207 30.582 25.6014 30.621C25.5219 30.651 25.1443 30.71 24.7567 30.749L24.051 30.818V31.969H31.803V30.808L31.1371 30.739C30.7793 30.7 30.4216 30.651 30.3421 30.621C30.2327 30.582 30.2129 28.811 30.2129 20.706V10.84L30.6104 10.781C30.829 10.751 31.1868 10.692 31.4055 10.663L31.803 10.604V9.54102H24.051V10.604L24.5281 10.663C24.7865 10.702 25.1641 10.751 25.3728 10.781L25.7406 10.84V19.28H15.8021V10.84L16.2295 10.771C17.4022 10.594 17.2929 10.663 17.2929 10.073V9.54102H9.73975V10.073Z" fill="#7C7C84"/>
<path d="M37.657 9.81681C35.5898 10.8788 36.4147 13.9678 38.7602 13.9678C39.4658 13.9678 40.0124 13.7118 40.4696 13.1908C41.215 12.3248 41.215 11.1838 40.4596 10.3188C39.7639 9.50177 38.6409 9.30481 37.657 9.81681Z" fill="#7C7C84"/>
<path d="M45.4189 10.023V10.505L46.0939 10.584L46.7599 10.673L46.7899 20.726L46.8099 30.769L46.5419 30.828C46.3829 30.857 46.0749 30.906 45.8459 30.936L45.4189 31.005V31.969H52.4749V31.005L52.0579 30.936C51.8189 30.906 51.5109 30.857 51.3619 30.828L51.0839 30.769V9.54102H45.4189V10.023Z" fill="#7C7C84"/>
<path d="M59.0638 12.04L57.0458 12.64V16.034H53.9658V17.509H56.9368L56.9668 23.48C57.0068 30.129 57.0068 30.06 57.6918 31.005C58.7358 32.421 61.8568 32.569 65.5738 31.369L66.1898 31.162V30.08L65.8918 30.149C65.7228 30.188 65.0168 30.218 64.3208 30.218C62.5128 30.228 61.9358 30.011 61.4988 29.136L61.2698 28.673L61.2408 23.086L61.2108 17.509H64.9968V16.034H61.2208V13.722C61.2208 12.453 61.1908 11.41 61.1508 11.42C61.1008 11.43 60.1668 11.705 59.0638 12.04Z" fill="#7C7C84"/>
<path d="M74.34 15.601C72.849 15.797 70.99 16.535 69.947 17.352C68.724 18.316 67.74 19.85 67.283 21.493C66.975 22.594 66.896 25.044 67.124 26.352C67.452 28.182 67.989 29.313 69.072 30.395C70.364 31.683 72.143 32.313 74.836 32.421C77.679 32.549 80.004 31.801 81.694 30.228C83.294 28.742 84.039 27.021 84.149 24.591C84.218 23.047 84.069 21.876 83.642 20.637C83.205 19.348 82.787 18.689 81.843 17.755C81.197 17.106 80.869 16.8789 80.104 16.4959C78.802 15.8659 77.798 15.64 76.079 15.591C75.314 15.571 74.528 15.581 74.34 15.601ZM76.128 16.82C77.291 17.037 78.086 17.696 78.663 18.935C79.289 20.273 79.508 21.571 79.508 24.04C79.508 28.969 78.295 31.192 75.582 31.201C74.598 31.211 73.882 30.936 73.276 30.306C72.014 29.028 71.398 26.057 71.656 22.575C71.915 19.083 72.978 17.194 74.866 16.82C75.453 16.712 75.542 16.712 76.128 16.82Z" fill="#7C7C84"/>
<path d="M96.5222 15.748C95.2802 15.906 93.7492 16.584 92.4472 17.558C92.0502 17.853 91.6722 18.099 91.6232 18.099C91.5732 18.099 91.5332 17.637 91.5332 17.066V16.034H85.8682V17.096L86.3452 17.155C86.6042 17.194 86.9322 17.243 87.0912 17.273L87.3592 17.332V30.769L86.7922 30.828C86.1762 30.9 85.8682 31.12 85.8682 31.487V31.969H93.0242V31.477C93.0242 31.201 92.9942 30.985 92.9542 30.975C92.9052 30.965 92.5872 30.916 92.2292 30.847L91.5832 30.739V19.329L92.0802 19.004C92.3582 18.827 92.9342 18.542 93.3722 18.375C94.0572 18.099 94.2862 18.06 95.0612 18.05C96.0452 18.05 96.5022 18.217 97.0192 18.758C97.8042 19.575 97.9142 20.489 97.8742 26.264L97.8442 30.739L97.1982 30.847C96.8402 30.916 96.5222 30.965 96.4822 30.975C96.4332 30.985 96.4032 31.201 96.4032 31.477V31.969H103.559V31.487C103.559 31.12 103.254 30.903 102.644 30.838L102.078 30.769L102.048 25.044C102.018 19.378 102.008 19.319 101.78 18.64C101.472 17.706 101.173 17.224 100.577 16.693C99.9912 16.171 99.2452 15.866 98.2512 15.738C97.4562 15.63 97.3872 15.63 96.5222 15.748Z" fill="#7C7C84"/>
<path d="M35.1821 16.5152V16.9972L35.6591 17.0562C35.9175 17.0952 36.2455 17.1442 36.4045 17.1742L36.6729 17.2332L36.653 23.9812L36.6232 30.7382L35.9772 30.8462C35.6194 30.9152 35.3013 30.9652 35.2616 30.9742C35.2119 30.9842 35.1821 31.2012 35.1821 31.4762V31.9682H42.3477L42.3179 31.5152C42.2781 30.9742 42.2086 30.9152 41.4234 30.8372L40.847 30.7782V16.0332H35.1821V16.5152Z" fill="#7C7C84"/>
</svg>
