<svg width="125" height="42" viewBox="0 0 125 42" fill="none" xmlns="http://www.w3.org/2000/svg">
<path d="M30.9139 13.4025V28.9965C30.9109 30.2625 30.6659 31.5155 30.1909 32.6825C29.7169 33.8505 29.0239 34.9104 28.1509 35.8004C27.2789 36.6914 26.2439 37.3955 25.1059 37.8715C23.9689 38.3485 22.7509 38.5885 21.5229 38.5785H12.0419L13.8359 34.2945H21.5229C22.9039 34.3055 24.2319 33.7525 25.2179 32.7545C26.2029 31.7575 26.7649 30.3985 26.7789 28.9745V17.7155H16.1769C15.4949 17.7165 14.8209 17.8555 14.1919 18.1265C13.5629 18.3975 12.9929 18.7934 12.5129 19.2924C12.0339 19.7915 11.6549 20.3835 11.3979 21.0345C11.1409 21.6855 11.0119 22.3814 11.0169 23.0844V41.9344H6.78591V23.0844C6.79491 20.5194 7.78689 18.0624 9.54589 16.2484C11.3059 14.4354 13.6889 13.4115 16.1769 13.4025H22.5479V4.67746H14.6669C11.9119 4.67746 9.26989 5.80545 7.32189 7.81445C5.37289 9.82245 4.27889 12.5465 4.27889 15.3875V41.9344H0.171893V15.3585C0.168893 13.3955 0.540901 11.4504 1.2679 9.63544C1.9949 7.82044 3.0629 6.17145 4.4099 4.78345C5.7559 3.39545 7.35589 2.29446 9.11589 1.54446C10.8759 0.795464 12.7619 0.411459 14.6669 0.414459H26.7789V13.4025H30.9139ZM37.4299 7.08347V2.52145H41.0319C42.0079 2.52145 42.4929 3.27744 42.4929 4.87744C42.4929 6.30544 41.9109 7.08347 40.9349 7.08347H37.4299ZM37.4299 13.4025V9.11844H41.6619C44.0929 9.11844 45.1239 7.11244 45.1239 4.83444C45.1869 2.37144 44.2859 0.414459 41.6129 0.414459H35.0479V13.4025H37.4299ZM46.2319 10.9105C46.1969 11.9955 46.5409 13.0575 47.2019 13.9025L49.2799 13.0525C48.7749 12.4205 48.5269 11.6124 48.5869 10.7964V0.0644531H46.3019V10.9105H46.2319ZM56.0039 11.5964C55.4119 11.8084 54.7879 11.9104 54.1619 11.8954C52.7769 11.8954 52.4579 11.7464 52.4579 10.4674C52.4579 9.18944 52.9429 9.03946 54.1619 9.03946C54.7789 9.03246 55.3959 9.08245 56.0039 9.18945V11.5464V11.5964ZM58.1919 7.31244C58.1919 4.52744 56.8839 3.63446 54.1899 3.63446C52.9589 3.65746 51.7339 3.82546 50.5399 4.13446L50.9759 6.09146C51.8629 5.75446 52.8009 5.58446 53.7459 5.59146C55.6439 5.59146 56.0319 6.04144 56.0319 7.64044C55.2769 7.50244 54.5129 7.41844 53.7459 7.39044C51.6069 7.39044 50.1039 7.84744 50.1039 10.5534C50.1039 13.0594 51.0729 13.7595 53.9889 13.7595C55.4269 13.7225 56.8519 13.4695 58.2199 13.0095V7.33347L58.1919 7.31244ZM61.8419 5.98444C62.3819 5.83544 62.9389 5.76547 63.4969 5.77747C65.0549 5.77747 65.4429 6.27645 65.4429 8.38345V13.3814H67.6799V8.14044C67.6799 4.67744 66.5099 3.63446 63.9819 3.63446C62.4649 3.64846 60.9649 3.95345 59.5569 4.53445V13.4025H61.8419V5.98444ZM71.3299 5.98444C71.8669 5.83544 72.4219 5.76547 72.9779 5.77747C74.5359 5.77747 74.9239 6.27645 74.9239 8.38345V13.3814H77.1609V8.14044C77.1609 4.67744 75.9969 3.62744 73.4699 3.62744C71.9689 3.64544 70.4849 3.95047 69.0929 4.52747V13.4025H71.3299V5.98444ZM80.8109 7.53345C81.0039 5.98445 81.5029 5.53445 82.8879 5.53445C84.1549 5.53445 84.6399 5.83445 84.6889 7.53345H80.8109ZM85.8239 11.3464C84.9679 11.5974 84.0829 11.7325 83.1929 11.7465C81.6419 11.7465 80.8109 11.3465 80.8109 9.28946H86.7939C86.9879 4.67746 85.6719 3.62744 82.7569 3.62744C80.0829 3.63444 78.4279 4.82745 78.4279 8.63345C78.4279 12.4385 80.2769 13.7455 82.9499 13.7455C84.0449 13.7205 85.1299 13.5174 86.1639 13.1454L85.8239 11.3394V11.3464ZM94.0379 11.4894C93.4649 11.6284 92.8809 11.7115 92.2929 11.7385C90.6859 11.7385 90.1529 11.2395 90.1529 8.63345C90.1529 6.27645 90.6379 5.62744 92.1959 5.62744C93.2619 5.62744 94.0379 5.97646 94.0379 6.52646V11.5244V11.4894ZM96.2749 0.0644531H94.0379V4.17746C93.3629 3.81346 92.6109 3.62646 91.8489 3.63446C89.3699 3.63446 87.8119 4.83444 87.8119 8.74744C87.8119 12.6594 89.1969 13.7455 92.2929 13.7455C93.6469 13.7085 94.9879 13.4675 96.2749 13.0315V0.0644531ZM37.4299 24.3835V19.8214H41.0319C42.0079 19.8214 42.4929 20.5354 42.4929 22.1274C42.4929 23.7194 41.9109 24.3835 40.9349 24.3835H37.4299ZM37.4299 30.7524V26.4835H41.6619C44.0929 26.4835 45.1239 24.3765 45.1239 22.1995C45.1239 19.5925 44.2519 17.6865 41.5789 17.6865H35.0479V30.7675L37.4299 30.7524ZM51.7729 28.8965C51.1969 29.1135 50.5909 29.2315 49.9789 29.2465C48.5939 29.2465 48.2749 29.0465 48.2749 27.7465C48.2749 26.4475 48.6629 26.3185 49.9789 26.3185C50.5829 26.3025 51.1859 26.3705 51.7729 26.5185V28.8745V28.8965ZM53.9609 24.6125C53.9609 21.8065 52.7009 20.9565 49.9789 20.9565C48.7469 20.9655 47.5209 21.1335 46.3289 21.4565L46.6689 23.3124C47.5849 23.0434 48.5339 22.9085 49.4869 22.9135C51.4329 22.9135 51.7729 23.3125 51.7729 25.0125C51.0399 24.8325 50.2889 24.7485 49.5359 24.7625C47.3469 24.7625 45.8929 25.1695 45.8929 27.8755C45.8929 30.3315 46.8629 31.0315 49.7779 31.0315C51.1929 31.0385 52.5979 30.7974 53.9329 30.3174V24.6335L53.9609 24.6125ZM55.3249 30.7675H57.5619V24.1335C57.5619 23.4845 58.5869 23.0844 59.7019 23.0844C60.1129 23.0814 60.5219 23.1324 60.9209 23.2344V21.0284C60.5969 20.9884 60.2709 20.9725 59.9449 20.9785C58.5599 20.9785 57.9499 21.3774 57.5619 21.9774V21.2274H55.3249V30.7675ZM63.5939 24.8335C63.7879 23.2845 64.2869 22.7775 65.6719 22.7775C66.9389 22.7775 67.4239 23.1345 67.4719 24.8335H63.5939ZM68.6009 28.6255C67.7419 28.8525 66.8629 28.9864 65.9769 29.0244C64.3699 29.0244 63.5939 28.5755 63.5939 26.5685H69.5779C69.7229 21.9565 68.4559 20.9565 65.5399 20.9565C62.8669 20.9565 61.2119 22.1064 61.2119 25.8684C61.2119 29.8314 63.0609 30.9814 65.7339 30.9814C66.8219 30.9614 67.9019 30.7934 68.9469 30.4814L68.6009 28.6255ZM72.9779 23.2845C73.5109 23.1005 74.0709 23.0165 74.6329 23.0345C76.2399 23.0345 76.6279 23.5844 76.6279 25.6404V30.7675H78.8649V25.3904C78.8649 22.0274 77.7009 20.9785 75.1179 20.9785C73.6109 20.9995 72.1169 21.2695 70.6929 21.7775V30.7675H72.9779V23.2845ZM86.4059 23.2845V21.2274H83.3869V18.7214L81.1499 19.6215V21.2274H79.5989V23.2845H81.1499V27.5685C81.1499 30.3745 82.1749 31.0244 84.2179 31.0244C85.0769 31.0104 85.9289 30.8505 86.7389 30.5525L86.3509 28.7465C85.8409 28.8855 85.3189 28.9695 84.7929 28.9965C83.6779 28.9965 83.4079 28.5464 83.4079 27.3464V23.2845H86.4059ZM95.6929 25.2904C95.6929 21.7204 94.5299 21.0064 92.3409 21.0064C91.4499 21.0294 90.5719 21.2324 89.7579 21.6064V17.3224H87.5699V30.7675H89.7579V23.8845C89.7579 23.3345 90.6379 23.0345 91.6069 23.0345C92.9919 23.0345 93.4079 23.8844 93.4079 25.4904V30.7675H95.6929V25.2904ZM99.0519 25.9904C99.0519 23.2844 99.5369 22.8275 101.095 22.8275C102.653 22.8275 103.235 23.2844 103.235 25.9904C103.235 28.6964 102.75 29.0964 101.095 29.0964C99.4399 29.0964 99.0519 28.5964 99.0519 25.9904ZM96.7179 25.8904C96.7179 29.8534 98.1719 31.0024 101.095 31.0024C104.017 31.0024 105.52 29.8534 105.52 25.8904C105.52 22.0774 104.059 20.9785 101.095 20.9785C98.1309 20.9785 96.7179 22.0774 96.7179 25.8904ZM108.9 25.9904C108.9 23.2844 109.391 22.8275 110.977 22.8275C112.563 22.8275 113.055 23.2844 113.055 25.9904C113.055 28.6964 112.57 29.0964 110.977 29.0964C109.384 29.0964 108.9 28.5964 108.9 25.9904ZM106.614 25.8904C106.614 29.8534 107.999 31.0024 110.991 31.0024C113.983 31.0024 115.375 29.8534 115.375 25.8904C115.375 22.0774 113.913 20.9785 110.991 20.9785C108.069 20.9785 106.614 22.0774 106.614 25.8904ZM122.591 28.7465C121.991 28.9345 121.369 29.0354 120.742 29.0464C119.184 29.0464 118.699 28.5464 118.699 25.8904C118.699 23.5844 119.184 22.8845 120.742 22.8845C121.815 22.8845 122.591 23.2844 122.591 23.8344V28.7465ZM124.828 17.2654H122.591V21.5494C121.91 21.1524 121.135 20.9625 120.354 20.9995C117.923 20.9995 116.365 22.1494 116.365 25.9974C116.365 29.8454 117.75 30.9955 120.742 30.9955C122.134 31.0085 123.517 30.7665 124.828 30.2815V17.2654Z" fill="#7C7C84"/>
</svg>
