<svg width="123" height="30" viewBox="0 0 123 30" fill="none" xmlns="http://www.w3.org/2000/svg">
<path fill-rule="evenodd" clip-rule="evenodd" d="M66.0333 28.2379L69.0453 23.3959C63.7753 20.4699 60.2173 17.5439 58.5743 16.0459C61.9283 13.7819 65.4513 11.0289 68.9423 8.20789L65.5193 3.08691C63.1923 5.38691 59.2583 8.66093 56.4183 10.9249C56.4863 6.81393 56.6583 3.53994 56.6583 0.822937L51.3883 0.753906C51.3883 7.58191 51.1833 16.4299 51.1833 28.3079L56.4523 28.1689C56.4523 26.2179 56.3493 23.8489 56.3843 20.8879C58.0603 22.5259 63.0913 26.3569 66.0333 28.2379ZM32.2283 29.1789C30.9963 22.4559 29.1493 10.9249 27.8153 0.928894C25.5553 0.787894 22.2373 0.856921 19.9783 1.03192C18.9523 9.39292 16.8993 20.2609 15.2233 28.3769L20.6973 28.4129L21.6553 23.3269L25.7263 23.0819L26.6163 29.2489L32.2283 29.1789ZM101.105 28.1689C105.861 28.1689 108.052 24.2319 108.052 15.2799C108.052 7.61691 106.546 1.41492 100.968 1.41492C96.6913 1.41492 93.9883 5.0029 93.9883 14.4779C93.9883 23.1869 95.9383 28.1689 101.105 28.1689ZM122.696 28.7259L117.426 14.4789L122.764 1.9729L119.309 1.72791L115.613 11.4129L112.397 1.5199L108.872 1.65894L113.594 14.5129L108.564 27.9599L111.953 28.1689L115.441 17.5439L119.069 28.8659L122.696 28.7259ZM50.0213 26.4269C47.7283 23.2569 46.1883 20.7489 44.2733 16.7779C46.5653 15.3489 47.8643 12.8419 47.8643 9.70593C47.8643 5.97893 46.2563 1.55389 38.5583 1.55389C36.6423 1.55389 34.8293 1.65889 33.4943 1.83289C33.7673 10.2979 33.9733 19.2509 33.9733 28.2379L39.1743 28.1689C39.1743 24.7549 39.0033 21.3399 38.9343 18.0319H39.6873C41.2963 22.0029 43.5533 26.3919 44.9913 28.7959L50.0213 26.4269ZM14.9153 20.6799C14.9153 17.3699 13.3403 15.2799 11.1853 14.2689C13.1003 13.0849 14.1964 10.8909 14.1964 8.52094C14.1964 4.30593 11.6303 1.62494 6.12134 1.62494C4.68434 1.62494 1.60433 1.8329 0.236328 2.0069C0.680328 9.8109 0.988339 20.1569 1.09134 28.3079C1.94734 28.3429 3.07635 28.3769 4.85535 28.3769C11.0483 28.3769 14.9153 26.4969 14.9153 20.6799ZM92.0383 21.3069C92.0383 18.5539 90.6013 16.3249 87.7953 15.2109C90.2243 13.9559 91.3543 11.5879 91.3543 8.62592C91.3543 3.08692 87.0434 1.5199 79.5154 2.0069C79.5493 10.7169 79.4813 19.5299 79.1393 28.3769C87.4883 29.2489 92.0383 27.1579 92.0383 21.3069ZM101.208 25.2779C98.6073 25.2779 97.2743 21.4459 97.2743 14.3039C97.2743 7.92889 98.5733 4.27191 100.866 4.27191C103.535 4.27191 104.801 8.48692 104.801 15.4539C104.801 21.8979 103.671 25.2779 101.208 25.2779ZM88.0693 8.87091C88.0693 12.0399 86.5303 13.6769 82.6283 13.8159C82.6963 10.7859 82.7993 7.75491 82.8683 4.75891C86.4613 4.72391 88.0693 6.08291 88.0693 8.87091ZM6.22333 6.08289C8.20833 6.08289 9.13232 7.30189 9.13232 9.00989C9.13232 11.2039 7.69535 12.2839 5.50635 12.4579C5.43735 10.2289 5.36932 8.06889 5.30032 6.15289C5.60732 6.11789 5.91533 6.08289 6.22333 6.08289ZM42.8353 9.60089C42.8353 12.0049 41.5353 13.3289 39.1743 13.3289H38.9003C38.8663 10.7509 38.9003 8.3469 38.9343 6.2569C39.1403 6.2229 39.3793 6.2229 39.6193 6.2229C41.6383 6.2229 42.8353 7.47589 42.8353 9.60089ZM23.2293 7.33789H24.0844L25.8983 18.2769L21.5523 18.6939L23.2293 7.33789ZM68.0183 16.0819C70.7593 14.6329 73.4743 13.1349 76.1623 11.5889C75.8883 10.9959 75.2723 9.7769 74.8963 9.1499C72.2423 10.7729 69.5504 12.3299 66.8214 13.8169C67.0954 14.4789 67.7103 15.6289 68.0183 16.0819ZM88.7533 21.3079C88.7533 24.5469 87.0083 25.8709 82.4243 25.6609C82.4583 22.6659 82.5263 19.6359 82.5943 16.6039C86.7003 16.7429 88.7533 18.3459 88.7533 21.3079ZM6.90833 16.7409C9.13233 16.7409 9.85135 18.5179 9.85135 20.1909C9.85135 22.6289 8.37934 23.7429 5.98434 23.7789C5.88134 21.6879 5.77833 19.3549 5.67633 16.9499C6.07533 16.8179 6.49032 16.7479 6.90833 16.7409ZM69.4213 19.4239C71.3743 20.0519 73.3493 20.6099 75.3403 21.0959C75.5113 20.4339 75.7853 19.2499 75.9223 18.5179C74.0403 18.0649 71.9543 17.5429 70.1053 16.9849C69.9353 17.4739 69.5243 18.9019 69.4213 19.4239Z" fill="#7C7C84"/>
</svg>
