<svg width="61" height="33" viewBox="0 0 61 33" fill="none" xmlns="http://www.w3.org/2000/svg">
<path d="M54.911 16.611C54.911 16.564 54.9 16.516 54.874 16.47C54.529 15.839 52.621 12.286 48.022 12.285C44.963 12.285 42.506 14.073 41.176 16.47C41.151 16.514 41.14 16.561 41.14 16.607C41.14 16.747 41.247 16.871 41.386 16.872H54.663C54.806 16.872 54.911 16.749 54.911 16.611ZM60.601 20.087C60.601 20.338 60.591 20.586 60.578 20.832C60.565 21.016 60.4 21.17 60.213 21.17H40.682C40.496 21.17 40.358 21.305 40.358 21.48L40.364 21.545C41.049 25.152 44.216 27.89 48.022 27.891C49.962 27.891 51.737 27.173 53.1 25.996C53.245 25.873 53.521 25.761 53.711 25.761H58.92C59.056 25.763 59.126 25.828 59.127 25.923C59.127 25.96 59.116 26.001 59.092 26.047C56.965 29.985 52.8 32.666 48.022 32.666C44.552 32.666 41.407 31.256 39.13 28.978C36.853 26.7 35.442 23.556 35.442 20.087C35.442 16.727 36.752 13.569 39.125 11.192C41.5 8.81802 44.662 7.50897 48.022 7.50897C51.49 7.50897 54.635 8.91902 56.912 11.197C59.19 13.475 60.601 16.619 60.601 20.087ZM31.905 0.0219727H27.798C27.599 0.0219727 27.439 0.182028 27.439 0.379028V32.331C27.439 32.529 27.599 32.688 27.798 32.688H31.905C32.1 32.688 32.26 32.529 32.26 32.331V0.379028C32.26 0.182028 32.1 0.0219727 31.905 0.0219727ZM20.96 0C19.431 0 18.193 1.23699 18.193 2.76599C18.193 4.29199 19.431 5.53497 20.96 5.53497C22.489 5.53497 23.725 4.29199 23.725 2.76599C23.725 1.23699 22.489 0 20.96 0ZM23.014 7.47101H18.904C18.706 7.47101 18.548 7.632 18.548 7.828V32.335C18.548 32.533 18.706 32.692 18.904 32.692H23.014C23.211 32.692 23.37 32.533 23.37 32.335V7.828C23.37 7.632 23.211 7.47101 23.014 7.47101ZM14.707 7.82898V11.936C14.707 12.132 14.547 12.292 14.35 12.292H4.81699V20.087C4.81699 24.379 8.307 27.869 12.599 27.869H14.35C14.548 27.869 14.707 28.03 14.707 28.225V32.331C14.707 32.529 14.548 32.688 14.35 32.688H12.599C5.652 32.688 0 27.036 0 20.087V0.377991C0 0.180991 0.159988 0.0219727 0.355988 0.0219727H4.46201C4.66101 0.0219727 4.81699 0.180991 4.81699 0.377991V7.47101H14.35C14.547 7.47101 14.707 7.62998 14.707 7.82898Z" fill="#7C7C84"/>
</svg>
