<svg width="91" height="24" viewBox="0 0 91 24" fill="none" xmlns="http://www.w3.org/2000/svg">
<path d="M18.204 22.7739V5.8393L14.034 22.7739H9.31702L5.20001 5.7885V22.7739H0V0H8.51099L11.937 14.3999L15.405 0H23.836V22.7739H18.202H18.204ZM61.981 22.7739H67.616V0H59.183L55.714 14.3999L52.286 0H43.777V22.7739H48.977V5.7885L53.094 22.7739H57.811L61.981 5.8393V22.7739ZM31.101 14.5528V15.3132C31.101 18.2017 32.237 19.3839 33.785 19.3839C35.389 19.3839 36.523 18.2013 36.523 15.3132V14.5528C36.523 11.613 35.389 10.4838 33.785 10.4838C32.237 10.4838 31.101 11.613 31.101 14.5528ZM25.763 14.7521C25.763 9.6188 29.547 6.8025 33.708 6.8025C37.929 6.8025 41.853 9.6223 41.853 14.7565V15.0911C41.853 20.3374 37.928 23.0998 33.708 23.0998C29.543 23.0998 25.759 20.3369 25.759 15.0907V14.7552L25.763 14.7521ZM83.792 18.8338H75.852L74.616 22.7739H69.308L76.611 0H83.658L90.552 22.7739H84.973L83.794 18.8338H83.792ZM79.969 5.5122L77.278 14.456H82.537L79.969 5.5122Z" fill="#7C7C84"/>
</svg>
