<svg width="123" height="25" viewBox="0 0 123 25" fill="none" xmlns="http://www.w3.org/2000/svg">
<path fill-rule="evenodd" clip-rule="evenodd" d="M42.6736 12.5038C43.3166 11.7688 43.6836 10.7588 43.6836 9.56482C43.6836 6.53382 41.1116 4.42084 37.8056 4.42084H31.5596V21.7808H39.7346C43.0406 21.7808 45.6126 19.6678 45.6126 16.6368C45.6126 14.6168 44.4186 13.1468 42.6736 12.5038ZM35.9686 8.27887H37.6216C38.7236 8.27887 39.3666 8.92184 39.3666 9.83984C39.3666 10.7588 38.7236 11.4019 37.6216 11.4019H35.9686V8.27887ZM39.4586 18.0148H35.9686V14.9838H39.4586C40.4686 14.9838 41.2036 15.4429 41.2036 16.5449C41.2036 17.6469 40.4686 18.0148 39.4586 18.0148ZM47.8166 2.03284H52.3176V21.7808H47.8166V2.03284ZM55.2566 8.64581H59.7566V21.7808H55.2566V8.64581ZM57.4606 1.29883C55.8996 1.29883 54.7056 2.49285 54.7056 3.96185C54.7056 5.43185 55.8996 6.62585 57.4606 6.62585C59.0216 6.62585 60.2156 5.43185 60.2156 3.96185C60.3076 2.49285 59.0216 1.29883 57.4606 1.29883ZM70.5946 8.37085C69.0336 8.37085 67.7476 8.92184 66.9206 9.74884V8.64581H62.7876V21.7808H67.2886V14.3408C67.2886 13.1468 68.1146 12.4119 69.2166 12.4119C70.3196 12.4119 71.1456 13.1468 71.1456 14.3408V21.7808H75.6466V13.6978C75.5546 10.4828 73.6256 8.37085 70.5946 8.37085ZM92.2706 8.64581H87.0356L82.9946 13.9738V2.03284H78.4016V21.7808H82.9946V14.8918L87.6786 21.7808H92.6386L87.7706 14.5248L92.2706 8.64581ZM94.1076 8.64581H98.6086V21.7808H94.1076V8.64581ZM96.3116 1.29883C94.7506 1.29883 93.5566 2.49285 93.5566 3.96185C93.5566 5.43185 94.7506 6.62585 96.3116 6.62585C97.8736 6.62585 99.0676 5.43185 99.0676 3.96185C99.0676 2.49285 97.8736 1.29883 96.3116 1.29883ZM107.61 13.6058L106.324 13.0549C105.681 12.7799 105.405 12.6878 105.405 12.3198C105.405 11.9528 105.773 11.8608 106.324 11.8608C107.334 11.8608 108.253 12.2278 109.079 12.9628L111.192 10.2078C109.906 8.82982 108.161 8.27887 106.232 8.27887C103.201 8.27887 101.088 9.83986 101.088 12.4119C101.088 14.6169 102.466 15.6268 104.946 16.6368L106.416 17.2798C106.875 17.4638 107.15 17.6469 107.15 17.9229C107.15 18.3819 106.599 18.4738 105.956 18.4738C104.67 18.4738 103.385 17.9229 102.282 16.8209L100.17 19.4838C101.364 21.1378 103.476 21.9639 105.864 21.9639C108.987 21.9639 111.283 20.4028 111.283 17.5558C111.467 15.5348 109.998 14.5248 107.61 13.6058ZM121.111 18.0148C119.458 18.0148 118.815 17.5558 118.815 16.2698V12.4119H122.305V8.64581H118.815V5.52386H114.314V8.64581H112.294V12.4119H114.314V16.7288C114.314 20.3108 116.427 22.0558 120.101 22.0558C121.111 22.0558 122.03 21.9638 122.764 21.7808V18.0148H121.111Z" fill="#7C7C84"/>
<path fill-rule="evenodd" clip-rule="evenodd" d="M13.2828 6.07544L18.7018 0.564453C22.8348 2.58545 25.6818 6.90145 25.6818 11.8615C25.6818 18.8414 20.0788 24.4445 13.2828 24.4445C6.39381 24.4445 0.882812 18.7505 0.882812 11.8615C0.882812 6.90145 3.72983 2.58545 7.86383 0.564453L13.2828 6.07544ZM13.3738 6.07544L16.5888 9.38147C18.4258 11.2185 18.4258 14.2494 16.6808 16.0864C14.8438 17.9234 11.9048 17.9234 10.0678 16.0864C8.23081 14.2494 8.23081 11.2185 10.0678 9.38147L13.3738 6.07544Z" fill="#7C7C84"/>
</svg>
