<svg width="153" height="14" viewBox="0 0 153 14" fill="none" xmlns="http://www.w3.org/2000/svg">
<path d="M0.926025 13.8689V0.128906H12.527V2.8819H3.83197V5.63489H9.62V8.38791H3.83197V11.1159H12.552V13.8689H0.926025Z" fill="#7C7C84"/>
<path d="M24.3911 13.8689L18.894 0.128906H21.837L25.8011 9.89789L29.6931 0.128906H32.6351L27.1631 13.8689H24.3911Z" fill="#7C7C84"/>
<path d="M40.0339 13.8689V0.128906H52.718V2.8819H43.184V5.63489H49.512V8.38791H43.184V11.1159H52.718V13.8689H40.0339Z" fill="#7C7C84"/>
<path d="M70.6279 7.8519L72.65 13.8689H69.7039L67.856 8.38791H62.9379V13.8689H60.1169V0.128906H68.556C69.704 0.128906 70.7779 0.542899 71.5759 1.3219C72.3749 2.1019 72.8249 3.1499 72.7999 4.2699C72.8249 5.7559 71.9759 7.1449 70.6279 7.8519ZM62.9379 5.60989H68.556C68.93 5.60989 69.28 5.46389 69.554 5.19589C69.829 4.92789 69.9789 4.58689 69.9789 4.22189C69.9789 3.44189 69.354 2.83292 68.556 2.83292H62.9379V5.60989Z" fill="#7C7C84"/>
<path d="M80.2 13.8689V0.128906H83.5259V11.1159H91.827V13.8689H80.2Z" fill="#7C7C84"/>
<path d="M108.308 11.1159H101.798L100.507 13.8689H97.1121L103.453 0.128906H106.624L112.966 13.8689H109.571L108.308 11.1159ZM107.017 8.38791L105.025 4.09991L103.033 8.38791H107.017Z" fill="#7C7C84"/>
<path d="M131.992 0.128906V13.8689H129.401L122.957 4.73291V13.8689H120.365V0.128906H122.957L129.424 9.26489V0.128906H131.992Z" fill="#7C7C84"/>
<path d="M140.448 13.8689V0.128906H152.075V2.8819H143.335V5.63489H149.136V8.38791H143.335V11.1159H152.075V13.8689H140.448Z" fill="#7C7C84"/>
</svg>
