<svg width="151" height="16" viewBox="0 0 151 16" fill="none" xmlns="http://www.w3.org/2000/svg">
<path d="M137.106 4.19165V12.3787C137.106 14.3347 138.683 15.9507 140.601 15.9507C142.177 15.9507 143.413 14.9857 143.859 13.6047L144.227 14.2557C144.883 15.3507 146.04 15.9507 147.222 15.9507C149.14 15.9507 150.664 14.4386 150.664 12.5096C150.664 11.8576 150.507 11.2317 150.139 10.6577L148.772 8.49365C149.771 7.73765 150.375 6.53867 150.375 5.07867C150.375 2.39267 148.22 0.306641 145.462 0.306641H140.916C138.446 0.306641 137.106 1.63665 137.106 4.19165Z" fill="#7C7C84"/>
<path d="M136.064 12.9537C136.064 11.4547 135.105 10.3236 133.783 10.0616C134.379 9.66665 134.742 9.00966 134.742 8.14166C134.742 7.27466 134.406 6.61666 133.783 6.22266C135.131 5.95966 136.064 4.85563 136.064 3.33063C136.064 1.64763 134.717 0.306641 133.084 0.306641H127.643C125.156 0.306641 123.809 1.64767 123.809 4.19867V12.0596C123.809 14.6356 125.156 15.9507 127.643 15.9507H133.084C134.717 15.9767 136.064 14.6357 136.064 12.9537Z" fill="#7C7C84"/>
<path d="M119.585 12.4307V7.03363C121.332 6.95563 122.766 5.49565 122.766 3.67065C122.766 1.79365 121.253 0.306641 119.403 0.306641H112.311C110.459 0.306641 108.947 1.76765 108.947 3.67065C108.947 5.49565 110.381 6.92963 112.128 7.03363V12.4307C112.128 14.3607 113.771 15.9507 115.805 15.9507C117.969 15.9507 119.585 14.3607 119.585 12.4307Z" fill="#7C7C84"/>
<path d="M95.1289 4.19165V12.3787C95.1289 14.3347 96.7049 15.9507 98.6239 15.9507C100.2 15.9507 101.435 14.9857 101.881 13.6047L102.249 14.2557C102.907 15.3507 104.063 15.9507 105.245 15.9507C107.163 15.9507 108.687 14.4386 108.687 12.5096C108.687 11.8576 108.529 11.2317 108.161 10.6577L106.795 8.49365C107.793 7.73765 108.398 6.53867 108.398 5.07867C108.398 2.39267 106.243 0.306641 103.485 0.306641H98.9389C96.4959 0.306641 95.1289 1.63665 95.1289 4.19165Z" fill="#7C7C84"/>
<path d="M86.5038 12.9709C87.3938 14.8099 88.6497 15.6899 90.1927 15.6899C92.9667 15.6899 94.9277 13.1779 93.7247 10.3549L90.5068 2.89587C89.7218 1.05687 88.5447 0.046875 86.5307 0.046875C84.5417 0.046875 83.3648 1.05687 82.5538 2.89587L79.3357 10.3549C78.1057 13.1779 80.0947 15.6899 82.8417 15.6899C84.3587 15.6899 85.6148 14.8099 86.5038 12.9709Z" fill="#7C7C84"/>
<path d="M77.3409 12.4307V7.03363C79.0909 6.95563 80.528 5.49565 80.528 3.67065C80.528 1.79365 79.014 0.306641 77.158 0.306641H70.0789C68.2249 0.306641 66.71 1.76765 66.71 3.67065C66.71 5.49565 68.1459 6.92963 69.8969 7.03363V12.4307C69.8969 14.3607 71.542 15.9507 73.58 15.9507C75.696 15.9507 77.3409 14.3607 77.3409 12.4307Z" fill="#7C7C84"/>
<path d="M66.7103 10.8759C66.7103 9.30692 65.9263 8.20793 64.7503 7.16193L63.7833 6.29889C65.1943 6.08889 66.1353 5.14793 66.1353 3.76093C66.1353 1.43293 64.2803 0.046875 60.3613 0.046875C56.5203 0.046875 54.2733 1.98291 54.2733 5.04291C54.2733 6.61291 55.0833 7.68487 56.2593 8.75787L57.1993 9.62091H57.1733C55.4233 9.62091 54.1953 10.6409 54.1953 12.2369C54.1953 14.5389 56.1283 15.9509 60.2563 15.9509C64.3063 15.9509 66.7103 13.9889 66.7103 10.8759Z" fill="#7C7C84"/>
<path d="M53.413 12.1879C53.413 11.4619 53.202 10.7609 52.755 10.1379L51.07 7.8299L52.755 5.52087C53.202 4.92387 53.413 4.19789 53.413 3.47089C53.413 1.55089 51.807 0.072876 49.913 0.072876C48.807 0.072876 47.702 0.617903 47.018 1.5509L46.202 2.69287C45.886 1.16187 44.544 0.046875 42.833 0.046875C40.86 0.046875 39.333 1.60289 39.333 3.52289V12.2139C39.333 14.1339 40.886 15.6899 42.833 15.6899C44.518 15.6899 45.834 14.6519 46.176 13.1479L46.912 14.1849C47.597 15.1709 48.728 15.6899 49.834 15.6899C51.807 15.7159 53.413 14.1079 53.413 12.1879Z" fill="#7C7C84"/>
<path d="M38.0299 11.3909C38.0299 9.73293 37.1999 8.5679 35.5409 7.8689C37.1999 7.1689 38.0299 6.02989 38.0299 4.34589C38.0299 1.83389 35.9299 0.046875 32.5609 0.046875C28.0499 0.046875 24.7329 3.3879 24.7329 7.8689C24.7329 12.3489 28.0499 15.6899 32.5609 15.6899C35.9299 15.6899 38.0299 13.9029 38.0299 11.3909Z" fill="#7C7C84"/>
<path d="M19.6612 0.046875C17.5542 0.046875 15.8682 1.76188 15.8682 3.78888V11.9479C15.8682 14.0009 17.5542 15.6899 19.6352 15.6899C21.7692 15.6899 23.4291 13.9749 23.4291 11.9479V3.78888C23.4551 1.76188 21.7692 0.046875 19.6612 0.046875Z" fill="#7C7C84"/>
<path d="M14.8251 12.1879C14.8251 11.4619 14.6151 10.7609 14.1681 10.1379L12.4871 7.8299L14.1681 5.52087C14.6151 4.92387 14.8251 4.19789 14.8251 3.47089C14.8251 1.55089 13.2231 0.072876 11.3311 0.072876C10.2281 0.072876 9.12508 0.617903 8.44208 1.5509L7.6011 2.69287C7.2861 1.16187 5.94711 0.046875 4.23911 0.046875C2.26911 0.046875 0.746094 1.60289 0.746094 3.52289V12.2139C0.746094 14.1339 2.29511 15.6899 4.23911 15.6899C5.9201 15.6899 7.2341 14.6519 7.5751 13.1479L8.3111 14.1849C8.9941 15.1709 10.1231 15.6899 11.2261 15.6899C13.2231 15.7159 14.8251 14.1079 14.8251 12.1879Z" fill="#7C7C84"/>
</svg>
