<svg width="126" height="54" viewBox="0 0 126 54" fill="none" xmlns="http://www.w3.org/2000/svg">
<path d="M23.2429 22.5267C18.1589 28.6086 9.29489 28.4947 4.24489 23.3649C-0.941114 18.0962 -0.941099 9.63159 4.2729 4.36059C9.3839 -0.807913 18.2729 -0.819312 23.2539 5.22619C23.6009 4.27179 23.9329 3.35609 24.2659 2.43809C24.3109 2.31279 24.3449 2.18299 24.3999 2.06449C24.6049 1.62489 24.9469 1.37888 25.4389 1.44488C25.9259 1.51098 26.2109 1.82989 26.3039 2.30139C26.3429 2.50189 26.3249 2.71599 26.3249 2.92549C26.3249 10.6589 26.2719 18.3923 26.3479 26.1257C26.3889 30.3535 24.6119 33.5402 21.1179 35.7247C16.1859 38.8112 10.9629 39.1962 5.56691 36.9821C5.33891 36.8887 5.11591 36.7771 4.90791 36.6495C4.18591 36.2099 4.07689 35.6268 4.57289 34.9411C5.53889 33.6131 5.51891 33.6678 7.09291 34.235C11.8079 35.9365 16.2749 35.4878 20.3359 32.4468C22.2999 30.9753 23.2999 28.9503 23.2499 26.4492C23.2249 25.1872 23.2449 23.9253 23.2449 22.5244L23.2429 22.5267ZM13.3359 3.75239C7.80589 3.74559 3.46189 8.15778 3.44789 13.7933C3.43389 19.472 7.80987 24.0005 13.3159 24.0096C18.8629 24.0187 23.2409 19.5427 23.2409 13.8594C23.2409 8.21709 18.8719 3.75699 13.3359 3.75239Z" fill="#7C7C84"/>
<path d="M85.7779 22.5579C85.7779 22.8928 85.7779 23.0978 85.7779 23.3005C85.7779 27.7925 85.7779 32.2845 85.7779 36.7742C85.7779 38.1136 85.5359 38.3505 84.1759 38.3482C84.0049 38.3482 83.8349 38.3573 83.6639 38.3436C83.1169 38.2958 82.7979 37.9906 82.7089 37.4575C82.6749 37.2548 82.6889 37.043 82.6889 36.8334C82.6889 25.5374 82.6889 14.2437 82.6889 2.94771C82.6889 1.96371 82.9319 1.53311 83.5409 1.43521C84.1029 1.34411 84.4429 1.65841 84.7819 2.58321C85.1009 3.45111 85.4199 4.31901 85.7709 5.27341C88.6949 1.93401 92.2849 0.28031 96.6839 0.61971C100.042 0.87941 102.882 2.28031 105.167 4.75181C109.905 9.87701 109.877 17.7835 105.208 22.9702C100.855 27.8062 91.8459 29.3779 85.7779 22.5557V22.5579ZM85.7779 14.0774C85.9419 19.7288 90.5179 24.1616 96.0229 24.0067C101.468 23.8541 105.814 19.1753 105.641 13.6514C105.465 8.07751 100.862 3.60141 95.4649 3.75631C89.9299 3.91581 85.6159 8.51031 85.7779 14.0774Z" fill="#7C7C84"/>
<path d="M63.149 6.08932C64.099 7.15312 64.821 8.36263 65.293 9.71343C67.561 16.219 64.413 23.7543 57.985 26.4353C51.279 29.2326 43.801 26.0253 41.045 19.2213C38.293 12.4264 41.35 4.79093 48.058 1.86843C50.78 0.681626 53.621 0.465225 56.507 1.31493C56.937 1.44243 57.122 1.65433 57.101 2.12133C57.065 2.91403 57.0919 3.70673 57.0919 4.54953C56.9279 4.52213 56.8169 4.52442 56.7249 4.48342C52.8579 2.76822 47.691 4.26252 44.981 7.97082C40.641 13.9024 43.6139 22.3351 50.7299 24.1939C56.2579 25.6358 62.2379 21.6654 62.9439 16.0004C63.1239 14.5494 62.99 13.0573 62.992 11.5836C62.996 9.77263 62.992 7.95952 62.992 6.14852C63.044 6.13032 63.0939 6.11442 63.1469 6.09622L63.149 6.08932Z" fill="#7C7C84"/>
<path d="M118.378 27.4396C116.046 27.4214 114.032 26.6355 112.167 25.4488C111.306 24.9021 110.499 24.2643 109.709 23.6173C108.905 22.9568 108.907 22.5217 109.618 21.7859C110.845 20.5149 110.852 20.5263 112.212 21.6561C113.823 22.9932 115.579 24.0957 117.716 24.2893C119.567 24.4579 121.251 24.0182 122.29 22.2916C123.381 20.4761 122.998 18.4078 121.264 17.2074C120.326 16.5582 119.239 16.114 118.196 15.6334C116.804 14.991 115.367 14.4466 113.989 13.7792C111.454 12.5469 110.319 10.4672 110.392 7.66544C110.492 3.80214 112.757 1.36704 116.618 0.920641C119.54 0.583441 122.128 1.36934 124.506 3.00254C125.062 3.38524 125.128 3.73834 124.772 4.30554C124.581 4.61074 124.381 4.90914 124.178 5.20754C123.772 5.80434 123.383 5.87724 122.727 5.54694C121.884 5.12104 121.053 4.65404 120.169 4.33974C118.795 3.84994 117.367 3.87734 115.968 4.26684C113.46 4.96154 112.599 8.19164 114.385 10.1323C115.205 11.023 116.292 11.474 117.365 11.9569C119.123 12.7496 120.957 13.4216 122.597 14.4124C126.362 16.6835 127.112 21.6242 124.299 24.9408C122.734 26.7836 120.618 27.3667 118.376 27.4419L118.378 27.4396Z" fill="#7C7C84"/>
<path d="M76.4681 23.469C74.3081 25.9063 71.7301 27.2457 68.4841 27.1706C66.3401 27.1204 64.2991 26.7924 62.5571 25.3597C63.2631 24.5237 63.9531 23.7082 64.6661 22.8654C64.7641 22.9109 64.8851 22.9565 64.9961 23.018C69.4361 25.4098 74.2541 23.4553 75.6861 18.6194C76.0051 17.5443 76.1631 16.3894 76.1781 15.2664C76.2351 11.1343 76.2041 7.00218 76.1971 2.87018C76.1971 2.31438 76.2241 1.72889 76.8281 1.53989C77.5111 1.32579 78.2721 1.21188 78.8961 1.69248C79.1211 1.86558 79.2541 2.27558 79.2721 2.58538C79.3201 3.49198 79.2901 4.40548 79.2901 5.31428C79.2901 11.8928 79.2901 18.4691 79.2901 25.0476C79.2901 25.9952 79.0551 26.4257 78.4811 26.5396C77.8441 26.6649 77.5131 26.3847 77.1721 25.428C76.9481 24.8061 76.7251 24.182 76.4681 23.469Z" fill="#7C7C84"/>
<path d="M32.4391 4.40292C32.8811 3.92912 33.2291 3.50312 33.6281 3.13412C35.6461 1.26622 38.033 0.382416 40.79 0.505416C41.437 0.535016 41.714 0.797017 41.746 1.45302C41.765 1.84942 41.762 2.24802 41.751 2.64662C41.728 3.41432 41.4731 3.67622 40.7101 3.66032C39.4621 3.63522 38.2431 3.76732 37.1271 4.37102C34.6011 5.74002 33.4251 8.01562 32.9381 10.7262C32.8351 11.3003 32.819 11.8948 32.819 12.4802C32.81 16.7057 32.8151 20.9334 32.8151 25.1589C32.8151 26.2158 32.4731 26.5621 31.4301 26.5689C31.1841 26.5689 30.9361 26.5757 30.6921 26.5552C30.1251 26.5051 29.7921 26.1771 29.7371 25.6167C29.7191 25.4277 29.7281 25.2386 29.7281 25.0495C29.7281 17.6783 29.7281 10.3048 29.7281 2.93362C29.7281 1.96332 29.9881 1.51682 30.5941 1.43712C31.1361 1.36642 31.5001 1.71502 31.7941 2.57142C31.9881 3.13862 32.193 3.70132 32.441 4.40742L32.4391 4.40292Z" fill="#7C7C84"/>
<path d="M59.1741 20.2815C58.6161 19.6278 58.4341 18.8738 58.4341 18.0879C58.4201 12.9149 58.4201 7.7395 58.4221 2.5665C58.4221 1.7852 58.8371 1.407 59.6361 1.3979C61.2791 1.3774 61.4591 1.5597 61.4591 3.2134C61.4591 7.2498 61.4611 11.2862 61.4591 15.3249C61.4591 16.9809 60.3931 19.2998 59.1761 20.2838L59.1741 20.2815Z" fill="#7C7C84"/>
<path d="M81.6041 43.8767C81.6181 43.797 81.6291 43.731 81.6411 43.6649C81.7001 43.2936 81.8981 43.0772 82.2901 43.1045C82.7161 43.1319 82.8731 43.4075 82.8731 43.797C82.8751 45.2936 82.8851 46.7879 82.8731 48.2847C82.8661 49.0587 82.8801 49.8407 82.7821 50.6057C82.5771 52.1957 81.4811 53.1137 79.8781 53.1477C78.9351 53.1677 78.0331 53.0137 77.1741 52.6147C76.7981 52.4417 76.4771 52.2347 76.6981 51.7607C76.9051 51.3117 77.2511 51.4667 77.6201 51.5597C78.3291 51.7377 79.0531 51.9497 79.7731 51.9627C80.9161 51.9837 81.5451 51.3117 81.6251 50.1707C81.6481 49.8337 81.6292 49.4917 81.6292 49.0297C80.8322 49.7267 79.9781 50.0607 78.9921 49.9447C78.0101 49.8287 77.2471 49.3367 76.7001 48.5257C75.8071 47.1997 75.9831 45.1045 77.0621 43.9906C78.2581 42.756 79.7871 42.7127 81.6041 43.8767ZM81.6391 46.5282C81.6391 46.1683 81.6521 45.8084 81.6321 45.4507C81.6231 45.2936 81.5861 45.1045 81.4931 44.9883C80.8961 44.2503 79.7231 43.9473 78.8031 44.2617C78.0101 44.5328 77.5481 45.0863 77.4201 45.904C77.2761 46.822 77.3431 47.7147 78.1311 48.3367C78.8711 48.9227 79.7251 48.9727 80.6001 48.6287C81.4591 48.2887 81.8031 47.6627 81.6411 46.7537C81.6271 46.6808 81.6411 46.6034 81.6411 46.5259L81.6391 46.5282Z" fill="#7C7C84"/>
<path d="M99.299 44.0136C99.928 43.6879 100.463 43.3006 101.06 43.1252C102.673 42.6491 104.11 43.7106 104.169 45.394C104.212 46.6992 104.181 48.0069 104.185 49.3119C104.185 49.7449 103.987 50.0109 103.545 50.0069C103.087 50.0019 102.939 49.6899 102.939 49.2779C102.939 48.1229 102.946 46.968 102.937 45.8131C102.925 44.3735 101.966 43.7425 100.654 44.3393C99.8069 44.7243 99.1759 45.2528 99.2809 46.3598C99.3719 47.3169 99.292 48.2889 99.304 49.2549C99.308 49.6989 99.1669 50.0159 98.6749 50.0089C98.2149 50.0019 98.0759 49.6809 98.0759 49.2729C98.0759 46.4896 98.0759 43.7061 98.0759 40.9225C98.0759 40.4965 98.2119 40.1549 98.7109 40.1663C99.2169 40.1776 99.304 40.5307 99.301 40.9567C99.292 41.9908 99.299 43.0227 99.299 44.0159V44.0136Z" fill="#7C7C84"/>
<path d="M17.131 46.9918C17.259 48.1787 17.974 48.9057 19.122 48.9117C19.769 48.9167 20.425 48.7477 21.058 48.5837C21.423 48.4907 21.746 48.3877 21.935 48.7867C22.131 49.1967 21.8331 49.4137 21.5121 49.5797C20.3591 50.1767 19.147 50.2427 17.924 49.8797C16.897 49.5777 16.202 48.8457 16.018 47.8167C15.874 47.0167 15.847 46.1422 16.011 45.3518C16.357 43.6912 17.8011 42.8097 19.5281 43.0374C21.0991 43.2447 22.245 44.6228 22.222 46.2584C22.216 46.7959 21.933 46.9941 21.432 46.9918C20.013 46.9873 18.5941 46.9918 17.1291 46.9918H17.131ZM20.956 45.9486C20.876 44.7664 20.09 44.0329 18.99 44.0557C17.929 44.0762 17.147 44.8666 17.143 45.9486H20.956Z" fill="#7C7C84"/>
<path d="M85.987 46.9917C86.101 48.1535 86.798 48.8825 87.923 48.9075C88.568 48.9215 89.228 48.7615 89.864 48.6025C90.238 48.5085 90.588 48.3565 90.791 48.7915C91.001 49.2395 90.643 49.4355 90.313 49.6065C89.192 50.1785 88.014 50.2305 86.83 49.9005C85.9 49.6405 85.256 49.0125 84.939 48.0875C84.6 47.0875 84.593 46.0782 84.935 45.0782C85.418 43.6591 86.568 42.9302 88.158 43.0213C89.55 43.101 90.668 44.0441 90.964 45.4199C91.24 46.7001 91.149 47.0555 89.72 47.0035C88.493 46.9575 87.26 46.9939 85.987 46.9939V46.9917ZM89.812 45.9416C89.764 44.8094 88.953 44.0418 87.862 44.0532C86.796 44.0646 86.005 44.8505 85.994 45.9416H89.812Z" fill="#7C7C84"/>
<path d="M107.26 46.9914C107.292 48.0962 108.032 48.8842 109.162 48.9052C109.825 48.9182 110.502 48.7412 111.155 48.5812C111.49 48.5012 111.807 48.3742 112 48.7382C112.203 49.1192 111.987 49.3812 111.643 49.5612C110.454 50.1802 109.205 50.2642 107.953 49.8522C106.595 49.4062 105.873 48.1372 105.948 46.4492C105.966 46.0369 106.014 45.6132 106.13 45.2192C106.604 43.6019 108.055 42.7522 109.759 43.0575C111.303 43.3354 112.401 44.7522 112.31 46.3376C112.283 46.8205 112.01 46.9936 111.563 46.9914C110.351 46.9891 109.137 46.9914 107.925 46.9914C107.718 46.9914 107.513 46.9914 107.262 46.9914H107.26ZM107.258 45.9435H111.044C110.991 44.7841 110.176 44.0187 109.055 44.0575C108.005 44.0916 107.24 44.8798 107.258 45.9435Z" fill="#7C7C84"/>
<path d="M47.322 46.9927C47.502 48.2205 48.1809 48.9065 49.3289 48.9125C49.9759 48.9155 50.632 48.7445 51.265 48.5825C51.63 48.4895 51.9559 48.3895 52.1379 48.7945C52.3019 49.1615 52.0689 49.3955 51.7549 49.5625C50.5869 50.1775 49.3539 50.2685 48.1199 49.8785C46.4229 49.3415 45.6389 47.4205 46.2059 45.3435C46.7799 43.2342 49.1199 42.3048 50.9619 43.4779C52.0129 44.1453 52.429 45.1727 52.411 46.3868C52.404 46.8856 52.0559 46.9995 51.6299 46.9972C50.4179 46.995 49.2039 46.9972 47.9919 46.9972C47.7849 46.9972 47.58 46.9972 47.327 46.9972L47.322 46.9927ZM51.1309 45.9494C51.1579 44.8674 50.336 44.0565 49.236 44.0542C48.145 44.0542 47.3379 44.8537 47.3449 45.9494H51.1309Z" fill="#7C7C84"/>
<path d="M37.628 46.5785C37.612 48.7579 36.263 50.0999 34.111 50.0799C32.099 50.0609 30.751 48.6099 30.778 46.4942C30.805 44.3666 32.188 42.9931 34.281 43.0159C36.32 43.0364 37.644 44.4464 37.628 46.5785ZM32.0219 46.5466C32.0219 48.0069 32.8969 48.9639 34.2249 48.9569C35.5299 48.9479 36.3909 48.0089 36.4019 46.5762C36.4139 45.1161 35.5499 44.1548 34.2199 44.1502C32.8669 44.1434 32.0239 45.0637 32.0219 46.5489V46.5466Z" fill="#7C7C84"/>
<path d="M74.732 46.5396C74.734 48.7127 73.418 50.0797 71.315 50.0797C69.24 50.0797 67.88 48.6737 67.889 46.535C67.898 44.4188 69.247 43.0248 71.29 43.0157C73.384 43.0066 74.728 44.3847 74.73 46.5396H74.732ZM69.131 46.5487C69.131 48.0087 70.005 48.9657 71.336 48.9567C72.661 48.9447 73.529 47.9767 73.518 46.5168C73.507 45.0977 72.634 44.1546 71.327 44.1501C69.976 44.1455 69.133 45.0658 69.131 46.5509V46.5487Z" fill="#7C7C84"/>
<path d="M23.5529 46.5741C23.5229 45.1801 24.0829 44.0913 25.3269 43.4466C26.6159 42.7792 27.919 42.8544 29.181 43.5833C29.509 43.7724 29.6479 44.0457 29.4659 44.3897C29.2839 44.7313 28.9919 44.6585 28.6729 44.5628C28.1359 44.4011 27.5839 44.1868 27.0379 44.1823C25.6759 44.1686 24.801 45.1095 24.767 46.4967C24.733 47.8791 25.5709 48.8661 26.9329 48.9071C27.4769 48.9231 28.0419 48.7361 28.5779 48.5791C28.9239 48.4761 29.2499 48.3171 29.4679 48.7201C29.6759 49.1021 29.4609 49.3761 29.1269 49.5561C27.8529 50.2391 26.5459 50.3261 25.2679 49.6261C24.0829 48.9791 23.5319 47.9231 23.5549 46.5719L23.5529 46.5741Z" fill="#7C7C84"/>
<path d="M41.846 48.541C42.505 46.8782 43.1199 45.3225 43.7369 43.7644C43.7569 43.712 43.7799 43.6596 43.7979 43.6049C43.9399 43.1585 44.2559 42.9831 44.6749 43.1516C45.1079 43.3248 45.0789 43.7074 44.9329 44.0673C44.6729 44.7165 44.3909 45.3589 44.1199 46.0035C43.6599 47.104 43.195 48.199 42.744 49.304C42.573 49.723 42.325 50.031 41.835 50.029C41.345 50.029 41.1009 49.721 40.9279 49.302C40.2149 47.571 39.491 45.8441 38.762 44.1197C38.596 43.7257 38.5459 43.3453 38.9919 43.1539C39.4429 42.9603 39.7229 43.1972 39.8959 43.6482C40.4429 45.0787 41.0169 46.4978 41.5839 47.922C41.6529 48.092 41.728 48.261 41.846 48.537V48.541Z" fill="#7C7C84"/>
<path d="M93.2691 44.1927C92.9371 44.1927 92.6931 44.2018 92.4491 44.1927C92.0511 44.1745 91.9621 43.9626 92.2221 43.6893C92.7981 43.0879 93.3952 42.5048 94.0122 41.9467C94.2562 41.7258 94.4811 41.8123 94.5021 42.1745C94.5181 42.4729 94.5042 42.7713 94.5042 43.1449C94.9962 43.1449 95.4451 43.1472 95.8941 43.1449C96.2441 43.1426 96.5041 43.2793 96.5181 43.6506C96.5341 44.0606 96.2582 44.1995 95.8822 44.1973C95.4492 44.195 95.0172 44.1973 94.5042 44.1973C94.5042 44.6916 94.5042 45.138 94.5042 45.5845C94.5042 46.4364 94.4971 47.2881 94.5061 48.1401C94.5131 48.7961 94.8162 49.0651 95.4682 49.0171C95.5252 49.0131 95.5821 49.0061 95.6361 48.9921C96.0261 48.9031 96.4952 48.7321 96.6162 49.2951C96.7462 49.8901 96.1852 49.9581 95.8092 50.0191C95.3722 50.0921 94.8981 50.0901 94.4611 50.0031C93.6641 49.8461 93.2742 49.2591 93.2672 48.3111C93.2582 46.9694 93.2651 45.6278 93.2651 44.1995L93.2691 44.1927Z" fill="#7C7C84"/>
<path d="M63.5159 44.1931C63.1899 44.1931 62.9459 44.2113 62.7069 44.1862C62.5729 44.1703 62.4129 44.1088 62.3339 44.0131C62.2929 43.963 62.3749 43.758 62.4539 43.676C63.0279 43.0997 63.6049 42.5234 64.2039 41.9721C64.4769 41.7216 64.6959 41.7922 64.7139 42.1954C64.7279 42.4915 64.7159 42.7899 64.7159 43.1429C65.2429 43.1429 65.694 43.1407 66.142 43.1429C66.491 43.1452 66.7349 43.2819 66.7369 43.6714C66.7389 44.0678 66.486 44.1862 66.14 44.1931C66.122 44.1931 66.1009 44.1931 66.0829 44.1931C65.6529 44.2181 65.0029 44.086 64.8459 44.3047C64.6179 44.6281 64.7279 45.1999 64.7189 45.6668C64.7069 46.4436 64.7099 47.2184 64.7189 47.9944C64.7279 48.8744 65.0649 49.1364 65.9439 48.9724C66.0919 48.9444 66.2629 48.8654 66.3859 48.9124C66.5569 48.9784 66.778 49.1174 66.817 49.2684C66.858 49.4204 66.757 49.7194 66.627 49.7924C65.887 50.1994 65.0969 50.2114 64.3339 49.8764C63.6529 49.5754 63.5019 48.9584 63.5089 48.2684C63.5199 46.9447 63.5139 45.6236 63.5139 44.1976L63.5159 44.1931Z" fill="#7C7C84"/>
<path d="M12.2198 43.992C12.4048 43.7483 12.8809 43.4043 13.7009 43.1105C13.8829 43.0444 14.1059 43.0193 14.3109 43.0216C14.6919 43.0262 14.9199 43.2403 14.9239 43.6207C14.9289 43.9874 14.6989 44.1742 14.3459 44.1833C13.6279 44.2016 12.9899 44.4202 12.5279 44.9715C12.3499 45.181 12.2158 45.4954 12.2068 45.7665C12.1718 46.9008 12.1859 48.0398 12.1949 49.1738C12.1999 49.6248 12.0838 50.0008 11.5688 50.0078C11.0428 50.0168 10.9419 49.6338 10.9419 49.1858C10.9489 47.4608 10.9449 45.7391 10.9449 44.0148C10.9449 43.582 10.9379 43.1264 11.5319 43.1082C12.1039 43.09 12.1969 43.5 12.1999 43.9578C12.1999 43.9874 12.2319 44.0171 12.2179 43.992H12.2198Z" fill="#7C7C84"/>
<path d="M115.354 44.1502C115.939 43.4964 116.508 43.0112 117.31 43.034C117.545 43.0409 117.852 43.214 117.984 43.4053C118.203 43.7265 117.948 44.1023 117.531 44.1798C117.199 44.2413 116.85 44.2595 116.533 44.3689C115.661 44.6741 115.319 45.1843 115.319 46.0978C115.319 47.0818 115.313 48.0658 115.322 49.0498C115.326 49.5148 115.294 49.9568 114.702 50.0138C114.269 50.0568 114.073 49.7518 114.073 49.0838C114.073 47.4368 114.069 45.7902 114.073 44.1433C114.073 43.7037 113.959 43.1525 114.638 43.1069C115.29 43.0636 115.303 43.5875 115.351 44.1479L115.354 44.1502Z" fill="#7C7C84"/>
<path d="M55.4591 44.14C56.0211 43.5181 56.5751 43.0352 57.3471 43.0352C57.5981 43.0352 57.9491 43.1969 58.0761 43.3974C58.3151 43.771 58.0331 44.1559 57.5271 44.1833C56.8531 44.2197 56.2421 44.411 55.8051 44.9281C55.6051 45.165 55.4411 45.5113 55.4291 45.8142C55.3861 46.9691 55.4201 48.1237 55.4041 49.2807C55.3971 49.8077 55.1061 50.0827 54.6841 50.0057C54.2541 49.9257 54.1831 49.6087 54.1851 49.2377C54.1901 47.4567 54.1881 45.6753 54.1851 43.8962C54.1851 43.509 54.2381 43.1491 54.7181 43.1081C55.2111 43.0648 55.3881 43.3678 55.4111 43.8074C55.4161 43.8803 55.4311 43.9509 55.4591 44.1422V44.14Z" fill="#7C7C84"/>
</svg>
