<svg width="97" height="58" viewBox="0 0 97 58" fill="none" xmlns="http://www.w3.org/2000/svg">
<mask id="mask0_192_3756" style="mask-type:luminance" maskUnits="userSpaceOnUse" x="0" y="20" width="14" height="18">
<path fill-rule="evenodd" clip-rule="evenodd" d="M0 20.7598H13.3928V37.2308H0V20.7598Z" fill="white"/>
</mask>
<g mask="url(#mask0_192_3756)">
<path fill-rule="evenodd" clip-rule="evenodd" d="M4.5296 33.4568H6.9065C8.0529 33.4568 8.6955 32.9538 8.6955 32.0028C8.6955 31.0508 8.0529 30.5478 6.9065 30.5478H4.5296V33.4568ZM4.5296 27.6108H6.2915C7.4656 27.6108 8.1929 27.1638 8.1929 26.0448C8.1929 24.9258 7.4656 24.4788 6.2915 24.4788H4.5296V27.6108ZM13.3928 32.7858C13.3928 35.4418 11.5755 37.2308 7.5496 37.2308H0V20.7598H7.326C10.8205 20.7598 12.6942 22.3528 12.6942 25.0658C12.6942 26.9958 11.5755 28.3388 9.8147 28.7848C12.1351 29.2608 13.3928 30.8278 13.3928 32.7858Z" fill="#7C7C84"/>
</g>
<path fill-rule="evenodd" clip-rule="evenodd" d="M22.3124 34.8266C21.9482 36.5316 20.6347 37.5656 18.4255 37.5656C16.0769 37.5656 14.4268 36.1116 14.4268 33.0646V24.3105H18.9564V32.1145C18.9564 33.4005 19.32 34.1826 20.3546 34.1826C21.5292 34.1826 22.2565 33.1206 22.2565 31.0236V24.3105H26.7856V37.2306H22.7315L22.3124 34.8266Z" fill="#7C7C84"/>
<path fill-rule="evenodd" clip-rule="evenodd" d="M31.3991 32.785C31.6511 33.848 32.4611 34.406 33.4401 34.406C34.2511 34.406 34.8101 34.127 34.8101 33.567C34.8101 33.008 34.3351 32.757 33.4121 32.561L31.6781 32.197C29.3297 31.693 28.0998 30.491 28.0998 28.365C28.0998 25.233 30.7841 24.002 33.6631 24.002C36.7671 24.002 38.6411 25.289 39.0881 27.693L34.9781 28.31C34.8381 27.582 34.3911 27.163 33.5241 27.163C32.8811 27.163 32.4331 27.47 32.4331 27.974C32.4331 28.477 32.7971 28.729 33.4681 28.84L35.2021 29.149C38.0531 29.624 39.2561 31.162 39.2561 33.344C39.2561 36.391 36.6001 37.565 33.4121 37.565C30.4771 37.565 28.5188 36.503 27.792 34.21L31.3991 32.785Z" fill="#7C7C84"/>
<mask id="mask1_192_3756" style="mask-type:luminance" maskUnits="userSpaceOnUse" x="0" y="0" width="97" height="58">
<path fill-rule="evenodd" clip-rule="evenodd" d="M0 57.506H96.8798V0H0V57.506Z" fill="white"/>
</mask>
<g mask="url(#mask1_192_3756)">
<path fill-rule="evenodd" clip-rule="evenodd" d="M40.5694 37.2298H45.0704V24.3098H40.5694V37.2298ZM42.8054 18.7168C44.1474 18.7168 45.2934 19.6398 45.2934 21.0938C45.2934 22.5478 44.1474 23.4718 42.8054 23.4718C41.4634 23.4718 40.3164 22.5478 40.3164 21.0938C40.3164 19.6398 41.4634 18.7168 42.8054 18.7168Z" fill="#7C7C84"/>
<path fill-rule="evenodd" clip-rule="evenodd" d="M51.5018 26.799C52.1718 24.87 53.6818 24.002 55.6118 24.002C57.5968 24.002 59.3868 25.177 59.3868 28.142V37.23H54.8848V29.876C54.8848 28.561 54.4918 27.75 53.3458 27.75C52.3678 27.75 51.5298 28.338 51.5298 30.324V37.23H47.0278V24.31H51.0808L51.5018 26.799Z" fill="#7C7C84"/>
<path fill-rule="evenodd" clip-rule="evenodd" d="M68.6397 29.373C68.6397 28.253 68.2487 27.275 66.9897 27.275C65.8997 27.275 65.2007 28.169 65.0887 29.373H68.6397ZM69.0867 32.561L72.8347 33.735C72.1067 36.503 69.8137 37.565 67.2417 37.565C63.4107 37.565 60.6157 35.132 60.6157 30.911C60.6157 26.548 63.0757 24.002 67.1307 24.002C70.9607 24.002 72.9177 26.464 72.9177 30.044C72.9177 30.519 72.9177 31.078 72.8617 31.666H64.9767C65.0607 33.26 65.8427 34.127 67.1857 34.127C68.1367 34.127 68.7797 33.708 69.0867 32.561Z" fill="#7C7C84"/>
<path fill-rule="evenodd" clip-rule="evenodd" d="M77.0557 32.785C77.3077 33.848 78.1177 34.406 79.0967 34.406C79.9067 34.406 80.4667 34.127 80.4667 33.567C80.4667 33.008 79.9917 32.757 79.0677 32.561L77.3347 32.197C74.9867 31.693 73.7567 30.491 73.7567 28.365C73.7567 25.233 76.4407 24.002 79.3207 24.002C82.4247 24.002 84.2987 25.289 84.7447 27.693L80.6347 28.31C80.4947 27.582 80.0477 27.163 79.1807 27.163C78.5377 27.163 78.0897 27.47 78.0897 27.974C78.0897 28.477 78.4537 28.729 79.1247 28.84L80.8597 29.149C83.7107 29.624 84.9137 31.162 84.9137 33.344C84.9137 36.391 82.2567 37.565 79.0677 37.565C76.1327 37.565 74.1767 36.503 73.4487 34.21L77.0557 32.785Z" fill="#7C7C84"/>
<path fill-rule="evenodd" clip-rule="evenodd" d="M89.0225 32.785C89.2745 33.848 90.0855 34.406 91.0635 34.406C91.8735 34.406 92.4335 34.127 92.4335 33.567C92.4335 33.008 91.9585 32.757 91.0355 32.561L89.3015 32.197C86.9535 31.693 85.7225 30.491 85.7225 28.365C85.7225 25.233 88.4065 24.002 91.2875 24.002C94.3905 24.002 96.2645 25.289 96.7115 27.693L92.6015 28.31C92.4615 27.582 92.0145 27.163 91.1475 27.163C90.5045 27.163 90.0565 27.47 90.0565 27.974C90.0565 28.477 90.4215 28.729 91.0925 28.84L92.8255 29.149C95.6775 29.624 96.8795 31.162 96.8795 33.344C96.8795 36.391 94.2235 37.565 91.0355 37.565C88.1005 37.565 86.1425 36.503 85.4155 34.21L89.0225 32.785Z" fill="#7C7C84"/>
<path fill-rule="evenodd" clip-rule="evenodd" d="M4.55741 48.1961H6.31931C7.91291 48.1961 8.61151 47.5521 8.61151 46.3791C8.61151 45.2051 7.91291 44.5621 6.31931 44.5621H4.55741V48.1961ZM9.22691 57.1701C8.69501 56.7231 8.49961 56.1081 8.30421 55.3251L7.80101 53.2841C7.52091 52.1101 7.04601 51.8861 5.98321 51.8861H4.55731V57.1701H-0.000488281V40.7051H7.04601C10.7364 40.7051 13.2816 42.1291 13.2816 45.8751C13.2816 48.4751 11.6033 49.7601 9.78601 50.0691C11.2955 50.3761 12.0511 51.0471 12.4429 52.4731L13.2251 55.2971C13.4205 56.0241 13.6447 56.5841 14.232 57.1701H9.22691Z" fill="#7C7C84"/>
<path fill-rule="evenodd" clip-rule="evenodd" d="M21.9767 49.3123C21.9767 48.1943 21.5853 47.2153 20.3266 47.2153C19.2366 47.2153 18.5376 48.1103 18.4258 49.3123H21.9767ZM22.424 52.5003L26.1708 53.6743C25.444 56.4423 23.1513 57.5053 20.5785 57.5053C16.748 57.5053 13.9521 55.0723 13.9521 50.8513C13.9521 46.4893 16.4127 43.9453 20.4668 43.9453C24.2972 43.9453 26.2544 46.4063 26.2544 49.9833C26.2544 50.4583 26.2544 51.0183 26.1992 51.6063H18.314C18.3975 53.1993 19.1808 54.0653 20.5231 54.0653C21.4735 54.0653 22.1167 53.6473 22.424 52.5003Z" fill="#7C7C84"/>
<path fill-rule="evenodd" clip-rule="evenodd" d="M25.9185 44.2539H30.6718L32.1538 49.4529C32.6848 51.3269 32.9918 52.6129 32.9918 52.6129H33.0488C33.0488 52.6129 33.3278 51.3269 33.9158 49.4529L35.5928 44.2539H39.9828L35.2858 57.1699H30.4208L25.9185 44.2539Z" fill="#7C7C84"/>
<path fill-rule="evenodd" clip-rule="evenodd" d="M40.9605 57.1691H45.4625V44.2531H40.9605V57.1691ZM43.1975 38.6621C44.5385 38.6621 45.6855 39.5861 45.6855 41.0381C45.6855 42.4921 44.5385 43.4141 43.1975 43.4141C41.8555 43.4141 40.7085 42.4921 40.7085 41.0381C40.7085 39.5861 41.8555 38.6621 43.1975 38.6621Z" fill="#7C7C84"/>
<path fill-rule="evenodd" clip-rule="evenodd" d="M54.8848 49.3123C54.8848 48.1943 54.4938 47.2153 53.2348 47.2153C52.1448 47.2153 51.4448 48.1103 51.3328 49.3123H54.8848ZM55.3318 52.5003L59.0788 53.6743C58.3518 56.4423 56.0598 57.5053 53.4868 57.5053C49.6558 57.5053 46.8608 55.0723 46.8608 50.8513C46.8608 46.4893 49.3208 43.9453 53.3758 43.9453C57.2058 43.9453 59.1628 46.4063 59.1628 49.9833C59.1628 50.4583 59.1628 51.0183 59.1068 51.6063H51.2218C51.3058 53.1993 52.0878 54.0653 53.4308 54.0653C54.3818 54.0653 55.0248 53.6473 55.3318 52.5003Z" fill="#7C7C84"/>
<path fill-rule="evenodd" clip-rule="evenodd" d="M71.2406 44.2539L72.1636 48.7539C72.6396 51.0749 72.8906 52.8079 72.8906 52.8079H72.9466C72.9466 52.8079 73.2256 51.1029 73.7576 48.8099L74.7916 44.2539H79.1816L75.6866 57.1699H70.6256L69.8426 53.3949C69.4516 51.4939 69.1436 49.2569 69.1436 49.2569H69.0876C69.0876 49.2569 68.7796 51.4939 68.3896 53.3949L67.6056 57.1699H62.5736L59.0786 44.2539H63.6356L64.6696 48.8099C65.2016 51.1029 65.4816 52.8079 65.4816 52.8079H65.5366C65.5366 52.8079 65.7896 51.0749 66.2626 48.7539L67.1866 44.2539H71.2406Z" fill="#7C7C84"/>
<path fill-rule="evenodd" clip-rule="evenodd" d="M23.043 12.1077H22.4557C20.8344 12.1077 20.2753 12.6107 20.2753 13.4507C20.2753 14.0657 20.6943 14.5407 21.4776 14.5407C22.2326 14.5407 23.043 14.1497 23.043 12.9467V12.1077ZM27.4048 13.0307C27.4048 13.6467 27.573 13.9817 28.048 13.9817C28.3275 13.9817 28.6071 13.8697 28.8589 13.7297V16.9187C28.2439 17.3667 27.6566 17.5337 26.6221 17.5337C24.8884 17.5337 23.938 16.7507 23.4343 15.4917C22.7075 16.8347 21.5611 17.5897 19.7156 17.5897C17.3393 17.5897 15.8569 16.1907 15.8569 13.9817C15.8569 11.2127 17.8419 9.81468 21.7288 9.81468H23.0429V8.94768C23.0429 8.10868 22.7634 7.52168 21.9525 7.52168C21.1697 7.52168 20.8066 7.99668 20.7502 9.05968L16.4442 8.38869C16.6955 5.73169 18.7652 4.05469 22.0925 4.05469C25.7829 4.05469 27.4048 5.67668 27.4048 8.50168V13.0307Z" fill="#7C7C84"/>
<path fill-rule="evenodd" clip-rule="evenodd" d="M38.3936 9.45134C37.8626 9.25534 37.5546 9.11533 36.8276 9.11533C35.7646 9.11533 34.4786 9.53534 34.4786 11.8283V17.2813H29.9766V4.36133H33.8356L34.2826 7.54933C34.6466 5.39633 36.4636 4.36133 38.6726 4.36133L38.3936 9.45134Z" fill="#7C7C84"/>
<path fill-rule="evenodd" clip-rule="evenodd" d="M39.1108 4.36133H43.8648L45.3458 9.56334C45.8768 11.4373 46.1848 12.7233 46.1848 12.7233H46.2418C46.2418 12.7233 46.5208 11.4373 47.1078 9.56334L48.7848 4.36133H53.1758L48.4788 17.2813H43.6118L39.1108 4.36133Z" fill="#7C7C84"/>
<path fill-rule="evenodd" clip-rule="evenodd" d="M59.6884 12.1399H59.1004C57.4794 12.1399 56.9204 12.6429 56.9204 13.4819C56.9204 14.0969 57.3394 14.5729 58.1224 14.5729C58.8774 14.5729 59.6884 14.1809 59.6884 12.9789V12.1399ZM64.0494 13.0629C64.0494 13.6779 64.2175 14.0139 64.6935 14.0139C64.9735 14.0139 65.2524 13.9019 65.5034 13.7619V16.9499C64.8894 17.3979 64.3014 17.5649 63.2674 17.5649C61.5344 17.5649 60.5824 16.7829 60.0794 15.5239C59.3524 16.8659 58.2064 17.6219 56.3614 17.6219C53.9844 17.6219 52.5024 16.2229 52.5024 14.0139C52.5024 11.2449 54.4874 9.84694 58.3734 9.84694H59.6884V8.97995C59.6884 8.14095 59.4084 7.55394 58.5974 7.55394C57.8144 7.55394 57.4504 8.02895 57.3954 9.09195L53.0884 8.42094C53.3404 5.76394 55.4104 4.08594 58.7384 4.08594C62.4284 4.08594 64.0494 5.70794 64.0494 8.53294V13.0629Z" fill="#7C7C84"/>
<path fill-rule="evenodd" clip-rule="evenodd" d="M75.0117 9.45134C74.4797 9.25534 74.1737 9.11533 73.4457 9.11533C72.3827 9.11533 71.0967 9.53534 71.0967 11.8283V17.2813H66.5947V4.36133H70.4537L70.9007 7.54933C71.2647 5.39633 73.0827 4.36133 75.2907 4.36133L75.0117 9.45134Z" fill="#7C7C84"/>
<path fill-rule="evenodd" clip-rule="evenodd" d="M84.8534 9.899C84.8534 8.25 84.0434 7.354 82.7284 7.354C81.4144 7.354 80.2954 8.33401 80.2954 10.906C80.2954 13.032 81.1904 14.15 82.6724 14.15C83.8184 14.15 84.8534 13.283 84.8534 11.522V9.899ZM84.8254 0H89.3554V17.282H85.2724L84.8534 15.045C84.3774 16.779 82.8404 17.618 80.8824 17.618C77.8624 17.618 75.7104 15.269 75.7104 11.073C75.7104 6.739 77.7784 4.054 81.4144 4.054C83.0644 4.054 84.3774 4.81001 84.8254 6.04001V0Z" fill="#7C7C84"/>
<path fill-rule="evenodd" clip-rule="evenodd" d="M0 17.2815V0.810547H4.5855V6.93454H10.2338V0.810547H14.8193V17.2815H10.2338V10.9055H4.5855V17.2815H0Z" fill="#7C7C84"/>
</g>
</svg>
