<svg width="100" height="76" viewBox="0 0 100 76" fill="none" xmlns="http://www.w3.org/2000/svg">
<path d="M79.607 17.6048C78.926 16.5359 78.004 15.6417 76.914 14.9941C75.825 14.3465 74.599 13.9635 73.334 13.876C72.07 13.7885 70.802 13.9989 69.634 14.4903C68.466 14.9817 67.429 15.7403 66.607 16.7053L63.703 14.5207C64.428 14.2225 65.939 13.5543 66.042 13.1482C66.104 12.9015 65.327 12.7318 64.145 12.6342L69.573 7.67899C69.592 7.66169 69.604 7.63879 69.609 7.61379C69.614 7.58879 69.61 7.56299 69.599 7.54019L68.216 4.93409C68.207 4.92129 68.194 4.91089 68.18 4.90379C68.166 4.89669 68.15 4.89299 68.134 4.89299C68.118 4.89299 68.102 4.89669 68.088 4.90379C68.074 4.91089 68.061 4.92129 68.052 4.93409L62.397 10.0743C60.706 10.0743 57.704 10.3005 56.841 9.75559C55.458 8.88689 55.299 7.60699 54.785 7.14949C54.271 6.69199 53.7 6.63549 53.577 6.24479C53.573 6.24149 53.571 6.23749 53.569 6.23309C53.567 6.22869 53.566 6.22389 53.566 6.21909C53.566 6.21439 53.567 6.20959 53.569 6.20519C53.571 6.20079 53.573 6.19679 53.577 6.19339C53.844 6.12659 55.33 5.71029 55.669 4.65139C56.008 3.59249 55.314 2.21999 55.201 1.99899C55.195 1.99169 55.192 1.98259 55.192 1.97329C55.192 1.96389 55.195 1.95489 55.201 1.94759L56.779 0.569988C56.785 0.563288 56.789 0.554887 56.79 0.545887C56.792 0.536887 56.79 0.527789 56.787 0.519589C56.783 0.511389 56.777 0.504487 56.769 0.499687C56.761 0.494987 56.752 0.49259 56.743 0.492889L54.43 0.775589C54.417 0.780789 54.402 0.780789 54.389 0.775589C54.271 0.611089 53.361 -0.494011 51.459 0.261589C49.249 1.16629 49.655 3.05269 49.655 3.05269C49.948 5.02149 50.631 5.41209 51.747 6.05469C51.773 6.05469 51.788 6.10609 51.747 6.12659C51.027 6.72799 43.815 12.6496 37.149 14.9627C37.124 14.9717 37.102 14.9881 37.087 15.0098C37.072 15.0314 37.064 15.0571 37.064 15.0835C37.064 15.1099 37.072 15.1357 37.087 15.1573C37.102 15.1789 37.124 15.1953 37.149 15.2043C39.086 16.037 44.859 15.595 46.576 14.5978C46.583 14.5932 46.591 14.5909 46.6 14.5912C46.608 14.5915 46.616 14.5944 46.623 14.5994C46.629 14.6045 46.634 14.6114 46.637 14.6194C46.64 14.6274 46.64 14.636 46.637 14.644C46.452 15.3585 45.445 19.5427 47.044 20.8432L47.131 20.9048L44.987 22.4469C44.889 22.5164 44.817 22.6166 44.781 22.7317C44.746 22.8468 44.75 22.9704 44.792 23.0831C44.834 23.1959 44.913 23.2915 45.015 23.3549C45.117 23.4184 45.238 23.4461 45.358 23.4339L46.463 23.3208C47.178 23.2444 47.846 22.9293 48.359 22.4264L48.724 22.0665L51.839 24.3899L51.428 27.6848C49.64 27.5874 47.869 28.0859 46.394 29.1022C44.919 30.1186 43.823 31.5954 43.277 33.3015C42.731 35.0075 42.766 36.8464 43.377 38.5303C43.988 40.2141 45.141 41.6478 46.654 42.6067C48.166 43.5657 49.955 43.9958 51.738 43.8298C53.522 43.6637 55.2 42.9109 56.51 41.6891C57.82 40.4673 58.687 38.8456 58.977 37.0779C59.267 35.3102 58.962 33.4964 58.111 31.9204L58.902 31.4064C59.218 31.6851 59.615 31.8547 60.034 31.89C60.454 31.9253 60.874 31.8243 61.232 31.6022C61.589 31.38 61.866 31.0485 62.02 30.6568C62.175 30.265 62.199 29.8339 62.089 29.4274L65.384 28.461C65.45 28.4448 65.512 28.4157 65.567 28.3753C65.621 28.3349 65.668 28.2841 65.702 28.2258C65.737 28.1674 65.76 28.1028 65.77 28.0355C65.78 27.9683 65.776 27.8997 65.759 27.8339V27.7208C65.737 27.6011 65.674 27.493 65.58 27.4158C65.485 27.3386 65.367 27.2973 65.245 27.2993H62.444C62.435 27.2988 62.427 27.2961 62.42 27.2916C62.413 27.2871 62.407 27.281 62.403 27.2736L61.56 25.3666L63.266 15.5487L65.96 17.5534C65.178 18.777 64.741 20.1882 64.692 21.6392C64.643 23.0901 64.986 24.5275 65.684 25.8006C66.381 27.0738 67.408 28.1359 68.657 28.8758C69.907 29.6156 71.332 30.006 72.783 30.006C74.235 30.006 75.66 29.6156 76.909 28.8758C78.158 28.1359 79.186 27.0738 79.883 25.8006C80.581 24.5275 80.923 23.0901 80.875 21.6392C80.826 20.1882 80.388 18.777 79.607 17.5534V17.6048ZM57.165 11.7552L60.984 11.6884L61.498 12.629C60.619 12.665 59.689 12.7318 58.799 12.8449C58.152 12.922 57.375 12.0945 57.144 11.8169C57.139 11.806 57.138 11.7934 57.142 11.7818C57.146 11.7703 57.154 11.7607 57.165 11.7552ZM51.392 17.466C51.716 16.952 53.561 13.8678 53.798 12.7935C53.801 12.7871 53.807 12.7817 53.813 12.778C53.819 12.7743 53.826 12.7723 53.834 12.7723C53.841 12.7723 53.848 12.7743 53.855 12.778C53.861 12.7817 53.866 12.7871 53.87 12.7935C55.109 14.2277 57.71 15.0552 57.91 15.1169H57.936L61.277 14.0889L62.027 14.6492L58.527 17.8618C58.152 17.5143 57.674 17.2978 57.165 17.245C55.145 16.988 52.024 17.4403 51.428 17.5277C51.421 17.5278 51.414 17.5259 51.407 17.5223C51.401 17.5188 51.396 17.5136 51.392 17.5073C51.389 17.501 51.387 17.4939 51.387 17.4867C51.387 17.4794 51.389 17.4723 51.392 17.466ZM60.043 27.9984C59.816 28.0238 59.595 28.09 59.39 28.1937L57 26.3432C56.994 26.3359 56.991 26.3269 56.991 26.3175C56.991 26.3082 56.994 26.2991 57 26.2918L58.193 23.8142C58.197 23.8079 58.203 23.8027 58.209 23.799C58.216 23.7954 58.224 23.7935 58.231 23.7935C58.239 23.7935 58.246 23.7954 58.253 23.799C58.26 23.8027 58.266 23.8079 58.27 23.8142L60.239 26.8984L60.043 27.9984ZM54.97 25.3152L53.33 24.0918L56.466 21.2133L54.97 25.3152ZM54.97 21.0899L52.425 23.4287L49.855 21.5268C51.575 21.532 53.291 21.3875 54.985 21.095L54.97 21.0899ZM52.914 25.1301L54.589 26.3844L54.389 26.9344C54.355 27.0272 54.339 27.1258 54.343 27.2247C54.347 27.3236 54.37 27.4208 54.412 27.5106C54.453 27.6004 54.512 27.6811 54.585 27.7481C54.658 27.815 54.743 27.8669 54.836 27.9007L58.337 29.1755L58.439 29.2526C58.293 29.6502 58.277 30.084 58.393 30.4914L57.607 31.0055C56.396 29.3422 54.596 28.2041 52.574 27.8236L52.914 25.1301ZM52.369 29.4737C53.895 29.7896 55.255 30.6502 56.193 31.8947L51.706 34.7527L52.369 29.4737ZM54.517 41.1883C53.669 41.738 52.702 42.0798 51.696 42.1858C50.691 42.2919 49.674 42.1592 48.729 41.7986C47.784 41.438 46.938 40.8597 46.259 40.1106C45.579 39.3614 45.086 38.4626 44.819 37.4871C44.553 36.5116 44.52 35.487 44.723 34.4964C44.927 33.5058 45.361 32.5772 45.991 31.7859C46.621 30.9947 47.428 30.3632 48.348 29.9427C49.268 29.5221 50.274 29.3245 51.284 29.3657L50.482 35.7705C50.472 35.8719 50.491 35.9741 50.536 36.0655C50.582 36.1568 50.652 36.2336 50.738 36.2871C50.825 36.3407 50.925 36.3688 51.027 36.3683C51.129 36.3679 51.229 36.3388 51.315 36.2845L56.774 32.8045C57.512 34.2334 57.688 35.8865 57.269 37.4389C56.849 38.9912 55.864 40.3305 54.507 41.1934L54.517 41.1883ZM59.282 20.1749C59.321 19.7165 59.267 19.255 59.123 18.8179L62.079 16.1039L60.799 23.6189L59.282 20.1749ZM76.245 27.3713C75.018 28.1501 73.564 28.4904 72.119 28.3367C70.674 28.183 69.323 27.5444 68.288 26.5248C67.252 25.5053 66.592 24.1651 66.416 22.7226C66.24 21.2801 66.557 19.8204 67.317 18.5815L72.411 22.3801C72.502 22.4429 72.611 22.4765 72.722 22.4765C72.833 22.4765 72.941 22.4429 73.033 22.3801C73.089 22.3452 73.138 22.2998 73.177 22.2465C73.262 22.1305 73.298 21.9853 73.277 21.8427C73.256 21.7001 73.179 21.5718 73.064 21.4857L67.97 17.6819C68.581 16.9979 69.331 16.4527 70.17 16.0829C71.01 15.7131 71.919 15.5273 72.836 15.5379C73.753 15.5486 74.657 15.7555 75.488 16.1447C76.318 16.5339 77.056 17.0963 77.651 17.7943C78.246 18.4923 78.684 19.3096 78.937 20.1912C79.19 21.0729 79.251 21.9984 79.117 22.9057C78.982 23.813 78.655 24.6809 78.157 25.4511C77.659 26.2214 77.002 26.8761 76.23 27.3713H76.245Z" fill="#7C7C84"/>
<path d="M59.879 8.7487L61.76 8.85659C61.804 8.85899 61.848 8.8525 61.89 8.8375C61.931 8.8225 61.969 8.7993 62.002 8.7692L66.654 4.4052C66.666 4.394 66.675 4.3792 66.679 4.3628C66.683 4.3463 66.682 4.3291 66.676 4.3134C66.67 4.2976 66.659 4.28419 66.645 4.27489C66.631 4.26549 66.614 4.2608 66.597 4.2612L64.772 4.1533C64.706 4.1491 64.639 4.1588 64.576 4.1818C64.513 4.2048 64.456 4.2406 64.407 4.2869L59.817 8.58929C59.804 8.60199 59.795 8.6182 59.791 8.6361C59.787 8.6539 59.788 8.67249 59.795 8.68959C59.801 8.70659 59.813 8.7213 59.828 8.7318C59.843 8.7424 59.861 8.7482 59.879 8.7487ZM35.252 36.1102L32.276 37.9196L29.454 35.6168L30.348 39.1481L27.449 41.0809L30.98 41.4561L32.008 44.9515L33.299 41.6514L36.83 41.8827L34.1 39.4668L35.252 36.1102ZM38.722 23.3933L35.745 25.1975L32.918 22.8946L33.813 26.426L30.919 28.3587L34.45 28.734L35.478 32.2345L36.768 28.9344L40.3 29.1606L37.57 26.7498L38.722 23.3933ZM24.848 30.2144L25.999 26.8578L23.023 28.6671L20.201 26.3643L21.096 29.8957L18.202 31.8284L21.728 32.2036L22.761 35.7042L24.046 32.4041L27.583 32.6303L24.848 30.2144ZM0 75.4025V59.6372H6.55899C9.38099 59.6372 11.216 61.6933 11.216 64.4275C11.216 67.1625 9.38099 69.2235 6.55899 69.2235H2.509V75.3925L0 75.4025ZM2.509 61.7652V67.1165H6.44601C7.70001 67.1165 8.70801 65.8415 8.70801 64.4275C8.70801 63.0145 7.68001 61.7652 6.44601 61.7652H2.509ZM23.871 72.0925C24.678 71.9325 25.465 71.7785 26.246 71.6445C26.406 72.5395 26.94 73.6135 28.755 73.6135C29.161 73.6135 31.15 73.4595 31.15 72.0255C31.15 69.3165 24.211 72.1125 24.211 67.2555C24.211 65.3275 26.133 63.8725 28.554 63.8725C30.975 63.8725 33.031 64.9005 33.371 67.4095C32.564 67.5485 31.777 67.7025 30.996 67.8615C30.836 66.4485 29.968 65.9335 28.621 65.9335C27.434 65.9335 26.627 66.5615 26.627 67.2555C26.627 68.1755 27.48 68.4165 28.821 68.5555C31.392 68.8225 33.545 69.3835 33.545 72.0255C33.545 74.3995 31.489 75.6545 28.755 75.6545C25.845 75.6545 24.185 74.1125 23.871 72.0925ZM34.178 65.9235V64.0735H36.126V60.7835H38.547V64.0525H40.896V65.9235H38.547V72.3495C38.547 73.2435 38.814 73.5155 39.575 73.5155C39.909 73.5155 40.649 73.4695 40.649 73.4695V75.4175C40.649 75.4175 39.78 75.5055 38.922 75.5055C36.794 75.5055 36.1 74.3645 36.1 72.1945V65.9235H34.178ZM49.321 69.0905C49.321 67.3625 48.94 65.9085 47.126 65.9085C45.399 65.9085 44.931 67.3625 44.931 69.0905V75.4025H42.51V64.0935H44.705L44.931 65.3225C45.265 64.6955 46.612 63.8675 47.933 63.8675C48.565 63.8305 49.195 63.9705 49.752 64.2705C50.31 64.5705 50.773 65.0205 51.089 65.5695C51.696 64.5405 53.145 63.8675 54.492 63.8675C57.576 63.8675 58.522 65.7485 58.522 69.1105V75.4225H56.137V69.0905C56.137 67.3835 55.669 65.8875 53.942 65.8875C52.127 65.8875 51.747 67.3425 51.747 69.0905V75.4025H49.331L49.321 69.0905ZM62.912 67.9795C62.13 67.8465 61.323 67.6665 60.516 67.5325C60.763 65.0245 62.824 63.8575 65.199 63.8575C68.401 63.8575 70.057 65.3995 70.057 68.5145V72.4565C70.057 73.1305 70.19 73.5105 70.663 73.5105C70.86 73.5075 71.056 73.4765 71.244 73.4185V75.3925C70.777 75.5185 70.294 75.5795 69.81 75.5715C69.338 75.6025 68.873 75.4525 68.507 75.1525C68.142 74.8535 67.904 74.4265 67.841 73.9575C67.407 74.4755 66.866 74.8935 66.256 75.1835C65.646 75.4735 64.98 75.6285 64.305 75.6385C61.683 75.6385 60.115 74.1785 60.115 72.0405C60.115 70.2725 61.75 68.6585 64.742 68.6585H67.656V67.9795C67.656 67.1055 67.296 65.9235 65.214 65.9235C63.827 65.9235 62.973 66.6175 62.927 67.9795M67.656 71.0225V70.4625H64.988C62.999 70.4625 62.593 71.4905 62.593 72.0305C62.593 72.7915 63.107 73.5725 64.587 73.5725C66.556 73.5725 67.671 72.2305 67.671 71.0025M17.107 75.6495C15.941 75.6495 14.801 75.3035 13.831 74.6555C12.862 74.0075 12.106 73.0865 11.66 72.0095C11.214 70.9325 11.097 69.7465 11.324 68.6025C11.552 67.4595 12.113 66.4085 12.938 65.5845C13.762 64.7595 14.813 64.1985 15.957 63.9705C17.1 63.7435 18.286 63.8595 19.363 64.3065C20.44 64.7525 21.361 65.5085 22.009 66.4775C22.657 67.4475 23.003 68.5875 23.003 69.7535C23.001 71.3165 22.38 72.8155 21.274 73.9205C20.169 75.0265 18.67 75.6475 17.107 75.6495ZM17.107 66.1085C16.385 66.1085 15.679 66.3225 15.079 66.7245C14.478 67.1255 14.011 67.6955 13.735 68.3625C13.458 69.0305 13.387 69.7645 13.528 70.4725C13.669 71.1805 14.017 71.8305 14.528 72.3405C15.039 72.8505 15.69 73.1985 16.398 73.3385C17.106 73.4785 17.84 73.4055 18.507 73.1285C19.174 72.8515 19.743 72.3835 20.144 71.7825C20.544 71.1815 20.757 70.4755 20.756 69.7535C20.755 68.7865 20.37 67.8595 19.686 67.1755C19.001 66.4925 18.074 66.1085 17.107 66.1085ZM86.295 71.4645C87.035 71.6655 87.77 71.8865 88.51 72.1125C87.996 73.7475 86.454 75.6285 83.37 75.6285C80.286 75.6285 78.039 73.2335 78.039 69.7375C78.039 66.2425 80.095 63.8475 83.257 63.8475C86.418 63.8475 88.366 65.9545 88.366 69.3775C88.373 69.7385 88.357 70.0985 88.32 70.4575H80.538C80.584 72.1125 81.725 73.5875 83.36 73.5875C84.014 73.6065 84.657 73.4085 85.187 73.0245C85.718 72.6405 86.107 72.0925 86.295 71.4645ZM85.781 68.6425C85.714 66.9625 84.907 65.8875 83.246 65.8875C81.586 65.8875 80.717 67.2295 80.651 68.6425H85.781ZM89.404 72.0925C90.212 71.9375 90.998 71.7785 91.779 71.6445C91.939 72.5395 92.473 73.6135 94.288 73.6135C94.689 73.6135 96.683 73.4595 96.683 72.0255C96.683 69.3165 89.744 72.1175 89.744 67.2555C89.744 65.3325 91.666 63.8725 94.087 63.8725C96.508 63.8725 98.564 64.9005 98.899 67.4145C98.097 67.5485 97.31 67.7025 96.529 67.8615C96.37 66.4485 95.501 65.9335 94.154 65.9335C92.967 65.9335 92.16 66.5615 92.16 67.2555C92.16 68.1755 93.013 68.4215 94.355 68.5555C96.925 68.8225 99.078 69.3835 99.078 72.0255C99.078 74.3995 97.022 75.6545 94.288 75.6545C91.378 75.6545 89.718 74.1125 89.404 72.0925ZM70.884 65.9235V64.0735H72.832V60.7835H75.253V64.0525H77.602V65.9235H75.253V72.3495C75.253 73.2435 75.521 73.5155 76.307 73.5155C76.641 73.5155 77.381 73.4695 77.381 73.4695V75.4175C77.381 75.4175 76.518 75.5055 75.654 75.5055C73.531 75.5055 72.832 74.3645 72.832 72.1945V65.9235H70.884Z" fill="#7C7C84"/>
</svg>
